<mxfile host="Electron" agent="Mozilla/5.0 (Windows NT 10.0; Win64; x64) AppleWebKit/537.36 (KHTML, like Gecko) draw.io/24.7.8 Chrome/128.0.6613.36 Electron/32.0.1 Safari/537.36" version="24.7.8">
  <diagram name="Page-0" id="Page-0">
    <mxGraphModel dx="880" dy="532" grid="1" gridSize="10" guides="1" tooltips="1" connect="1" arrows="1" fold="1" page="1" pageScale="1" pageWidth="809.63" pageHeight="898.53" math="0" shadow="0">
      <root>
        <mxCell id="0" />
        <mxCell id="1" parent="0" />
        <mxCell id="2" style="vsdxID=1;fillColor=none;gradientColor=none;image;aspect=fixed;image=data:image/jpeg,/9j/4AAQSkZJRgABAQAAAQABAAD/4gHYSUNDX1BST0ZJTEUAAQEAAAHIAAAAAAQwAABtbnRyUkdCIFhZWiAH4AABAAEAAAAAAABhY3NwAAAAAAAAAAAAAAAAAAAAAAAAAAAAAAAAAAAAAQAA9tYAAQAAAADTLQAAAAAAAAAAAAAAAAAAAAAAAAAAAAAAAAAAAAAAAAAAAAAAAAAAAAAAAAAAAAAAAAAAAAlkZXNjAAAA8AAAACRyWFlaAAABFAAAABRnWFlaAAABKAAAABRiWFlaAAABPAAAABR3dHB0AAABUAAAABRyVFJDAAABZAAAAChnVFJDAAABZAAAAChiVFJDAAABZAAAAChjcHJ0AAABjAAAADxtbHVjAAAAAAAAAAEAAAAMZW5VUwAAAAgAAAAcAHMAUgBHAEJYWVogAAAAAAAAb6IAADj1AAADkFhZWiAAAAAAAABimQAAt4UAABjaWFlaIAAAAAAAACSgAAAPhAAAts9YWVogAAAAAAAA9tYAAQAAAADTLXBhcmEAAAAAAAQAAAACZmYAAPKnAAANWQAAE9AAAApbAAAAAAAAAABtbHVjAAAAAAAAAAEAAAAMZW5VUwAAACAAAAAcAEcAbwBvAGcAbABlACAASQBuAGMALgAgADIAMAAxADb/2wBDAAMCAgICAgMCAgIDAwMDBAYEBAQEBAgGBgUGCQgKCgkICQkKDA8MCgsOCwkJDRENDg8QEBEQCgwSExIQEw8QEBD/2wBDAQMDAwQDBAgEBAgQCwkLEBAQEBAQEBAQEBAQEBAQEBAQEBAQEBAQEBAQEBAQEBAQEBAQEBAQEBAQEBAQEBAQEBD/wAARCANRAv0DASIAAhEBAxEB/8QAHQABAAMBAQEBAQEAAAAAAAAAAAUGBwQIAwIBCf/EAFsQAAAFAwIDAwQLCgwFBAECBwECAwQFAAYRBxITFCEVIjEIFjJBFxgjM1FVV2GU0tQkNDVUWHGSlZbTJUJTVmJjk5ez0dXhCTdSc3U2RIG1JkORZ3J2tKGxsv/EABgBAQEBAQEAAAAAAAAAAAAAAAABAgME/8QAIBEBAQACAwEBAQEBAQAAAAAAAAECEQMSUSIxIUEEYf/aAAwDAQACEQMRAD8A/wBU6UpQKUpQKUpQKUpQKUpQKUpQKUpQKpD7VeJI5Ub2/AzNxlQOZJZeNIgVApwEQEpVXCqRFcCAgPDE4FEBAcCGK6NV3rtlYr0rJdRE75yyjTqpGEqiaTp2k3UOQwdSmAiphA3qEAH1VAtmzdm3SZs26aCCBCppJJkApEyFDAFKAdAAAAAAArtxcUz/ALUt0t1s3tCXSdZo05hpINSgdxHvEuE4SKIiAGx1KcgiAgCiYmIIgIAYRAan6x+cUPGyMBPtA2vWkyxaEMH8ZF24TbLJm9YlEiu/HhvTTN/FCtgrPJh0y0QpSlc1KUpQKUpQKUpQKUpQKUpQKUpQKUpQKUpQKUpQKUpQKUpQKUpQKUpQKUpQKUpQKUpQKUpQKUpQKUpQKUpQKUpQKUpQKUpQKUpQKUpQKUpQKUpQKUpQKUpQKUpQKUpQKUpQKUpQKUpQKUpQKUpQKUpQKUpQKUpQKUpQKUpQKUpQKUpQKUpQKUpQcM3Dx9ww72ClURVZv0Dt1igYSiJDBgcGDqUeuQEOoDgQ61lkwW9bIbJkl4Be424uEGaEhGKtk1FTLKlST46Kx0gTOJ1CAPDMco9Te5h3Q0F9cs00dqtm+n0+9TTNgrhBdgCagfCUFHJTY/OUBqqagXXOngmpTaaXImATcMOTOI3AiEk2EA6Ox6jjAerI9cB1reOdw/B021Z09IzTO47tbIsUI0xlo+MIqCygLGKYnGcHL3dxSHMUqZBMUBETCcw7NmhVWPO6f+S+5/pEZ9rqWhpR9KJKKPrckYgxDABSPVG5jKB8IcBVQMfnEBrOWVyu6JGlKVApSlApSlApSlApSlApSlApSlApSlApSlApSlApSlApSlApSlApSlApSlApSlApSlApSlApSlApSlApSlApSlApSlApSlApSlApSlApSlApSlApSlApSlApSlApSlApSlApSlApSlApSlApSlApSlApSlApSlApSlApSlApSlApSlApSlApSlAqsaifgBp/52E/+zbVZ6rGon4Aaf8AnYT/AOzbUFnpSlApSlApSlApSlApSlApSlApSlApSlApSlApSlApSlApSlApSlApSlApSlApSlApSlApSlApSlApSlApSlApSlApSlApSlApSlApSlApSlApSlApSlApSlApSlApSlApSlApSlApSlApSlApSlApSlApSlApSlBR9S5OYRXgoSJlnEaWScrC5XbgQVRSTRMbhlE5RAu4wlETAGcFEAxnIVzsuX/nxcv0wv1am9Sv/UVp/wDdef4NVK+b0LZzJkDaJcS0rLuyx8XHIHKQzlwYpjd45uiaZSEOc5xzgpRwBjYKPq4ccbjuxmpLsuX/AJ8XL9ML9WnZcv8Az4uX6YX6tUZlqrcluyxIfWOz4u2RdtXLtg/iJpSWZLFbpiosiY6jZuqRcEymUAgJGAxCGEDZAS1J3Vq/Z9twyEiEq2Ms+iTzbEjkjlJJZoUyQGUMdNFQxADjpdNgm73o9BEOvXDwWbsuX/nxcv0wv1adly/8+Ll+mF+rVMldfNPoa4kLRkE7obSrx0diyBxaMui0dOSkMcSJvDNQbmDaQxt4KCXBRHOArntDXOLubRw2rTuAdsRQaAs4iiKlWWBYxCGTRTN3QOKgKJbBEC54hcgUcgDrh4L32XL/AM+Ll+mF+rTsuX/nxcv0wv1azmC8pGxnFlWxdN1kewzy4YlGYXjmrJ1KDFoKeKjpVqiYqCICBg46vDT7hh3YKOPrqX5RdhaeMJAya60xIMkUVeE1auTswOrt4SSz5NI7duc5TlMQihwMcDF2gO4MuvH+6g0HsuX/AJ8XL9ML9WnZcv8Az4uX6YX6tRSmpllIxzqVWmdjZlLkgXB+XWHY/OoRIqOAJke+oQNwBt65zgBEKvGeUDaBrYjp+4Gsm0cySrwhI+LjHkwuRJu4OiZc5GiBzkSyQMqHKUgCYC7s+Lrh5BfRjJoAynfdykMHom5ohsD8ODEEB/MICHwgNXrT6Yfz1lQ8rKqlVeLNig4VKUCgooURKY+0OhdwlEcB0DOKp8ZJx8zHNZeJeovGT1Ejhu4ROB01UzAAlOUwdBAQEBAasek3/LyF/wC0f/ENXDnxkk1Fi3UpSvOr8nORMhlFDgUpQETGEcAAB6xqjLRqOqxebfHcJ2yibdHlSUMko9WKPdd7gwIEIIAKXwmAFPUSuySIrfUi4t/hqJ2+xU4cioICUZBUOoti/wBUH/6hv4w9wOm+raQhEyFTTIBSlAAKUAwAAHqCgrluzbxu/NaFyrFNKt0hVbudu0si3AQDilDwA4ZAFCB4CICHdMFWWoi5Ldb3EzTTFY7V40UBwxeJgAqNVgAQA5c+IYEQMUehiiID0GvxbU47lUnDKWZcpKxxwReJFAeEYRDJVUjD6SZw6h6w6lHqA0E1SlKDO7+kZtxdbC3GE68i2YR6r1cWewqi5+IQhAE5iiJSlDcOC4ERMGRwGBiOy5f+fFy/TC/VqSvD/mQ1/wDBn/xwqi6gXxekDcUBadiWhCzklNovHJhl5xWMQRSb8Ldg6TRyYxhFUuA2gHQevqr18WONw3YzVo7Ll/58XL9ML9WnZcv/AD4uX6YX6tUWO1pRh20u31ZiWtsSkK8aM1ko52tLNnBnRRM2BuoVumsoY+0SbBQKbeG0N2SibuktdtM4ddk2lJSUaneNkXinFgJAoRyKvvZ34ihiPA3XHNCl6Jv+kcdOuHgtnZcv/Pi5fphfq07Ll/58XL9ML9Wq/IapWzCPLkJOP26Da3eTBTlyuHLlU7km5NMqBEcqKHHAJpoiqc4iAYAwgUfm31n08c2q6vAspIJMmToGK7ZeGeoyJHQiGxDkDog7FU24okTBLccpimKAgIDTrh5BZOy5f+fFy/TC/Vp2XL/z4uX6YX6tUJfyg7OUnbPhodhOPwuyRcxon7DkUlI5VFEVBK5SM33IHzs7i3CECGFT0CiNdNga1RN5WZOXhJxSsKS3lngPETqgtlFEx8LEMAF3FOVMeggAgYDF64yLrh4Lp2XL/wA+Ll+mF+rTsuX/AJ8XL9ML9Ws9tTyg7cltN4rUG64aTgFpd67YN4RBqtKyJlUF1EzEKgzTUUVMAJCY4JlMUgZETCUNwz8hrLp1HW5G3SM05es5g5k2KMbFu371wcmeIUrRukdxuTwIKBw8piAgfbgadcPILH2XL/z4uX6YX6tOy5f+fFy/TC/VqnaZ622vqQzj1G5gaOpheVLHNwFRUHLdi54B1t+woEzuTNsNgQ34DdgRr7Iaw29IXNARERscxk4wlnoyiihkCt+QVSSUKJDkARDcobvCIAGzPUByDrh4LX2XL/z4uX6YX6tdlrvp6JvWNiVrkkZJhJtnQHQemIoKaqYEMVQhwKBg6biiUREByA9BDrVrQ1Zsa+pNWIt5/IC6TRFymR9DvGAO0AMBRXbGcpJldJZMX3VETk75Bzgxc2Zh/wAw7b/7T7/DLWOTHHpbILjqDMP4GypiVilSpPEWxgbqmKBgTUMIFKfaPQ20TAOB6DjFUUIyaEMqX3cpzD6RuaIXI/DgpAAPzAAB8ABVt1Z/5eTX/aJ/iFqm3lcPmlaM1dPKc32PHuH/AAOJw+LwkzH2bsDtztxnA4z4DWODHGy2xa+vZcv/AD4uX6YX6tOy5f8Anxcv0wv1a6GMim6iW8sttbprNyOD7j9EwEoGHJhx0D4aq9oav2DfMsrC27JPzOSIi5RF5DvWKT1ADbRWaKuEiJu0gES+6IGUJg5Bzg5RHv0w8RYOy5f+fFy/TC/Vp2XL/wA+Ll+mF+rVODXrTpynLdmPJZ4rFsnL5MCwMgVORTQD3QWKoobH2OmeWFXxAcYGu2w9WrbviHtN6UjuOkLuiTyzOPdM3CSgJpgnxsiqkQcFFUgAJgLvAQMUBDrU64eQWTsuX/nxcv0wv1adly/8+Ll+mF+rVakdadOY2Hjp1aZdrt5ddy2j02US8duXayBjAqmk3RSMscxdhxwBBEQKIhkAEa+k5rFp/bk0lAy0m+Tcm4QLqpQ7xZqxFXHDB25TSMizE24ogC50xEBAfWFOuHkFh7Ll/wCfFy/TC/Vrstd9PRN6xsStckjJMJNs6A6D0xFBTVTAhiqEOBQMHTcUSiIgOQHoIdYD2R7SNeSlgIu3ricR2C4QbxjpZNsB0+IQyyxExSRAxc7ROcoGEDFDIgIBOMP+Ydt/9p9/hlrHJhjMLZBcdQZh/A2VMSsUqVJ4i2MDdUxQMCahhApT7R6G2iYBwPQcYqihGTQhlS+7lOYfSNzRC5H4cFIAB+YAAPgAKturP/Lya/7RP8QtQtY4MZlLuLUZ2XL/AM+Ll+mF+rTsuX/nxcv0wv1apNhaztL0ua5IJ3CDENIghnca/WdAZOSYkWVQVcYEpQSAqyCgYyYNgpn3Bv2lgnHlWaXJXMziAeuUYpWMeSrmVfsHjJNNBFVumRZEqyBeaQUM4DDhITJhtzuEByHbrx+I1PsuX/nxcv0wv1adly/8+Ll+mF+rVCW8pXR5uo5QczkuiuwVKm+QUtqUKsyTN6DlwmLfeg1N12uVAKgbA4OOBx+FPKN04jSukZuTXO8bLPfuWFipKVVFu2cnQOsJEWu8AKYmDiBRIQRDvmKJTGdeP/waAMZNAGU77uUhg9E3NENgfhwYggP5hAQ+EBq9afTD+esqHlZVUqrxZsUHCpSgUFFCiJTH2h0LuEojgOgZxVOi5SOm41rMxD1J2xfIkcNnCJtxFUjgBimKPrAQEBqyaTf8vIX/ALR/8Q1cOfGSTUWLdSlK86lKUoFKUoFKUoFKUoFKUoFUDUWWmQuKDtaOl3Ma3fs379ws12gscW52xCJgYwG2lHmTGHaAGyQoZANwGv8AWbagf8x7X/8ACTP+PHVvjkuUlSo3suX/AJ8XL9ML9WnZcv8Az4uX6YX6tV7UfUF1ZisDCwkSykp+6Xx4+JbSEiLBodUiJ1z8RcE1TF9zSPgCJKGEf4uNxi8lramyS0wnaGpFq+a1xuHBkGZG7hV9GyOEjLZavDIJbxBMptxDppmAxTAAGDBh9nXDxFs7Ll/58XL9ML9WnZcv/Pi5fphfq1T5XX7SuHWOi6nX6woqrJuTsoN+7TaFSVMkos4OiiYrdAFCKF4yolSHhqYMIENiPhPKIsmSLc6z9rNMUrdmxhEQ7EkFVpNThFUAWqIN+I4MICcdiIKDsICmdhgGnXj8g0DsuX/nxcv0wv1adly/8+Ll+mF+rVNdeUDpWzYMnx5qTVPIJOFkGLaAkF5AQQUIRcpmSaBnBDpmULvTMmByhkwgBSiIdtpa1aa3zLt4W1Z9Z8q9ames1wjXSbR4kXbv4Do6YILGIJgA5EzmMQcgYCiAgDrh5BaoiRn4C7rdY+cslItJt4swcIPjkVAoFZuFyqEMBQMUwGQAvjtEpzZAR2iXVqyRx/62sT/zbj/6t9Wt15eaSZaiwpSlclKUpQKUpQKq+pU3JQForPohwDd2s8YMCL7CnFEHLxFAyhQMAlExSqiYu4BLuAMgIZAbRVI1j/8ARJf/ADcH/wDaNauP6K32XMeu+blEfh5wv1Kdly/8+Ll+mF+rXHf15xWndlzV8zZVDMINmo9cAmJQMJCBkephAofnMIAAdREAARqtW7fmo4TTZhqBptHRsdJN1HDOVt+bWmG6XDLvErve0bigJi42GLxCmEDFExR27/d0w/NMrj2XL/z4uX6YX6tOy5f+fFy/TC/VquSmr1nNLXY3NGv+eLNRLuXhkuEqlzySDcVzdRJ7l3MemAD18BHpVegfKP0/uWzHNzxb4UHTa3zXBy8i0etG66BUgOdRBwZv91okExSmWbEVANxegiYoC64eQaJ2XL/z4uX6YX6tOy5f+fFy/TC/Vqsyes+n8JJNYiWlXRHK5EDLrNot45ZMhWABTB07TRFFru3FEvHMmIgYBx1Cv3Oay6e25cnmrKyr4r0iiSC6qEO9cM2qyoAKSS7tJIzdBQ+4m1NRQpjbyYAd5cuuHkFj7Ll/58XL9ML9WnZcv/Pi5fphfq1k0J5T0RNoWi+Ss6Ybs7nl5GJVUdt3DRRlyynDKsKblFMyhDCJN2ADZkwDuEhgq2XBq40hNWbb0pSgnDpWbbOHTqR4xSIsAImc6ZDB1Mc6nCUwAYAAIIiPUAF1w8Ft7Ll/58XL9ML9WnZcv/Pi5fphfq1W7d1p02umVWiIefV4qSKrlJd1HOmjV4gmOFFWjlZMiLtMnQTHQOcpQEBEQAQEasHlQacL3QhCs1XoxwQklPO5J1HPWgEaNODlZumsgUXiJwVEQWRExB2dBNuCnXj8g03suX/nxcv0wv1adly/8+Ll+mF+rVZv7Vq37Kt+Vkkf4QkY+3nFyIR/fS5lqlgBHiiQSkyYxQ65N1ztHFH2s9gRMu2gZSSeJPFuARdRGLduGTJVYCimm6eJpC3bHNvJgqyhBEDkEA7xcuuHglbkeXLaduyl0x15zaziHZrPyIuliKorCkQT8NQok6lNt2jgQMACIlEo4ENsrEtTP+XF1/8AhH3+Aettrz8+Mxs0sZ/qV/6itP8A7rz/AAaoWpNvXBIKW/dNqNW72UteRM+IwXW4JXqJ0VEVkiqCAgRTYoJiCbuiYoAYSgImC+6qFWaPLcnBaOlmbJ0um5O3bnWFEFETAU5ikARAmS4E2MAJi5wGRCt+edvfjDn6Cv8AUrpw2dNVKwa5/Zo1gvdpA3PohN2pazBOQXjZh2/jFlDO12CrZNJyg1eLmTTKKyhuKQTbhEgCRMAEwxVx6f6wXzBRTE+lj6GUg7KdW2YryVjzi6eCoxEp0eEucOCYEFBKZQSH7ogYhO7u9HeedvfjDn6Cv9Snnnb34w5+gr/Urp8+jIYhzqbJajzM1emiN3mHcvC286SkIU8bGx490zkQ58FzKLiUDnHg7ykAiYFHaYTcVl6T6ixLOwLbfQ6CMGSEYr3MmZ2kJ28nHp4bplKURBTiHMkJjlMJSgzKHXfW1+edvfjDn6Cv9Snnnb34w5+gr/Up8+jB9ObK1W0ktsjRPTJ1cbq4bbjYxZJtJsUuyXjZI6RiuTLLFAW4goBt6HGOAgp7mPdzwF0q1SsHTC5dHYGxBuk0+g1UQm0HrRszRErVsgqmqRZUFuIXlzGS2pmIICQDHJgceh/PO3vxhz9BX+pTzzt78Yc/QV/qU1j6MPm7J1P3TljsNPHbpo/vtldSU6EiyIzFmDtqqolsMrzHHICZ+6KWwQKIgpkQINaY6JXjbLxncU5Yl+XAR0xcsVY+0L3NCumShZF0ukooJJBokukom5DxUMdMxfR7xhD0r5529+MOfoK/1KeedvfjDn6Cv9SmsfR8tP7eQtOyoa3W8OWKIxaET5Isiq/4A+Il5lYAUWHIjk5uoj1q96Tf8vIX/tH/AMQ1UkbzgMd1V6cfUUkc4OYw/ABQIIiPzB1Gr7pmxexthQjWRaqNnANQUUQVLtOkJxE+wweowAbAh6hAQrjz2WTRERqRqNM2tNQFmWdbsZM3PcoOlGDeWljxjLhNilMsJ3BEHB9+Dl2kIicTd4R2lKJqrE75QklY9utn2oWl87Gy5rmZW04axjR7KtDmcCQQdNXCDXcugBD9BOkkIqFFIQKbGZPXK33Vxs49lMaIwuq1p5UGRgF27JR+m56Ag5bg/VTamKUBUA4GOQ4bimIYcCUc2t7SO8rT01NH2nYk+xgo65oOWt+yH06i+kYxi0VRFwgVdZ0duTIkMYiBXJkiFAAAwCbYXzNNvc6qWGzjpOVczokaw8ujAvTi1Xyk+VOkQiW3ZkcmXSDcACUN3UQwOKbqX5TVgaevjQaIu5WXJLx0MoRNk7IxTcunKSXBPIAgZqVwUqoKcuKgKiAB3Q3ANUC7rH1bWUvCyIfS949aXDfEVdjadGVYpMiNCOWCi6JyGW5gHBAbq4KCQpGAAwqAiBa+t0WVqzGxE3pdb+l7idaSl7t7nTuM8mxRZlZKSqDtYhiHWBxzKQAoBSglwzETKIKgYdlBr7zWvThhd5bIdS74JAXKbE7ksO9PGpOz42NlJAqQtE1zCJQBE6oKCJyBtyYoDxKeUHpOndYWaa4HwyAShoNRUsI/MyQkA8Gqz0EeWRVN02EUUKJ9xNu7cXONsdCZGNvCTt2d0w1BuZrI3QvNoTaGpjthbgNlnXNADmOJIAYFUhES8MjFRNU5SCYwAc5iWmV0tvtzZ1yxSEFudSGqTW42yfNIhvjiSDVUy2RPgMJpKDsEQP3cbciACGjaSasxurUdNv46Elo3sSbewxySEc7a8UUFTEBQnMIpbgMAZEC7gIIiURyA1e6z3R+IuK3k7rhp+3XTAvnNJSDJ4dZuog/bulzLEOkCahlC7QPsMCpEx3AOAMXBh0Kgza8P+ZDX/wAGf/HCs01K0xHUG/bSdyHbSUPFs5MHLmIn3cSumqpy4JFFRosksYpgIpkoCJe6G4M7a0jURU0PekdNvGrsWC0Ys1Fwi1UWIkqVUhgKoJCjs3AYdoj0HaIZzgBh/PO3vxhz9BX+pXs4rOklZqgXHo2wg4KFitPYd2sct3xk3JuH0qs8drkSVLxFlnLtU6ywlIUpQAxzCBSgUoYAAqJuq2dQoaU1Dg7esJa42mpODtpQj5qi3i1DM02hyvSrKFWFMoJgoUUE1hEBMUSlEAE2q+edvfjDn6Cv9Snnnb34w5+gr/Urfz6POlyaXzE/cV0ModGSllbRkbZcqMomZUiHcgRGNUSVSRcpqpGRV2Lby5VIUwgBTHKUwiE+w0xmI9rH39bel91spCHuFGWVhrgvAZiYlECNVmwl4zh4u3ROUHBjJk5oSCBe8KYm6a3DSGntuFdkt6JbxZX7k710DKHUQBdwf01VNiYbjmwGTDkR9Y1I+edvfjDn6Cv9SpJj6KJJq6gXPL2ReDvS+SjSRM8uK0aeSYqvUGirNREHC21bgBtUPkSJLKm2YEMmESFp0HpNqMxi7Wg+x0EmEo+dtbuId2luSYkkFXrY5QKIgrvATImIA5ArkRH0BCts887e/GHP0Ff6lPPO3vxhz9BX+pV+b/qMXtuwtQ9Pxty9k7JeTzqHeXK2dQjF6zI7M2kJEV0XCJ11k0BECpk3EOqQdqg/xi7B+sXY+oVmzETqt5juJl8o7nFXttRbxoDpqnIrIqpiRVwsk3OdPgFKp7oADvNsE+0N2x+edvfjDn6Cv9Snnnb34w5+gr/Up8+qw61rP1Ss+Qte+Xumbl+6ayFzpv4aKkWQrN0pF6VdBcp11kkjkAEg3ABwOG8BAoiAlrib6F6hzdtwluSzBOIVPbl3xb1wm8IqRovIOkzt8CUQOcpigYclDIAHUCiOK37zzt78Yc/QV/qU887e/GHP0Ff6lNY+jJtG9P3EfdDGXmNK77g3sNHqNjSNzaiOZtuKqgFKcGLcz5yAkNsERUVI3OBdgAUcmAm1sP8AmHbf/aff4ZajfPO3vxhz9BX+pXXarstw37Euops8UaxzV2o5cqNFUkSCcCEIQDnKACcciO0MiAFERx0znkuMwslFr1Z/5eTX/aJ/iFqg6lREjcGndzwUQ3476Rh3jVslvKXiKnRMUpdxhAAyIgGREArRdTGL2SsKbaxzVRy4FqKiaCRdx1RIIH2FD1mEC4APWIgFUILzgMd5V6QfWU8c4IYo/AJRIAgPzD1CufBZqyrVAbu7x1GseU0zmNJrxsvtC3l48JeTdRCrcipkeEAADN8srnJhEO4AYKORAcANU0x0reGeN0pzTK+4GQjYlwwPLz+ojqZZlWVS4Jjx7Yz5xkpg3DvWSbmKUS4LkTFLtXnnb34w5+gr/Up5529+MOfoK/1K7/PqKDp2GojK02Olkrpg6i0YSEGKWnFpFnyTs6aIJJmaJIqqLiU4huEFk0Nof9Q9Kr0VA6iW6jpXdZdMph+5teCdW7KQ6D6OK7SMoRuUrkpjuSoHS3NhEQBXibVCjsyAlDX/ADzt78Yc/QV/qU887e/GHP0Ff6lT59GT2JpvfcUjpgMzBJt1rflZ11KlTdpqkbkcg44QlNkBUAwqExgMhnvAXqAQFz6MyA3zd6cjp7fV2MbvkAfN3MZqE6iIhEh0E0lG79qR8kO0BTERMk2XE5DAAlEQwO7+edvfjDn6Cv8AUp5529+MOfoK/wBSnzrWxX7LtaXhNRr4mnUeCEbLEiSR6gLFPxAQbCRQMAO4NphAO8AZ8QzVyYf8w7b/AO0+/wAMtRvnnb34w5+gr/UrrtV2W4b9iXUU2eKNY5q7UcuVGiqSJBOBCEIBzlABOORHaGRACiI46ZzyWdLJSLXqz/y8mv8AtE/xC1n+pQ3aNizKFiMxcTzlsLZj7omQElFBAnGEVDAXCYGE4hnIgXAAIiADo+pjF7JWFNtY5qo5cC1FRNBIu46okED7Ch6zCBcAHrEQCqEF5wGO8q9IPrKeOcEMUfgEokAQH5h6hXPgs1ZVrArt8mO9YiBgmdn6oXTcJWEc4tY7CQbw6CbeLeIcFVRMzdq2OIpHKitg6hxMCRgABMIVy39Z+s2o6ELHl0eWhk4KAcxayziWYG5h0LhgIC3BNYw8uYiCpimU4Z+6AGTKOM+h/PO3vxhz9BX+pTzzt78Yc/QV/qV21j6jPr4sG55hxqutGxBVTXNajWMjDcZIouFyJuwFPqYNuBWJ1NgO949BxWNH9Kr9ta7ZqTnYHlWzuOmUET80ifcovKqrpBgpxENyRimyIYDOBwPSto887e/GHP0Ff6lPPO3vxhz9BX+pT53vYiNGbfl7T0mtG2Z9pyslFw7Vq7Q4hT8NUiYAYu4giUcCHiAiFabpN/y8hf8AtH/xDVSRvOAx3VXpx9RSRzg5jD8AFAgiI/MHUavumbF7G2FCNZFqo2cA1BRRBUu06QnET7DB6jABsCHqEBCuPPZqSEWelKV5milKUClKUClKUClKUClKUCs21A/5j2v/AOEmf8eOrSazfU0izC67euVdo5PGto+SYrroIHW4SqyjQ6e8pAESlEG6veENoCBQEQExQHfHdZxKz7WKIkZqJYsldK4TUW3TOBGZt98k2UcKlAMoqtiuzFanORQAyRUxMlETFOBigU+Lq6bz2nmnU5dVkWZIWmxgHjCXtKz52YK8O1fpqKEXIQ6a7lJsk5IvwiIoqGKGd20hjCWvRvnnb34w5+gr/Urhkpaw5lVk4mI9J8rGuAdsjuYlRUzZcAEAVTEyY7DgBhDcXA4EevWvZet/u0Y3fWll0QbS3mli2he3nFHwyLVvddpXGyZbHZVDHOSRZvVCoOG5lFDHyKLowAottIQ20Txk9pLqO7lRlbgta45s8TPjLOBtq5AhVZdNzGot1TNFUniChDpqpCYU1jJEMQw4MYelehfPO3vxhz9BX+pTzzt78Yc/QV/qU1j6Mi050uloPUOGu1lYUxb8apGTAPSzVznmZHmFzMgSFyqqusbiGI3MG1NVVMpSF7+RwExZGn91QzDSRu9hwQNbDZ6SVKCyQ8udRsYhfRMO/Jx8S58cj8NaL5529+MOfoK/1KeedvfjDn6Cv9Snz6Olx/62sT/zbj/6t9Wt1j0S6Lc162seFbPF0omQXfPFjNFU0kUhYuUQyc5QKJhUXTACgO4Q3DjBTCGw15eay5fxYUpSuSlKUoFKUoFUjWP/ANEl/wDNwf8A9o1q71UNV2D6RspYkezWdKtpCNfHSRIJ1DJN3yCyu0gdTmBNM4gUoCYwhgAERAKuP7BTLzTuRa1pJO0WcQ8lzIGBs1l94M3A+tJUSAJilOXJdwFNtzkSmANo4bYmkaLK+0p/TzQ+U0danTVTuBuZ+yTjJdMW6iaREmEe7WQ4hVBIcVzpJKAUuAE24xQ3Dzzt/wBa7oPmFiuA/wD/ABTzzt78Yc/QV/qV77cb/dsvPkXYGrL+2LOtF7pq7jfMu3ZqCXeOJNidN+sowFBBVsVNYxuEcxfFUEjl3FyTGRD46iQV/wA1pu4dXTYStqN7EsKXYrLrv2iyci6WYlR2tgQVOYEC8MxtywJGEdgATxEPRPnnb34w5+gr/UqOn3+nl1MSxd0RDeYZkWTclbv4dRwkCqZgMmoBTpiG4pgASmxkBABCs6x9GELaLyRJmcQlNPL6utldqiD1BzGahOoiIQKdqkko3ftSPkh2gKQ5Oi2X3kMACURDA6NbjW/tN7jnbeiNM3s8wuGdGVbTKMmzQZs0VSJFUTdcVXmdyfDPt4SCoGLw+pcm26F5529+MOfoK/1KeedvfjDn6Cv9SrOs/wBGMxWlt3yy9uQc9azpkwiX11IPHZ3TYxFEHwqGbrpARUx8DxADBilOUxRyUAwI/JtpTqbcy8DN3oxSazT51LEmnDd0moVmiaNOybHLgQE27AKbSgO0ypgHGBGtr887e/GHP0Ff6lPPO3vxhz9BX+pT59GIPtOdR9R7ct7TabsxS00LSinbFabUeNV275Y8cqxTFiRFUywE91FQxlyImAClKBTCIiX43BZ2rOpnJwb7S81sNmFkzluKvnskzVIo+cJNk0hQK3VOfljcM4gY4EU7veTJ0zuvnnb34w5+gr/Up5529+MOfoK/1KfPowa57O1W1CjZhwppe/glD6dPraQbPpNgdZZ+Y6QgAcBc5ATMBR2nMcB6G3lT6budzolJt7juCLm9Ob5udpc0gD9J5H6huouFRTUSTKog+aJvkxDaYhgEUmq4HKJc9cgHoHzzt78Yc/QV/qU887e/GHP0Ff6lPn0cupBAT00ulMoYAsE+AAznH3OeturBbul2tz2pM21AoPnklLR7hi0QTYr99VVMxC5MJAAhcmDJjCBShkREAARreq4c9ls0sKUpXnUpSlAqHu6Hcz9vO4hmokRZfh7TKiIFDacphzgBHwAfVUxUPd7iXaW67cQRVTPi8PhAklxDdTlA2C4HPdz6qCYpSlApSlApSlApSlAqHuOHczHZfLKJF5GSQeKcQRDJCZyAYAevX/epioe5HEu37L7JKqPFkkE3XDS34bjnfnoO0PDr0x8NBMUpSgUpSgUpSgUpSgUpSg45lmrIw76PRMUqjpsqiQTDgoGMUQDOPV1pDM1Y6HYx6ximUatkkTiUclExSgA4z6ulJlR2jDvlY8DC6I2VMgBC7jcQCjtwHXI5x0pDKO1odirIAYHR2yRlwOXabiCUN2Q6YHOelB2UpSgUpSgUpSgUpSgUpSgVD25DuYftTmVEjc9JLvE+GIjgh8YAcgHXp/vUxUPbbiXcdqdrFVDhSS6bXiJbMtwxsx0DcHj165+GgmKUpQKUpQKUpQK45lmrIw76PRMUqjpsqiQTDgoGMUQDOPV1rsrjmVHaMO+VjwMLojZUyAELuNxAKO3AdcjnHSgQzNWOh2MesYplGrZJE4lHJRMUoAOM+rpXZXHDKO1odirIAYHR2yRlwOXabiCUN2Q6YHOeldlApSlApSlApSlApSlApSlApSlApSlApSlApSlAqHs2Hc27aEHb71RI7iMjWzNUyQiJDHTSKQwlEQARDIDjIB+apioezXEu7tCDd3AVUsotGtVHoKpcI4OBSKKm4mA2juEchgMeGAoJilKUClKUClKUClKUClKUClKUClKUClKUClKUEPBw7mMlLherqJGJLyRHiIEEREpAZtkRA2Q6DuRMPTPQQ65yATFQ8E4l1pS4k5IqoN28kROPE6WwBbizbGHaOA3hxTLdevXIZ7uAmKBSlKBSlKBSlKBSlKBSlKBUXcs15uwjmY5bmOX2e579m7ccC+OBx458KlK4JxzENItdxOlSMxJt4oKpcQvUwAXJcDnvCHqoO+lKUClKUClKUClKUCoudmuxez/ubjc+/SZent2b897wHOMeHT89SlV+97hi7XhiTElCPZcyblEjVmyalXcKuDGwThlMIABgyI5EQwAD1oKL5WKaSvk5X6kvHc+meJMU7TaQ3MFE5cp4OIEHd4YMIB16iAVl+lkDZzPX+Gj9P/JvDRR1Dwjp/NkUZQ7EZ9mthNJNIkW4WI5BNYoHOY4gKQ7A/wD1q0i6NRmF5wD217l0E1NeRkgnwnKHZqSe8uQHG4jkDB1APAQrmm71hrimoC4pXQPVI8lbK6jiMcIsyoGRMomKahTcN0UFUzFHqmpuIIgURLkpRAK5pZ5SF6X3e7JNxbkgvbc4u+SRSRsGdZDDpoAoKSy8s4LyLwFOFtEEgT2mUKBTKgAmHotPWzVeXcWHcUolaQ25qKSQeMmbdi5I9jUEWii6CaixlzJuDm2gJzlTSAvUoFNneH5hS2Fb93mviL8njVkkkCy7hBJUVVmLNZfPGVaslHpmzZQ+4246KRDG3nyI7zZra8PGRmqVq6gWfoRqazRi3si5kWzkqiyJCum5yCVm2UdHQbAZUwHOVIqRTCG4dw0F9tHXW45dvpm8l42OBG77LkLmlCtUVN6azcjUwEQATjgo8dTobcI4LgQ65reknlGam6gLCqSynsqnMW85nItElkTkCiwcEKQyLFaQkC8s9FUFMAulwgymIgmJTAIfqzIzTWwJpvcNseTjqyk+ZoumzIzs6z0jJu5MQyzdsm4enI3RMZJMeEkUpAEoYKFfyDidMLfevnrLyatU3AP2K0YLaRKo/aNWSwgKrZq2cPTotET4KBk0CJlEClAQwUAAISb1l1OuXQ3VZs5u6Pibwg7dNJNhCz5i3XzAhiHA5RbO1xMttMmYpHjdwZMxhHuhsDibhdF7Smm+ij+/ZsqE1JQUAL9cECGbJO1yJZ6AYyhkymN8JjiAD4mrMIVtYMHETkGl5P2sUg1uNn2fIjMuXMoqdpgwA3Iq7fKKIpBvOIJpmKUBMIgAD1q0MdQ2DC10rM9gnVN7EJMwjxRkmRHx1kNmwSqquHR1Fsl6CKhjCPrEaCrXFrNrXp63vZndo2RLPLdsYl1MXUdGu2qSjg66pBQVRUcqDwyFTL3iqAJxERwn0LXTrdqO/VaX/Z0nAxMjFQ9v2/KporguQVlnT9QhyqGSVIbaXgkMUCiUc5yJgHFU6Ata34G+rifJ6BamvbWuS00rcetZTiyLtYAXWMKYqOXShyoAmrtIQqgATIgUpQ61YIqE0yiIySiUfJ11fdpTDVsyfrSTly/cuEG6plUEzOHD86ogQ5zbe/0DBfRAAALZc94a0x+rQQNs3LZMrbzJI0rNR57ZdpvIyPBMwkId+EgKZnCqhRAheVDuAcwhgob9fi3vaUY0keFw+aQTX2bs7dxQHGfXjNecTstPYy55PUEui2vDR4/eGlpIiU9JJsHKwEKUx1WJZIGpy7CFKJDJCUSlAMYDFaIy1vMozQUYaI6lA2MkUUdkO3AvDwG3AcfoGMUGqUrMvZte/Ilqb+qW/wBop7Nr35EtTf1S3+0UGm0rMvZte/Ilqb+qW/2ins2vfkS1N/VLf7RQabSsy9m178iWpv6pb/aKeza9+RLU39Ut/tFBptKzL2bXvyJam/qlv9op7Nr35EtTf1S3+0UGm0rMvZte/Ilqb+qW/wBop7Nr35EtTf1S3+0UGm1FwU1212h9zcHkH6rL092/ZjveAYznw6/nqjeza9+RLU39Ut/tFcUbrk3V5rsrRHUYNjk5HPChm5fdwxv3e79TeGRoNapWZeza9+RLU39Ut/tFPZte/Ilqb+qW/wBooNNpWZeza9+RLU39Ut/tFPZte/Ilqb+qW/2ig02lZl7Nr35EtTf1S3+0U9m178iWpv6pb/aKDTa5ZR72bGO5HhcTlUFF9m7G7aURxn1ZxWeeza9+RLU39Ut/tFfB7reZNmuo/wBEdShbFSMK2+HbiXh4HdkOP1DGaDSot72lGNJHhcPmkE19m7O3cUBxn14zXVWVstbzKM0FGGiOpQNjJFFHZDtwLw8BtwHH6BjFff2bXvyJam/qlv8AaKDTaVmXs2vfkS1N/VLf7RT2bXvyJam/qlv9ooNNpWZeza9+RLU39Ut/tFPZte/Ilqb+qW/2ig02lZl7Nr35EtTf1S3+0U9m178iWpv6pb/aKDTaVmXs2vfkS1N/VLf7RT2bXvyJam/qlv8AaKDTaVmXs2vfkS1N/VLf7RT2bXvyJam/qlv9ooNNpWZeza9+RLU39Ut/tFPZte/Ilqb+qW/2ig02lZl7Nr35EtTf1S3+0U9m178iWpv6pb/aKDTaVmXs2vfkS1N/VLf7RT2bXvyJam/qlv8AaKDTaVmXs2vfkS1N/VLf7RWVeUjqzqItpw5uTT9jqPp5L2yJpZN+/h2IxbgCEMUyL7iKGHgmKYwZL1KYSnwYSlCg9RVF2vNeclsxFxcty/arBu94O/fw+KmU+3dgM43YzgM48Arw35KH/ElvbWacaWVeOhU1JvTKJJLzNpNVHLduBz7QVcomzwUw8TKcQfXgngA+6YFzEPIOOeQBUixa7RFRkCSXCIDcxAFMCkwG0NohguAx4YCg76UpQKUpQKUpQKUpQKUpQKUpQKUpQKUpQKUpQRcRNdqyE2x5bhdjvyMt2/dxdzVBfdjAbff9uOvo5z1wEpXBHOYhd5KJRpUgcN3ZU5ASJbBFwKCRgEw4DePCMj3uvTAZ7uA76BSlKBSlKBSlKBSlKBSlKBXBOQ7Wfi14l4oqRFfbuMmIAYNpgMGBEBDxAPVXfUPd0O5n7edxDNRIiy/D2mVEQKG05TDnACPgA+qgmKUpQKVj1o6o60X1KP3NuaWWUFsx9wPYQ717eztJ8ZNq5MgqsDUkWdPcOwxik4+B6AJi5yGgvNQbCjrtZ2DIXvANrnkERcM4VaSRI/cJBnJ024m4hyhtN1Aoh3R+CgsFKo9qaz6eXldV62dC3CzPJWC5TbTSYu0B4O9EqvEwU4mKQMmIJjgXB01A/i5qLuDX6wWtksdQLKuO37vhHc8wg1H8XNIqtURcOU0TqCunvJlMFNwlyHhgRLnNBplKhrSvSzr/AIVO5bEuyGuSIWOdNOQiH6TxscxRwYoKpGMURAeggA9BrjuTUzTizZRvCXfqBbcHIvG6jtuzkpVBsusgmGVFSEUOBjELgdxgDAY60FlrglYdrMcnzSipeSdpvE9ggGTkzgByA9Ov+9fB1dlqsSSKj25opuWIImeQMq9TIDMqgZTFbI+5gYOoCbGQ8KpF7XxFs51+3umWty3YG0DxU05mZOfbok2KnXKYqqRhAzcAEhAKdQQKoJxAo5INBptKrlk6j6ealx68tpxftu3Wxarcsu5hJRB8kkrtA3DMdExgKbaYo4Ec4EB9dWOgUpSgUpSgUpSgUpSg537NKRYuY9cxipuUjonEo4MBTAIDjPr60YM0o5i2j0DGMm2SIiQTDkwlKAAGcevpXzmWasjDvo9ExSqOmyqJBMOCgYxRAM49XWkMzVjodjHrGKZRq2SROJRyUTFKADjPq6UHZSlKBSlKBSlKBSlKBSlKBXBFQ7WH5zlVFTc67UeKbxAcHPjIBgA6dP8Aeu+oe3IdzD9qcyokbnpJd4nwxEcEPjADkA69P96CYpSlApSlApSlArnfs0pFi5j1zGKm5SOicSjgwFMAgOM+vrXRXHMs1ZGHfR6JilUdNlUSCYcFAxiiAZx6utB9GDNKOYto9AxjJtkiIkEw5MJSgABnHr6V0VxwzNWOh2MesYplGrZJE4lHJRMUoAOM+rpXZQKUpQKUpQKUpQKUpQKUpQKUpQKUpQKUpQKpOqejdga0xkfBajxbmUio94V92eD9dBs6UKAgUrhNM5SrEAwgYCnyG4oerIDdqUEXbdr21ZsOhb1o29GwkW2DCLKOakboJ/8A8pCABQ//AGr6wMO1t6DjoBkoqdvGNEWaJlRATmImQCFEwgAAI4AM4APzV31D2bDubdtCDt96okdxGRrZmqZIREhjppFIYSiIAIhkBxkA/NQTFKUoFKUoFKUoFKUoFKUoFKUoFKUoFKUoFKUoOCOh2sY8lHrdRUyks7K8XA4gIFOCCSIAXAdA2okHrnqI9cYAO+oeDh3MZKXC9XUSMSXkiPEQIIiJSAzbIiBsh0HciYemegh1zkAmKBSlKBSlKBSlKBSlKBSlKBUPd7iXaW67cQRVTPi8PhAklxDdTlA2C4HPdz6qmKiLsluxLeeyQJHU4ZSl2kU4Zu+YCZA2BwIbs+HqoIjUbVvTLSOIGc1LvmHt1ptMZMXzkpFFseIJJ+mqb+iQph+avrpnqNAasWYxvy120olFSYqGZmkWCjRVZIpzFIsVNQANw1CgChDeshyj0HIB4T15/wCFfPXFcimoOmWrb+elOKRwqwvlyo6O5Eo5EovSBuMAgG0CmJ8GT+I16b0s0lmLlsiPkb9d6pWfPFAzd7FGvtwummomOwTonSWMBkjCGSZwbaIZDwEQ7NHPJ6se3pOXvy7tI7TJey11zUm0nVYpmtJA3WdqmbqA6KUyhcomKABuASlHaIB4VRLw0Z1VdarzZG6t+P7fuW64y4iKxj6220Q1I2K2++jumqkoCqYth2lbgcpgEgb0txxLrnsCw/ykam/tk++vT2BYf5SNTf2yffXoKVdWmF+zptbbda2+ciN3rx8pEPlXSAM34JNWySrI4AcVkzGFschhMkBNioCBjd4A+152zderVtJqr6DjbCx7stt86bSzuMVfPGzJ4koqquDZVVESJEL7mHHOccCAEJ0A1v8AYFh/lI1N/bJ99ensCw/ykam/tk++vQdOmNozdt3jqZKykaVq1uK5EpGPUBRM3MIhHtUROIFERL7okcuDAA93OMCAji/lNwF02zb+sUn7Hq9xxN7QjZUJlJyzIlDA0REopuCLKFXMAGDipCgmrk6hgMCWN46/7AsP8pGpv7ZPvr1yynk4WpORziHm721DkGDxMUnDV1djxVFYg+JTkMcSmAfgEMUGfapWPqi9e6kQtr6cvZxnqDDxPJSqEixRbs1mqYkVRcEWWItuEAKJBTTOURNgwkwI1Kaks9arKvO87+0xsV1PPJePt2MjkW6rQRWOkd6DgTFXWTKBUgWSOO46YG9EpwyIhdi6CQxSgUuo2pgAAYAAvJ9gA/TqMndH4iF7P/8Az/U1bn36TL/1q+Ls3573pjnGPDp+egnNDmjyPtVdnI6e3XbL7mzLvV7lcRq72WcqABlXZjMHThPqPd2iYu0ClKUoEKUK0Wsy9gWH+UjU39sn316ewLD/ACkam/tk++vQabSsy9gWH+UjU39sn316ewLD/KRqb+2T769BptKzL2BYf5SNTf2yffXp7AsP8pGpv7ZPvr0Gm0rMvYFh/lI1N/bJ99ensCw/ykam/tk++vQabSsy9gWH+UjU39sn316ewLD/ACkam/tk++vQaDMqO0Yd8rHgYXRGypkAIXcbiAUduA65HOOlIZR2tDsVZADA6O2SMuBy7TcQShuyHTA5z0rNJTRKIjYx3I+yHqapyqCi+zz0fBu2lEcZ39M4pF6JRElGNJH2Q9TU+aQTX2eej4du4oDjO/rjNBq9KzL2BYf5SNTf2yffXp7AsP8AKRqb+2T769BptKzL2BYf5SNTf2yffXp7AsP8pGpv7ZPvr0Gm0rMvYFh/lI1N/bJ99ensCw/ykam/tk++vQabSsy9gWH+UjU39sn316ewLD/KRqb+2T769BptKzL2BYf5SNTf2yffXp7AsP8AKRqb+2T769BptQ9tuJdx2p2sVUOFJLpteIlsy3DGzHQNwePXrn4apXsCw/ykam/tk++vUXBaPxE12h/+f6mo8g/VZf8ArV8bfsx3vTDGc+HX89BsNKzL2BYf5SNTf2yffXp7AsP8pGpv7ZPvr0Gm0rMvYFh/lI1N/bJ99ensCw/ykam/tk++vQabSsy9gWH+UjU39sn316ewLD/KRqb+2T769Bptccyo7Rh3yseBhdEbKmQAhdxuIBR24Drkc46Vn3sCw/ykam/tk++vXLKaJREbGO5H2Q9TVOVQUX2eej4N20ojjO/pnFBpcMo7Wh2KsgBgdHbJGXA5dpuIJQ3ZDpgc56V2VlEXolESUY0kfZD1NT5pBNfZ56Ph27igOM7+uM11ewLD/KRqb+2T769BptKzL2BYf5SNTf2yffXp7AsP8pGpv7ZPvr0Gm0rMvYFh/lI1N/bJ99ensCw/ykam/tk++vQabSsy9gWH+UjU39sn316ewLD/ACkam/tk++vQabSsy9gWH+UjU39sn316ewLD/KRqb+2T769BptKzL2BYf5SNTf2yffXp7AsP8pGpv7ZPvr0Gm0rMvYFh/lI1N/bJ99ensCw/ykam/tk++vQabSsy9gWH+UjU39sn316ewLD/ACkam/tk++vQabSsy9gWH+UjU39sn316ewLD/KRqb+2T769BptKzL2BYf5SNTf2yffXp7AsP8pGpv7ZPvr0Gm1D2a4l3doQbu4CqllFo1qo9BVLhHBwKRRU3EwG0dwjkMBjwwFUr2BYf5SNTf2yffXq82vNeclsxFxcty/arBu94O/fw+KmU+3dgM43YzgM48AoJSlKUClKUClKUClKUClKUClKUClKUClKUClKUEPBOJdaUuJOSKqDdvJETjxOlsAW4s2xh2jgN4cUy3Xr1yGe7gJiouImu1ZCbY8twux35GW7fu4u5qgvuxgNvv+3HX0c564CUoFKUoFKUoFKUoFKUoFKUoFcE45iGkWu4nSpGYk28UFUuIXqYALkuBz3hD1V31wTkO1n4teJeKKkRX27jJiAGDaYDBgRAQ8QD1UHfSs78ov8A5Bajf/0tKf8A9spWA6Z2xZTXVzTePsTyYyaNTbRktLSEqqxhGPbkZywpKtEjRjhYXIiso3VMRTbwwTKccCJch7CpXnNh5Rt6Suq6sJGW7IPLeQuRS2lWCFgzqipATOKR35popRjgTKoAiKIlyBAHKu/uVzQOouqNmx+okzNXFFz2zVJnBRyKjFwmVmycrs0jphucnztIvkoF2FA4GMJRA20A9K0rCr01uvmHLfjaCYQQurdu6BtyNM7RWMmKT8rLeosBVAExii6OIbdoYKUBDxEflfuoWucBPP7VgZmxDOLcskLok37yAeGI9cEUVKdFBAj0BQIcEuhjKqimPiCuegb1SoGDuksrYsfeq7MUSvIlKUO3IfcJAOiCgkAwgGcZxnAVjdj6yavSktYz25ErPUg9QICSuFqixZukncYRJFBVu2UUOscjkRKsO9UCpdSgBU+u6g9BVwSrmIbcn2sVIeK7TTbb0t+HA52CHQdo+Pe6Y+GsmsPWa57rW0rQko+KTLfVoPZ+R4KSheE4RK0EpUcnHaQeYPkDbh6F6h1znfbOop9CtMnelEnZsHIuzB2Vbbu3nsnzz0qhxIUi3aKR0G5C7zqnPxRKUBEB6AQwerKVHouH8fBEdzp0FnrZoCjwzNIxEzqFJk4pkMJjAURAcAIiOMZEa85WfdOot66qaSahXg6tfsW4YCclI1swbLN3Eciok1ORFc6iypXI7ByZUpUQAwY4Y5yAenaV520m19vW/NSyWovIQ7+Jm4V/KRjttZ0vFpNDoKoFIBHL5QpZVIxVwHjN0kSDsyA98ACHsvVHUm0/JstCVn7+iXt0zsq5ZoyC1qTE2qdIqzgwlTjWa6jp2oBEhDILJlITvCOE9pw9Q0rP9CL/AJrUzTKOuy4mzZGTO4esnXLtVWqZ1GzpVAVCoKnOoju4W7hmOcSZ2iY2M1oFApSlApSlBzv1GiLFytIAUWpEjmXAxdxeGADuyHXIYz0owUaLMWy0eBQanSIZACl2l4YgG3AdMBjHSj9mlIsXMeuYxU3KR0TiUcGApgEBxn19aMGaUcxbR6BjGTbJERIJhyYSlAADOPX0oOilKUClKUClKUClKUClKUCuCKcxDnnOySpBwnaibnYlsy4DG8R6BuHw73XPw131wRUO1h+c5VRU3Ou1Him8QHBz4yAYAOnT/eg76UpQKUpQKUpQK536jRFi5WkAKLUiRzLgYu4vDAB3ZDrkMZ6V0Vzv2aUixcx65jFTcpHROJRwYCmAQHGfX1oDBRosxbLR4FBqdIhkAKXaXhiAbcB0wGMdK6K52DNKOYto9AxjJtkiIkEw5MJSgABnHr6V0UClKUClKUClKUClKUClKUClKUClKUClKUClKUCuCBcxDyDjnkAVIsWu0RUZAklwiA3MQBTApMBtDaIYLgMeGArvrggYdrb0HHQDJRU7eMaIs0TKiAnMRMgEKJhAAARwAZwAfmoO+lKUClKUClKUClKUClKUClKUClKUClKUClKUHBHOYhd5KJRpUgcN3ZU5ASJbBFwKCRgEw4DePCMj3uvTAZ7uA764I6HaxjyUet1FTKSzsrxcDiAgU4IJIgBcB0DaiQeueoj1xgA76BSlKBSlKBSlKBSlKBSlKBVd1CZvn1lyyMayVeOSIcZJslt4i4pmA/DJuEC7zbdpciAZEMiAdQsVQ93uJdpbrtxBFVM+Lw+ECSXEN1OUDYLgc93PqoK/cckjdkBJWvcGmVzuoyXthV48Qy3JxQUKJTxm4jgDFdiURDoIJh6laj5tnCXCED2rpVdKh7Yjk7oiVE10kVGrwhDJgwA6bkphciQxiGIYRQOUwgZQQHFaRSgx9xYtkOr1Lfy+kl5mlCxhbo4PahgjjSJS7SomjwecoaSAMYVFIQ6APHyADX9lbIsmaZ3THyOkd4qNbyiUrkl0SyQpkO+TAuxqiBHgA1kAEhB3ocMgmIUwrCIAIa/SgxqK070/h4t5ENNHrwVRkmrK8nyruTM6cu5RpwuA2WcLPDKqviggiHeOKRgIAGVEKn5NrCzEpIzUjpRc6zyWswU3inERLxW4mOYYrAOQArvKh+oABOvv3QK0alBTYqeNCRTOEjNNrmRZMLaTft0sNjbBIUCljcmcCIugAADqIp/CrWVMtKo229XLb1Cs/TG5WrKMtiWkXbZ1Ii5BFR2CO2KZIKuTpNlNyYiZFLhN87R3iPh6HpQYrZmmWnVgTTe4bY0evNF8yt11IMjupdR4RiVyYhlodsm4enI3UMZJMeCkUrYBKGDhVfu7Q6xLhNaqkfpnqHFHtaBB60PGXW9jTpNjKcRWKKZrIEEzwxwIOTe590PdgwFeiqh7kcS7fsvskqo8WSQTdcNLfhuOd+eg7Q8OvTHw0EPHXG6jI9vGN7Au9RFrbpZMhnKyLhUyhQwEedVVyY6jzAdROYUxHqKwjVItzTjT207jJdUHo7eCT5CBdSzUq0mZw2ZmciArxTZsq8Mg3WOIAIpJEK3yADvzWz0oMWsfTTTzTmXaztpaP3o3esLaXes1HMuo8BomsKZjwyJXD05UjgKRBKgQAbEHIkOXcbP4caYaeuLfaWx7E9+osY5Ba9GAtp9dBwxkVRPxGDZwm+KsguIKKBwEzla7TmLu2jitspQZ7ZpInT6CTtmz9KLkjYtKIXuFNsQyBykcrKGUUjy73IiDkTnMO0B4IZwCgB0qb88pH5Pbn/AXbPoNffvi/wB/++/m96/ras9KCseeUj8ntz/gLtn0Gvv3xf7/APffze9f1tPPKR+T25/wF2z6DX374v8Af/vv5vev62rPSgrHnlI/J7c/4C7Z9Br798X+/wD3383vX9bTzykfk9uf8Bds+g19++L/AH/77+b3r+tqz0oKZM3NLSMO+j0dP7kKo6tlWTIJitQKC5iiAR44X++uvh71/WUhrmlo6HYx62n9yGUa2ylJnEpWolFcpQAY8Mr/AH108Pev6yrPMqO0Yd8rHgYXRGypkAIXcbiAUduA65HOOlIZR2tDsVZADA6O2SMuBy7TcQShuyHTA5z0oITzykfk9uf8Bds+g19++L/f/vv5vev62nnlI/J7c/4C7Z9Br798X+//AH383vX9bVnpQVjzykfk9uf8Bds+g19++L/f/vv5vev62nnlI/J7c/4C7Z9Br798X+//AH383vX9bVnpQVjzykfk9uf8Bds+g19++L/f/vv5vev62nnlI/J7c/4C7Z9Br798X+//AH383vX9bVnpQVjzykfk9uf8Bds+g19++L/f/vv5vev62nnlI/J7c/4C7Z9Br798X+//AH383vX9bVnpQVjzykfk9uf8Bds+g19++L/f/vv5vev62nnlI/J7c/4C7Z9Br798X+//AH383vX9bVnpQVjzykfk9uf8Bds+g19++L/f/vv5vev62oe3Jqbh+1OZsG4jc80XuVPhlbDg58YjhysH3Z08Pef62r/UPbbiXcdqdrFVDhSS6bXiJbMtwxsx0DcHj165+Gg4PPKR+T25/wABds+g19++L/f/AL7+b3r+tp55SPye3P8AgLtn0Gvv3xf7/wDffze9f1tWelBWPPKR+T25/wABds+g19++L/f/AL7+b3r+tp55SPye3P8AgLtn0Gvv3xf7/wDffze9f1tWelBWPPKR+T25/wABds+g19++L/f/AL7+b3r+tp55SPye3P8AgLtn0Gvv3xf7/wDffze9f1tWelBWPPKR+T25/wABds+g19++L/f/AL7+b3r+trjmbmlpGHfR6On9yFUdWyrJkExWoFBcxRAI8cL/AH118Pev6yrnXHMqO0Yd8rHgYXRGypkAIXcbiAUduA65HOOlBWIa5paOh2Metp/chlGtspSZxKVqJRXKUAGPDK/3108Pev6yuzzykfk9uf8AAXbPoNffvi/3/wC+/m96/ram4ZR2tDsVZADA6O2SMuBy7TcQShuyHTA5z0rsoKx55SPye3P+Au2fQa+/fF/v/wB9/N71/W088pH5Pbn/AAF2z6DX374v9/8Avv5vev62rPSgrHnlI/J7c/4C7Z9Br798X+//AH383vX9bTzykfk9uf8AAXbPoNffvi/3/wC+/m96/ras9KCseeUj8ntz/gLtn0Gvv3xf7/8Affze9f1tPPKR+T25/wABds+g19++L/f/AL7+b3r+tqz0oKx55SPye3P+Au2fQa+/fF/v/wB9/N71/W088pH5Pbn/AAF2z6DX374v9/8Avv5vev62rPSgrHnlI/J7c/4C7Z9Br798X+//AH383vX9bTzykfk9uf8AAXbPoNffvi/3/wC+/m96/ras9KCseeUj8ntz/gLtn0Gvv3xf7/8Affze9f1tPPKR+T25/wABds+g19++L/f/AL7+b3r+tqz0oKx55SPye3P+Au2fQa+/fF/v/wB9/N71/W088pH5Pbn/AAF2z6DX374v9/8Avv5vev62rPSgrHnlI/J7c/4C7Z9Br798X+//AH383vX9bTzykfk9uf8AAXbPoNffvi/3/wC+/m96/ras9KCseeUj8ntz/gLtn0Gvv3xf7/8Affze9f1tZX5SlwXyvpg9uCz5+59N5W2YQbwby7grAY865Ezl7JekOobecwHENoAKYH2GA5hKBR3uqdqXpHYGsEfHw+o0GMzGxr0r9Nio6WI2VWKUQLxkiGAixQ3ZAqgGLkAHFB428kH/AIiOq2tU80su8dCZOaMZdNs5uK1m5xbNAMIACrpNQRIQoAO4xwVDoA7SCIgWvcVmw7m3bQg7feqJHcRka2ZqmSERIY6aRSGEoiACIZAcZAPzV1QkDB2zFt4O24ZjFRzQuxBmxbkQQSL8BCEAClD5gCuWzXEu7tCDd3AVUsotGtVHoKpcI4OBSKKm4mA2juEchgMeGAoJilKUClKUClKUClKUClKUClKUClKUClKUClKUEPBw7mMlLherqJGJLyRHiIEEREpAZtkRA2Q6DuRMPTPQQ65yATFQ8E4l1pS4k5IqoN28kROPE6WwBbizbGHaOA3hxTLdevXIZ7uAmKBSlKBSlKBSlKBSlKBSlKBUXcs15uwjmY5bmOX2e579m7ccC+OBx458KlK4JxzENItdxOlSMxJt4oKpcQvUwAXJcDnvCHqoO+lKUClKUClKUClKUCoudmuxez/ubjc+/SZent2b897wHOMeHT89SlcEq5iG3J9rFSHiu00229LfhwOdgh0HaPj3umPhoO+lUDVTXvR3RNgL/U/UCJg+5xE2qqvEdrF+FNuTcqcM9MlKIdQzVgsK8WuoFoRl5sYaXim0siK6DWWa8s7KnuECmOlkRJuAAMACOdpi5AB6AGPsfKH1QC1z6ozWj9vI2A3kHDd49YXgq4lWzRJ0duZ2ZkpHpJGKUScQ5CuRMCe4S8QwAQ2rFvlFK7JuEkiRrKLhYhrLHklJZDdtVMsB+KhneimQqIGBU/dNuMAegasDj7f1mktHJLyfg0VnYheXdSLFxcslKRIxSLFy+VOouQrd4q7Ofl1B4ZBblyoJQOKYZMF0vDS2clrp1EXNaaktCzdmxMQzRTlysVHSzdZ2ZRNNUoidFQpVEzFOYAKJhABMAbhANLhdT9Nbktgb3t7UO2ZS3QV5cZdlLN12QK7gJs45Dinu3GKXGc5EA8RqCubW2zmOmctqbZExDXkwilyNjjFSqSqIrCuRI6YrJbylMQVMiXGemBxmsDve3NSUfJ/1FG/IiadJy0lDFYoXgjCEmHgg4bJqFeKw2WqiQ4IUhhyoBdwG6AWrbcWnmot9wmp0+305c2y4ulCEYR8E8eshdLCxXEyjpUzddRuTcQ4FIHEE2xEu7aOCgG2zupmnFr3FGWfc2oFtxE9NCARsW/lUG7t6Im2hwUTnA6mTdO6A9elSStz22gm7VXuGMTJHuU2Tsx3aYA3cH2bElBEe4c3ETwUcCO8uA7wZ8266af663dfdwtLagppaBemgnLTs9eCaxr0jZyRRwV8osQZI7kgFOKRSGK3Eu0omKInzaL0tqYX8pW34FkzQWtu5UE7nmwFbaZF3EiBEDcMA7wKncNciIhjlADA56BvSqqSCR111CppplE5znEAKUoBkRER8AqqQOr+k10xLqftjVC0peMZNheOXrCbbOEEG4GMUVTqEOJSkAyZw3CIBkhgz0GvlrLZslqFpXdFlRCyCbyYjlWyPMCIJHMIe9nEAHBD42mHA9DD0HwHz87grp1PvvWCAJpopZkzOaXR0W1aSLpmdddQFpEiYqGaKKpFTyIFIPEE23qYpPRoPQ9+ahxtoWtcUzHLRcnKQEMpNDFqSyLQVEQKcUzHUOIgimcUzFBUwbe6bxwNRTzX/AEZgFoqJvbVaybanZVm2eJxEncbRB1hcoCTamocpjgI5ApgLg2OlY1clo6q3zCanT8rpXIWyWZ0yb28yYyUnHrOVXqJnhlSm5ZdVIpMLJiUwqdQEcgQQxVoup7fspdluQquhl2XHp/DMmD5qeGewpG79/gBIZwm7foKlRbbSHKQEzAZTBv8A9MoGDfgEBDIDkBr+1/CiIlARKJREPAfEK/tApSlApSlApSlApSlAqLgprtrtD7m4PIP1WXp7t+zHe8AxnPh1/PUpXBFOYhzznZJUg4TtRNzsS2ZcBjeI9A3D4d7rn4aDvpSlApSlApSlArllHvZsY7keFxOVQUX2bsbtpRHGfVnFdVc79RoixcrSAFFqRI5lwMXcXhgA7sh1yGM9KD8xb3tKMaSPC4fNIJr7N2du4oDjPrxmuqudgo0WYtlo8Cg1OkQyAFLtLwxANuA6YDGOldFApSlApSlApSlApSlApSlApSlApSlApSlApSlAqLtea85LZiLi5bl+1WDd7wd+/h8VMp9u7AZxuxnAZx4BUpXBAuYh5BxzyAKkWLXaIqMgSS4RAbmIApgUmA2htEMFwGPDAUHfSlKBSlKBSlKBSlKBSlKBSlKBSlKBSlKBSlKCLiJrtWQm2PLcLsd+Rlu37uLuaoL7sYDb7/tx19HOeuAlK4I5zELvJRKNKkDhu7KnICRLYIuBQSMAmHAbx4Rke916YDPdwHfQKUpQKUpQKUpQKUpQKUpQK4JyHaz8WvEvFFSIr7dxkxADBtMBgwIgIeIB6q76h7uh3M/bzuIZqJEWX4e0yoiBQ2nKYc4AR8AH1UExSlKBSlKBSlKBSlKBULdlrMrvihiXz5+zJv3lXYOBQXTNtMUDEUDvEMG4RAxRAQEAEBDFTVQ9xw7mY7L5ZRIvIySDxTiCIZITOQDAD16/70HgbUv/AIXdwwt8oaraG6lFmZRk9LI9k3xuccdQo7hDm0w3CI4AC7iAYOg8UBADB7L03tl/LWfbkzd0TdltTjaLVj3cQ6uty9FA5jGKoJ1SLGI5NkNya5hFQCiUQEo5ANGpQVhpp9EM+Q4czcx+zmKsenxbhfKcRNTxOruVHiqhnuqnycvqMFGmn0Qz5DhzNzH7OYqx6fFuF8pxE1PE6u5UeKqGe6qfJy+owVZ6UFOc6UWo/Zso6VWnJJoxZmZFQfzbtymqUTAYFFiqKCCyxTABiLH3KEEAEpgwFdTTT6IZ8hw5m5j9nMVY9Pi3C+U4ianidXcqPFVDPdVPk5fUYKs9KCsNNPohnyHDmbmP2cxVj0+LcL5TiJqeJ1dyo8VUM91U+Tl9Rgrgi9HrKhpgtxR5JdOVGN7JcPhmHRnD1ANwEFyoKm5woTcbYooJjkyO0Qq7UoKw00+iGfIcOZuY/ZzFWPT4twvlOImp4nV3KjxVQz3VT5OX1GCuRjpRacdKtZxutODJNoo0KLxSbdnXXaiYxgBdQygmWOQxziQ6gmMQTCJRDNXKlBUjaaQhmbdkaaugybaMXiiipcL1UTpKgIGOrvUEFVgz3VVAMcvqEK/sVptCxDaKatpm5jkiI08WjxbgeH4iRgwJ1QFTCiofxVTAJy/xRCrBMs1ZGHfR6JilUdNlUSCYcFAxiiAZx6utIZmrHQ7GPWMUyjVskicSjkomKUAHGfV0oIRpp9EM+Q4czcx+zmKsenxbhfKcRNTxOruVHiqhnuqnycvqMFGmn0Qz5DhzNzH7OYqx6fFuF8pxE1PE6u5UeKqGe6qfJy+owVZ6UFYaafRDPkOHM3Mfs5irHp8W4XynETU8Tq7lR4qoZ7qp8nL6jBRpp9EM+Q4czcx+zmKsenxbhfKcRNTxOruVHiqhnuqnycvqMFWelBWGmn0Qz5DhzNzH7OYqx6fFuF8pxE1PE6u5UeKqGe6qfJy+owUaafRDPkOHM3Mfs5irHp8W4XynETU8Tq7lR4qoZ7qp8nL6jBVnpQVhpp9EM+Q4czcx+zmKsenxbhfKcRNTxOruVHiqhnuqnycvqMFGmn0Qz5DhzNzH7OYqx6fFuF8pxE1PE6u5UeKqGe6qfJy+owVZ6UFYaafRDPkOHM3Mfs5irHp8W4XynETU8Tq7lR4qoZ7qp8nL6jBRpp9EM+Q4czcx+zmKsenxbhfKcRNTxOruVHiqhnuqnycvqMFWelBWGmn0Qz5DhzNzH7OYqx6fFuF8pxE1PE6u5UeKqGe6qfJy+owVxQOlFv28JBZTl1K8NNwl90XE8U3gsAAYymVPdVAx3VVNyhfUarpUPbkO5h+1OZUSNz0ku8T4YiOCHxgByAden+9BwNNPohnyHDmbmP2cxVj0+LcL5TiJqeJ1dyo8VUM91U+Tl9Rgo00+iGfIcOZuY/ZzFWPT4twvlOImp4nV3KjxVQz3VT5OX1GCrPSgrDTT6IZ8hw5m5j9nMVY9Pi3C+U4ianidXcqPFVDPdVPk5fUYKNNPohnyHDmbmP2cxVj0+LcL5TiJqeJ1dyo8VUM91U+Tl9Rgqz0oKw00+iGfIcOZuY/ZzFWPT4twvlOImp4nV3KjxVQz3VT5OX1GCjTT6IZ8hw5m5j9nMVY9Pi3C+U4ianidXcqPFVDPdVPk5fUYKs9KCsNNPohnyHDmbmP2cxVj0+LcL5TiJqeJ1dyo8VUM91U+Tl9Rgr4m00hDM27I01dBk20YvFFFS4XqonSVAQMdXeoIKrBnuqqAY5fUIVba45lmrIw76PRMUqjpsqiQTDgoGMUQDOPV1oK/FabQsQ2imraZuY5IiNPFo8W4Hh+IkYMCdUBUwoqH8VUwCcv8UQr6tNPohnyHDmbmP2cxVj0+LcL5TiJqeJ1dyo8VUM91U+Tl9RgqbhmasdDsY9YxTKNWySJxKOSiYpQAcZ9XSuygrDTT6IZ8hw5m5j9nMVY9Pi3C+U4ianidXcqPFVDPdVPk5fUYKNNPohnyHDmbmP2cxVj0+LcL5TiJqeJ1dyo8VUM91U+Tl9Rgqz0oKw00+iGfIcOZuY/ZzFWPT4twvlOImp4nV3KjxVQz3VT5OX1GCjTT6IZ8hw5m5j9nMVY9Pi3C+U4ianidXcqPFVDPdVPk5fUYKs9KCsNNPohnyHDmbmP2cxVj0+LcL5TiJqeJ1dyo8VUM91U+Tl9Rgo00+iGfIcOZuY/ZzFWPT4twvlOImp4nV3KjxVQz3VT5OX1GCrPSgrDTT6IZ8hw5m5j9nMVY9Pi3C+U4ianidXcqPFVDPdVPk5fUYKNNPohnyHDmbmP2cxVj0+LcL5TiJqeJ1dyo8VUM91U+Tl9Rgqz0oKw00+iGfIcOZuY/ZzFWPT4twvlOImp4nV3KjxVQz3VT5OX1GCjTT6IZ8hw5m5j9nMVY9Pi3C+U4ianidXcqPFVDPdVPk5fUYKs9KCsNNPohnyHDmbmP2cxVj0+LcL5TiJqeJ1dyo8VUM91U+Tl9Rgo00+iGfIcOZuY/ZzFWPT4twvlOImp4nV3KjxVQz3VT5OX1GCrPSgrDTT6IZ8hw5m5j9nMVY9Pi3C+U4ianidXcqPFVDPdVPk5fUYKNNPohnyHDmbmP2cxVj0+LcL5TiJqeJ1dyo8VUM91U+Tl9Rgqz0oKw00+iGfIcOZuY/ZzFWPT4twvlOImp4nV3KjxVQz3VT5OX1GCjTT6IZ8hw5m5j9nMVY9Pi3C+U4ianidXcqPFVDPdVPk5fUYKs9KCsNNPohnyHDmbmP2cxVj0+LcL5TiJqeJ1dyo8VUM91U+Tl9Rgo00+iGfIcOZuY/ZzFWPT4twvlOImp4nV3KjxVQz3VT5OX1GCrPSgqYabQwNWzTty69rWNXiyG85n+8ySoCBlDm42TrhnurGEVCdBKYMVOwMO1t6DjoBkoqdvGNEWaJlRATmImQCFEwgAAI4AM4APzV31D2bDubdtCDt96okdxGRrZmqZIREhjppFIYSiIAIhkBxkA/NQTFKUoFKUoFKUoFKUoFKUoFKUoFKUoFKUoFKUoOCOh2sY8lHrdRUyks7K8XA4gIFOCCSIAXAdA2okHrnqI9cYAO+oeDh3MZKXC9XUSMSXkiPEQIIiJSAzbIiBsh0HciYemegh1zkAmKBSlKBSlKBSlKBSlKBSlKBUPd7iXaW67cQRVTPi8PhAklxDdTlA2C4HPdz6qmKi7lmvN2EczHLcxy+z3Pfs3bjgXxwOPHPhQSlKUoFKUoFKUoFKUoFQ9yOJdv2X2SVUeLJIJuuGlvw3HO/PQdoeHXpj4amKr18XW6s+JRkmVtvp5dZ0m1TYMlUSLqifPQgrHInu6eBzkD+kFBHawxbid0xuOBY3ahbLyUYnYtJRZwKBEHCuCJAJymKYu45ik7ogbvd3risKswsfolMSrANB4XSyfJbMo9YIWk6bubYuLlUklRUVBNFs45lIe7lVBPuHOBVFM93S56/526IZ5btx+SjqHJRkgiZB00dLW4oksmPiUxRlMCFVK0Y5jZa67uN8lfWSRcrtTseYuC646cWSbHxvQSUfzaxkUz7S7iJiUptpRMA7QwH01A1Pn5+y5C3njOPI2ndI39zODJJnA5HQpELsIInEATwqboICboHe+GJS1i1Y0ysFwhcja03ztPTlW7IEjNsukVoZomiUzR3uWMLnqsmILJgiA4OHDL0Efpb1pW1a7R0xivJG1dOi7iVoE4PbojnpiRyu3c1TMvNnMkiG0NpCCUCddgFyOfrGW1bsTGTUM18kLVZRnPxoQ7tN1cUW52R4FEAaNzKzRhaoAA9EkBTIA9cZ60HDdetHlD2mF5C6eadOAs+Dj7uOKcI+AXLJwZcDxwALzuLE4AiDzIlNuDLYuM1y6jT15Be84XT6Si7Zdm1CtJtIuxbu3B5BBZsnlNQCukigAZAogUAKYgYMURHdVvmVm9wBNll/JH1NcBccSjByf8KwhOOySFQU0u7LhtwKqneLgw7uojgMfKbTaXCWUCS8kzVTfMPGUi7WbzkO2WFy0KUrdVNRKZKdIxAIUMpiXPXOcjkNG1hvSfsm1Wq1rIR6k3NSrGDj1JAhztW67pUEwXVTIYp1CEARNwynIJ8AXeTO4M6jdaNUoycfWtdiVqvHkbfsPaZnkcycN0nLV0wScKLgioucUlN5zAUvEUKUoAAicetTlz3nM3lAubZuTyV9TXke6AoHJ2hApnKYpgMQ5FCSwHTUKYpTFUIYDlMUDFEBABrKbVsF7GpX7b1weS5qm7t+555jNMDEueNNJpKt2jdMF1HwzAOgcAqgJgVBYx8be96gC7yeoL25tRbcj5eBiVjQ+pj6Cj18OCnbppwyyoLYKqBTKjvOQdwCTaboUDABgsWmFzazXBqNOsZ26rLn7MhSKMzvoq13cYqeUBQAFukqpIOSLFRKBiqmAhQBQQIA7iqAWsRMdFwibQkf5JGqpTMpRWaSWVnolZbnlGwtlHB1TzInUOZIxgETCOTCJx747q5tOoNppU4QXsvybNfEEmyBmyLN/qA3kWSSZhyO1q7n1EAHPgYCZDI4EMjQTvlKaw3fpygWPsOZjG0oWHfS50FbQlbhXVKiUNhdjIyabJMxtwcy4U2AIAGw3eEKrcGu+tRoqSmbWCz2bS2tPIq+JBKWjHTpw9UXScHVaEMk4RKhkEOiolPtHOUzgPdk9SDML6W85ry8kzVR04j45yzMKc/Es0nLM4blG7kjeYKVwiIhnhqkUKA9QLmv2xWj5CCdI+1G1MM1n7ba268KExDGBaMTTOCSAGNLgYMFWUDeG1Qd3UcgGA7b+1uv21L4h+YaMoKznTaPcGevrYkpFu9Fc4FXIaUZnFGLFLcTAu0BIoJgwYobhL9pPXq5Ya6CW7IRkYBYy5HLScW4KxQRiBM3K1cE7wgBxF+1ExjCJRBNbAF/ixM5FRlxTTeekvJP1eBdBNBJRFrc0Y1aPSIe9FeNUZsqDwCgAAHMEU6dPDpXRON425JO45ia8kHUxw7u2NRiJhTtWFIDlqkJhTLtLMAVMwCb0yAU4gUgCYQIXAQt0eUjqO0QtllFxabGTmYRW6FOFYc7chTtDrmKzacONETN1DJ7RO4UMJCmDupHyIFu0TqhqZdt+QsLCw0bBsVLSZ3TJx0xHOBkhUWOqQzEoiqkVucDFJ7oombbtMApjuySEvciOoRGBbi8lbV5M8aids3Wibki4pYG5wADtzqs5pI6iJtpdyRxFMRKURKIgA1Ix8yMU+CQjvJD1CbqFh0oAqZHVvggEemJhI3BHtXhgUBMb+LnA4zjpQf3QTWO9b4nX9sak8pGzqbEkh2KracnBu2Pugpqogd0oq3k00zbSi7aK8MREo7AKcgjt9efbGSR06frSVr+SzrEDhVHlUxkbnjJIrRvuA3AbFdTahWqWQL7miBCdwnTulxdfZdvf8mbU36Xb3+q0Gm0rMvZdvf8AJm1N+l29/qtPZdvf8mbU36Xb3+q0Gm0rMvZdvf8AJm1N+l29/qtPZdvf8mbU36Xb3+q0Gm1D224l3HanaxVQ4Ukum14iWzLcMbMdA3B49eufhqley7e/5M2pv0u3v9Vrgitcr0lOc2eTNqR9yO1Go8N7AG6kx47pIuB6+AZD5xoNcpWZey7e/wCTNqb9Lt7/AFWnsu3v+TNqb9Lt7/VaDTaVmXsu3v8Akzam/S7e/wBVp7Lt7/kzam/S7e/1Wg02lZl7Lt7/AJM2pv0u3v8AVaey7e/5M2pv0u3v9VoNNrjmVHaMO+VjwMLojZUyAELuNxAKO3AdcjnHSs+9l29/yZtTfpdvf6rXO/1nvZixcvTeTNqXhukdUd7y3wLgoCPUQkxEA6eoBH5hoNJhlHa0OxVkAMDo7ZIy4HLtNxBKG7IdMDnPSuysqYaz3s+YtnpfJm1Lw4SIqGx5b4lwYAHoIyYCIdfWAD8wV0ey7e/5M2pv0u3v9VoNNpWZey7e/wCTNqb9Lt7/AFWnsu3v+TNqb9Lt7/VaDTaVmXsu3v8Akzam/S7e/wBVp7Lt7/kzam/S7e/1Wg02lZl7Lt7/AJM2pv0u3v8AVaey7e/5M2pv0u3v9VoNNpWZey7e/wCTNqb9Lt7/AFWnsu3v+TNqb9Lt7/VaDTaVmXsu3v8Akzam/S7e/wBVp7Lt7/kzam/S7e/1Wg02lZl7Lt7/AJM2pv0u3v8AVaey7e/5M2pv0u3v9VoNNpWZey7e/wCTNqb9Lt7/AFWnsu3v+TNqb9Lt7/VaDTaVmXsu3v8Akzam/S7e/wBVp7Lt7/kzam/S7e/1Wg02lZl7Lt7/AJM2pv0u3v8AVaynymNTNTFdKZG44Ox9VdM5G2BGYazvP25yYHIQ5QReJGkzFXQPvxs2mHfwzFKYxQIYPUdQ9muJd3aEG7uAqpZRaNaqPQVS4RwcCkUVNxMBtHcI5DAY8MBXhvyN/L6131qnWNnXhoS9uFsdwm1c3VAImQbsijgOK6IplLwHcOxQg4DukMPSvdFrzXnJbMRcXLcv2qwbveDv38PiplPt3YDON2M4DOPAKCUpSlApSlApSlApSlApSlApSlApSlApSlApSlBDwTiXWlLiTkiqg3byRE48TpbAFuLNsYdo4DeHFMt169chnu4CYqLiJrtWQm2PLcLsd+Rlu37uLuaoL7sYDb7/ALcdfRznrgJSgUpSgUpSgUpSgUpSgUpSgVwTjmIaRa7idKkZiTbxQVS4hepgAuS4HPeEPVXfXBOQ7Wfi14l4oqRFfbuMmIAYNpgMGBEBDxAPVQd9KUoFKwRbyhNSW8VcV/LaUW4Nh2vMP45++Tu5cZbl2bkyCzgjEY8ETCAkMcE+aARKHQd2CjraOoNhuLhPaCF6wJ55JA7lSKLIo84REgEE6hkN28ClBVMREQwG8ufEKCwUquW1qRp3ecK8uSz79tydiY46ibx/GyqDps2MmXccqiiZhKQSh1EBEMB1GueP1Y0slrNc6jRWpdqvLTZ7+Znm8y2UjkdggB97kpxSLtEQAcm6Z60FrpVTkdW9KYezmmoctqbabK1X+wGs65mmyUevuzt4bgxwTNnA4wYc4GvpOapaZWwrCoXLqLbESpcpiEhSPpdugaTMcSgUGwHOHGEROTAEzncX4QoLRXBKuYhtyfaxUh4rtNNtvS34cDnYIdB2j497pj4a6XbtqwarPnzlJs2bJmVWWVOBCJkKGTGMYegAAAIiI9AAKpBNSdGr5txG8YnVa1ZGAiZNETSsfOtVmZHQCAEROsUxiAYROUNuQMO4MeNBfaVT2+sekTuy1tSGuqloLWk3UFJWeTnGpo5M4GAolM5A/CAdwgGBN4iAVLR17WZLsmklE3dCvWj9gMq0Xbv0lE3DIMZcpmKYQOiG4vugZL3g69aCapUUW7LWOkVclyxRkjsBlSnB4mJTMgxlyA56o9Q909Hr41Ex2rOlcxag33EamWo+toFhbjMtplsqx4oDgSccpxT3ZEAxuzmgtdKqSWrmlC83D2yhqdaakxcTYryHjyTTYXMi3EomBVukB9yxBKUwgYgCGCiOelW2gUpSgUpSg536jRFi5WkAKLUiRzLgYu4vDAB3ZDrkMZ6UYKNFmLZaPAoNTpEMgBS7S8MQDbgOmAxjpR+zSkWLmPXMYqblI6JxKODAUwCA4z6+tGDNKOYto9AxjJtkiIkEw5MJSgABnHr6UHRSlKBSlKBSlKBSlKBSlKBXBFOYhzznZJUg4TtRNzsS2ZcBjeI9A3D4d7rn4a764IqHaw/OcqoqbnXajxTeIDg58ZAMAHTp/vQd9KUoFKUoFKUoFc79RoixcrSAFFqRI5lwMXcXhgA7sh1yGM9K6K537NKRYuY9cxipuUjonEo4MBTAIDjPr60Bgo0WYtlo8Cg1OkQyAFLtLwxANuA6YDGOldFc7BmlHMW0egYxk2yRESCYcmEpQAAzj19K6KBSlKBSlKBSlKBSlKBSlKBSlKBSlKBSlKBVU1D0r0+1YYR8VqNbLefj4x6WRQZOznFsZcpDEKZRIDARYAKc2CqAYuRzjIANWulByxcXGQkehEwsc1YMWpATQbNUSpJJEDwKUhQACh8wBXygXMQ8g455AFSLFrtEVGQJJcIgNzEAUwKTAbQ2iGC4DHhgK764IGHa29Bx0AyUVO3jGiLNEyogJzETIBCiYQAAEcAGcAH5qDvpSlApSlApSlApSlApSlApSlApSlApSlApSlBwRzmIXeSiUaVIHDd2VOQEiWwRcCgkYBMOA3jwjI97r0wGe7gO+uCOh2sY8lHrdRUyks7K8XA4gIFOCCSIAXAdA2okHrnqI9cYAO+gUpSgUpSgUpSgUpSgUpSgVD3dDuZ+3ncQzUSIsvw9plREChtOUw5wAj4APqqYqGvBeWbW48WgirC+KBASBJPefqcoGwXA57oj6vnoK1qpr1o9onHjIan6gRMFknETbKq8R2sXwym3IBlVAz0yUoh1qX01v1lqfZcdfUXBzUUxlSnVaIy7UGzlRADiUi3D3GEpFCgBybsCJDFEQDOK8Q63f8KKLuGcXvnR3UySaTKi/NmYXO5WdorK5Aejwn3QmHTxMCpv6QV6R020MQmrLjn2pjC/7dubadKRYtNWLidNwUIcxAVRUK/H3NQpQUKU3eKBwKbqAjQc+nHk1QBhm5jUePuNR48u6Wl0oxS75E8Ssgd8oq2OeNTdCyMAl4ZxKdHO7qYN2a+0rpBds3A68Q6DRvHur9eiaJcqqk2OkuzGyIcQUxE5CComoQcgBgAREA6gI2n2u2n3x3qR/eZcn2+ntdtPvjvUj+8y5Pt9BmsvppqRqOnfVyex+vZxpOGg4trByT1kdWTPHulHCvEM0VWRIkqQ4NyCY+/bncUgYCpDUa2NRtTbUC5ILTGfsGWjbiYTB2jV3AqT0sRukZMTe6czHAoTeQUuMqcBBPqKI7RC9e120++O9SP7zLk+309rtp98d6kf3mXJ9voMkQ0t1FjLGZzhbb1TUuMbnfTSa7KftktxseOkCRjmbiglCnKqAG4iQmU2795THUEdvNdGmesydp2+SOs2eC5Vra7FduLdUt7s9QoKqGSay8a/AG3AKByGOdhuOIncFIBS7N2ye120++O9SP7zLk+309rtp98d6kf3mXJ9voJLVaLvaU0enIi14+OkLlXi+Ek2MiiZBZbBd5SEcgKORDdsBYBJu27+ma88r6Iaw3Yynl7jt+cfjLXVZ8uQLnew53yzNkoAOirkjwI0KZMoCOxMBKYuMGOYRKG6e120++O9SP7zLk+31D3H5P8AarfsvsiZ1NHiySCbrh6j3IfDcc78/dw7Q8O90x8NBWbv0vvIspqBPsbOnnKr6746dhXNuS7BrKpAlGItzOmxXgi1VOChTpmRdiQhiCce9gpTRy+lerklp/ah3MIY84eSk4qUTXCNZvEoGSVEVlnRWn3Gd0Xakopy/dMbdtAREc6f7XbT7471I/vMuT7fT2u2n3x3qR/eZcn2+gzZ3oFfMhpzqBAo5jZFY7eHtsEVm4ieFYujOEEw4hVESCoCiieFExLgpOIQQzmIYaO6k3HESMpPwF5u3snd9rSCyF5PrdM7O2j3aaiq4oxCRGhAIQO6IqqqnBMvQu0pR2D2u2n3x3qR/eZcn2+ntdtPvjvUj+8y5Pt9BRNRrG1KW1ZGRsW1riQbyknFPHroHUK+tx4DcyeVnzZ6AP27hMhDFILHICJEDmNncBfRFZl7XbT7471I/vMuT7fT2u2n3x3qR/eZcn2+g02lZl7XbT7471I/vMuT7fT2u2n3x3qR/eZcn2+g02lZl7XbT7471I/vMuT7fT2u2n3x3qR/eZcn2+g0GZZqyMO+j0TFKo6bKokEw4KBjFEAzj1daQzNWOh2MesYplGrZJE4lHJRMUoAOM+rpWZTPk92SjDvlo+a1LF0RsqZAC6lXIY3EAo7cBzw5HOOlIbye7JWh2K0hNalg6O2SMuBtSrkKbiCUN2Q54MDnPSg1mlZl7XbT7471I/vMuT7fT2u2n3x3qR/eZcn2+g02lZl7XbT7471I/vMuT7fT2u2n3x3qR/eZcn2+g02lZl7XbT7471I/vMuT7fT2u2n3x3qR/eZcn2+g02lZl7XbT7471I/vMuT7fT2u2n3x3qR/eZcn2+g02lZl7XbT7471I/vMuT7fT2u2n3x3qR/eZcn2+g02oe3IdzD9qcyokbnpJd4nwxEcEPjADkA69P96pXtdtPvjvUj+8y5Pt9Q9ueT/arjtTteZ1NDhSS6bXiaj3ITLcMbMfdwbg8e91z8NBstKzL2u2n3x3qR/eZcn2+ntdtPvjvUj+8y5Pt9BptKzL2u2n3x3qR/eZcn2+ntdtPvjvUj+8y5Pt9BptKzL2u2n3x3qR/eZcn2+ntdtPvjvUj+8y5Pt9BptccyzVkYd9HomKVR02VRIJhwUDGKIBnHq61n3tdtPvjvUj+8y5Pt9ccz5Pdkow75aPmtSxdEbKmQAupVyGNxAKO3Ac8ORzjpQabDM1Y6HYx6ximUatkkTiUclExSgA4z6uldlZNDeT3ZK0OxWkJrUsHR2yRlwNqVchTcQShuyHPBgc56V2e120++O9SP7zLk+30Gm0rMva7affHepH95lyfb6e120++O9SP7zLk+30Gm0rMva7affHepH95lyfb6e120++O9SP7zLk+30Gm0rMva7affHepH95lyfb6e120++O9SP7zLk+30Gm0rMva7affHepH95lyfb6e120++O9SP7zLk+30Gm0rMva7affHepH95lyfb6e120++O9SP7zLk+30Gm0rMva7affHepH95lyfb6e120++O9SP7zLk+30Gm0rMva7affHepH95lyfb6e120++O9SP7zLk+30Gm0rMva7affHepH95lyfb6e120++O9SP7zLk+30Gm0rMva7affHepH95lyfb6e120++O9SP7zLk+30Gm1D2bDubdtCDt96okdxGRrZmqZIREhjppFIYSiIAIhkBxkA/NVK9rtp98d6kf3mXJ9vq62a4l3doQbu4CqllFo1qo9BVLhHBwKRRU3EwG0dwjkMBjwwFBMUpSgUpSgUpSgUpSgUpSgUpSgUpSgUpSgUpSgh4OHcxkpcL1dRIxJeSI8RAgiIlIDNsiIGyHQdyJh6Z6CHXOQCYqHgnEutKXEnJFVBu3kiJx4nS2ALcWbYw7RwG8OKZbr165DPdwExQKUpQKUpQKUpQKUpQKUpQKi7lmvN2EczHLcxy+z3Pfs3bjgXxwOPHPhUpXBOOYhpFruJ0qRmJNvFBVLiF6mAC5Lgc94Q9VB30rO/KL/wCQWo3/APS0p/8A2ylYtb8xJ23J6XaLXZIKu5CCuBi9hHqxR3SMKpHuwSETD0OqgbKKmOvRI4++UHq2lYQ+1o1Bb3K4uJFK3vMdleaFkKxp2S/ax1lFU0Beg64/CKQFlS+4C3yJCibigJgKFOuKbvEkB5QKl5ycbc0PG3RHN4yLXbu0SNkjJMD7N5XQjtDiFNtT4YCoBzDkD7AD1RSvNrmLvYPKS1Ru9ijaMxKW5Zcca2E3cEqLxqZbmx4BXQuR2lUOibicNMm/clnHDyfUdMdS19TZGUk4hJr5stmcdyi4FNxlXa6AOFgEd23aRNVuXG0BA2/I+FBoNKxi6Z5C1tfZe53KCi6MRpku+USTDJzlSemOJQ+cQLioTRfX697xeuxu+AfuI9SCPPJO29gTsCiwMXaPImWki7HxxKfJVkeGBuGb3IoCWg9BVFzs12L2f9zcbn36TL09uzfnveA5xjw6fnrI4W59cbs0mlb7eTFmM2dw2otMQgsmDsrmGWUQ4iKSw8yJXuCmyKqZmogYgYIIGyXksDUS4o+J0Ntm930ZMr3ZAHdvJFRktxTO0kG5kDE3qqCU48Yd5zCYRHqAlzig3ulYJDayanXdG6YIwYWvHP74Vl+fcO49w4RbpsjGEOEkVwmYTGKXaO5TACbd6tpou7fKQvWP1VlbZtm3ZB/F2zLs4d9HN9P56RXkRWTRUVXSlWxRZNASK4KbhqlUEwJGyZPeUQD0fSs2ti778uPV+77cFzANrXtNRs3FHkFjv3ajhqmsU3H44JpFIYTZDhHE4GAMk2iJ/wB6nXferO5ba0807dQkdOXIR67CSmo9Z80bN2pSCcvASXQMoocypAD3Uu0NxsGxig0aleV9RZm4dbrV0ScSDS1kmczegtJ6IlYhSUZOl2qLwBEpBXSAUwUbHOQFCmEDCkceqYlNuOsVy3jZunz6csCAPKSjdRAgJpxykgLZuZUpVnAM0lElXfCTEx+Akcqim3aTJhABC70rCo7XeecaYxdzIvoWVlxvGPtiSMEJIxOwq75JE4nj3olcs1uEqBgTUMcAyUwGOUwVW9bL6ue5rVvOHbsI4y9qajWzGRRe+mVUDLxy4CubJv46xgESgHdAOmeoh6ZpWAzGseq1m2lfTGeTtOXu2zn8Qig8Zs3DOOfIP1EgIJ25l1lUDlA6hR91UAdpTh0NsCLl9YtdbYkZ1CWe2G/bWhc0LFSItoV43PJNZI7cpeDueHBqoiC/UxuOVXHopUHoiUe9mxjuR4XE5VBRfZuxu2lEcZ9WcUi3vaUY0keFw+aQTX2bs7dxQHGfXjNYbO3XPW+91wk7Ls1g9l4xeL3jy6zszhMzJLiLqthXLx+EkJzAgiZIyoE2AO826vlEa13vK6LSVxWd2ZcM7CyaUa5Uj7NlWp2TUwJnFwpAOVE3wmIkoBgbJrGMqTadMw7gIAegaV58V1H89bJ0/l5kIWdkSagsot0onGyUTy7gh1QBUWLkxHLRcC7R4C4qFDd4qAJTV2PtaNQW9yuLiRSt7zHZXmhZCsadkv2sdZRVNAXoOuPwikBZUvuAt8iQom4oCYCgG70rztNa06wx91XHJIFs4LStm+o20jsDx7o0i9RdlZgKwOgcAkgdM7sR28BUDlIAZTEc16JoFKUoFKUoFKUoFRcFNdtdofc3B5B+qy9Pdv2Y73gGM58Ov56lK4IpzEOec7JKkHCdqJudiWzLgMbxHoG4fDvdc/DQd9KUoFKUoFKUoFcso97NjHcjwuJyqCi+zdjdtKI4z6s4rqrnfqNEWLlaQAotSJHMuBi7i8MAHdkOuQxnpQfmLe9pRjSR4XD5pBNfZuzt3FAcZ9eM11VzsFGizFstHgUGp0iGQApdpeGIBtwHTAYx0rooFKUoFKUoFKUoFKUoFKUoFKUoFKUoFKUoFKUoFRdrzXnJbMRcXLcv2qwbveDv38PiplPt3YDON2M4DOPAKlK4IFzEPIOOeQBUixa7RFRkCSXCIDcxAFMCkwG0NohguAx4YCg76UpQKUpQKUpQKUpQKUpQKUpQKUpQKUpQKUpQRcRNdqyE2x5bhdjvyMt2/dxdzVBfdjAbff8Abjr6Oc9cBKVwRzmIXeSiUaVIHDd2VOQEiWwRcCgkYBMOA3jwjI97r0wGe7gO+gUpSgUpSgUpSgUpSgUpSgVD3gxCQtiSbdnvH5gQMqRozUSTXcHJ3ypJmVEqZTGMUCgJzFL16iAdQmKh7uh3M/bzuIZqJEWX4e0yoiBQ2nKYc4AR8AH1UGc3Hed43ZASVr3B5Ld9uoyXaqsniHbUETioqFEpy7iSQGLkoiGQEBD1DUPNrP7jlrUnZnyR73cv7HcndwDgZyEKdkqZAyBhASyYbwFI5iiU+4o9BxkoCG7UoPPa8WZzfJdRVvJM1ENMFXK82+dUUDEzopOGV0ZiEtypnIEwUFxSFUAAA3dAx+5BitKOrldPvJO1EU87xbGmUQumKKg5O328JQEQlQTTUwQgGOmUpjgQoGEwFAA9A0oMWG7L2jZqYvOE8lG9T3DKskGqyi1wQiabgrfiCgmb+EDgmAGWUyYpBHvdQNgAquaHjfekNhltdr5Lt3IOXki/mpArKXghQB28cnXVKmJpADCQoqbCiIBkpC9C+iHoylBjStz3Ovch7uX8lS+VJVSOGIOseZghKZoKnEFIUxktghu65259WcdKr1kRBtO5NeXtfyUNSSOlW4skzPrujJArNru3cs1I6llCtEMgX3FACJ90gbcFLj0NSg862xAJWfIPZKE8krUYDvWqjAEXl2RjxszanHJ27RBeWOkzSN03JtyplECkAQwUuOKYs1Katu17VceS5quiys10DqGVbXxHpPG2AEopg7CX5gUhKO0SCpt2lKXGCgAel6h7jh3Mx2XyyiReRkkHinEEQyQmcgGAHr1/3oMeg+bttO3UYPyRr4aJ2mDosMQk7CiVoDjPGAAGTEDAbI9DZ2/xcVw3HDedd0J3fOeSbqOs+KogssildsYgxeKoiAoqOmScsVs6OQQLtMsmcS7S4ENoY9D0oMdjLsuyGmZifjfJZvtF/PKIrSC3bcGbjHSTBNMdoyQlLghQDugGcZHI9ajr6fTuo7BswujyXtSvuNYV2rqNuuKjHjc4lEpuG6aSqSyYGKIlMBTgBgHBgEOlbnSgwtFzINo62Ylr5I16t2dnLkcwiCM1BpkaKlROiBgAskG/uKqAO/dkTCI5HrXZeFxXPfkGrb1zeS3qAu0UORUpkLghWq6KpDbiKoroyZFUVCiGSqJnKYPUIVtFKDzuaE4tiu9OXPkn6lOod+4K8cnc3fGrP1XJTkORwZ+eXF2KxTJpiVXi7y7CAUwAUADnTtOPJbMhaK3khahu42WftZWQB7dkY6XdvG/C4S6q6ssZZQ4cBLImOImEuTbhEc+kKUHneLhCxFrv7PQ8k3UdywlXqUi/UkLtjHrx45TOQyaizxeWO4VEopJgG9QQApClDuhipCUM+mVJdWS8kq+1jTz1jIyA+cEMXjOGYpi2P3ZQNuwUk+hcAbb3gHI53ilBgFxtnV1MLmj5jyTL9OW7hRPKKp3BCpqmVRTKRFZI5ZPKCiYEKJTp7TFMUDAOQzUdHWuSOso9hp+StqkuxUcpvTvHF6x6soLohSlI4CQNL82RUpSlKUxVSiQoAUu0vSvQkyzVkYd9HomKVR02VRIJhwUDGKIBnHq60hmasdDsY9YxTKNWySJxKOSiYpQAcZ9XSgw2MbO4mGjYJv5KOoqzaJlSTbdR5dMU6cnflEdrhZwtKmWXP1xlU58gAAPQAAPivFmc3yXUVbyTNRDTBVyvNvnVFAxM6KThldGYhLcqZyBMFBcUhVAAAN3QMehKUGDOucepSaLrySb7OSYmm1wvQ84IYOLIICiKS3SU7u3l0e6XBR2dQHI5tnsqak/kz33+trf/ANRrTaUGZeypqT+TPff62t//AFGnsqak/kz33+trf/1GtNpQZl7KmpP5M99/ra3/APUaeypqT+TPff62t/8A1GtNpQZl7KmpP5M99/ra3/8AUap+rd36h3Xp5Mxaukep9lbEObLcEdckA0VjjIiCgLGP2kBRTDZ3yHHaYm4BxnIb7UBfNiWlqVbLmzb5hUpeFeKIKOWSxzlTWFJUipAPtEBMXemURKPdMAYMAgIgIf52eS7/AMQTyorvuMbGkNIHerTZqsCCkrDtis3aRRMIAouoXLQAwAY3cMBHOVByFf6RREQ2iQdi2MqIvnSjxQFBARKc+MgGA8Onz/npA29AWrFIQVrwcfDxrUu1BmwbEboJB8BUyABSh+YK57ch3MP2pzKiRuekl3ifDERwQ+MAOQDr0/3oJilKUClKUClKUCud+zSkWLmPXMYqblI6JxKODAUwCA4z6+tdFccyzVkYd9HomKVR02VRIJhwUDGKIBnHq60H0YM0o5i2j0DGMm2SIiQTDkwlKAAGcevpXRXHDM1Y6HYx6ximUatkkTiUclExSgA4z6uldlApSlApSlApSlApSlApSlApSlApSlApSlApSlArggYdrb0HHQDJRU7eMaIs0TKiAnMRMgEKJhAAARwAZwAfmrvqHs2Hc27aEHb71RI7iMjWzNUyQiJDHTSKQwlEQARDIDjIB+agmKUpQKUpQKUpQKUpQKUpQKUpQKUpQKUpQKUpQcEdDtYx5KPW6iplJZ2V4uBxAQKcEEkQAuA6BtRIPXPUR64wAd9Q8HDuYyUuF6uokYkvJEeIgQRESkBm2REDZDoO5Ew9M9BDrnIBMUClKUClKUClKUClKUClKUCoe73Eu0t124giqmfF4fCBJLiG6nKBsFwOe7n1VMVF3LNebsI5mOW5jl9nue/Zu3HAvjgceOfCglKUpQKUpQKUpQKUpQKh7kcS7fsvskqo8WSQTdcNLfhuOd+eg7Q8OvTHw1MVFzs12L2f9zcbn36TL09uzfnveA5xjw6fnoJSlZXrB5UOhOhSZiaj6hxzKQAAEkU3MLp+oIh3QBukBjlAfUYwAX5wq62FdS98WhGXava8xboyqIuCRswkRJ6gmJh2cYhDGAhjEAptm4RLuwbBgEADH2PlD6oBa59UZrR+3kbAbyDhu8esLwVcSrZok6O3M7MyUj0kjFKJOIchXImBPcJeIYAIbWml4GXvSXtldoxRZRkW0kge9qImVPxjrAYDtg90SIUEQEFDd0+4wB6Bq8/x9v6zSWjkl5PwaKzsQvLupFi4uWSlIkYpFi5fKnUXIVu8VdnPy6g8Mgty5UEoHFMMmDQpfTSae3xqE6WtdKUg56yI6CaorSXKkfKpGe8VAVE9yqPdWTDibOm7IZEBwF5gNV9Lbstt5eVralWrM2/HCYryVj5lu4ZthKACYFFiHEhBABARyIYAQrhe6wWO4si670si5YO7U7RQeGfIxUqiuCblukKhmyp0hPwlOgAIGDIZAcV5wuy2dT2vk+a1qXpDXGlGvLPBlHo3sEGeWOdNJYDJHcwwmIq0Ap0ykFcTL7hVEcgIZvTex78u9rf82TS1W0OfsEloRsa5esjLSS6ZFxIqXlllEiIBxippCocqnU+4iYAGQ1qS1f05te34Ce1Bvi27RLcaKR2SczLoNAWVOQphSTMqYnEMG4OhQz4dKsqk7CIuV2a0wxIu1ag+XSM4IB0mwiYAWMGclTESH7w9O6PXoNeadadPddJmPi7csuFmeVcWAvBrKQ68GgHaApgHLSLh6Q7krQ2AAoscmA24TfxTBKay2ncyMJpqximSZJK4WyVgTbY7oEzlYOkSKODlEm4DnRBqoIYHGDHHOPEPRTV40fNEX7J0i4auEyrIrJHA6aiZgyUxTB0EogICAh0EKr8fqdprLR8vLRWoVsvWMAUDyzlvLN1Eo8opgoAuDlOIJAKYgfJxDujnw61YCt00GgNWyRSJpp8NMhegFAAwABXnp3o1fyvkr29p7HIu4i5IV0xk12keoxFdUzd8Dg6aZnBFWgqmANxRVAUxPt3CAZMAa1I6o2ErppI6mwuoFur243ZLuE55CTbqR5dgCG7mAMKWAOGOo4z0rota/wC05uyIK8UrxhXcdMJNk28kk+RM2dLqiBCkTUKOwxjKDtApR6m6AGelYGjppfKekN9TFxW3qK8mJOebXCgjI3FAtJ9NRoRECO0uzm5Y0ixTIFMVFU6qapSBxTBuFIOpjZ+sMzoOR6/t5/KziV3x12Mo192Q0mHzRJ4g4ORyoyFOPM6NtV2nKJCmKCXEEpxMIBs2oOqETZVrStwxwNJpeGfs494yRelKdBVwsiQCqCAGEhgIuVTaIZEBDwAQGvnCa0acz973jp8xuVgEvYiTdeaTO8QwgmqmKm8QA4mKUgdDicpQARDxrJ3Wnupl0Wbqa4cWG6iH933ZETMdGO37M7grVEkeCnFMkqdEpy8urkoKGDu90TZARsNxWBccrdGsMbIWE7l4S9ISPBmslMpME3R0kDoqtQWIcXCC3UDFU4ezqX3QByABqln31ZGocOFw2BeMHc0UKhkeeh5BF634hfSJxEjGLuDIZDOQzU5WN+T1B6mRatyPr9QuUjZ8dpyJ7tRggnDmTSEinHVhfuZVEABPhifKoDxAMO3ZWyUClKUClKUClKUCoe23Eu47U7WKqHCkl02vES2ZbhjZjoG4PHr1z8NTFRcFNdtdofc3B5B+qy9Pdv2Y73gGM58Ov56CUpSlApSlApSlArjmVHaMO+VjwMLojZUyAELuNxAKO3AdcjnHSuyuWUe9mxjuR4XE5VBRfZuxu2lEcZ9WcUH5hlHa0OxVkAMDo7ZIy4HLtNxBKG7IdMDnPSuyuWLe9pRjSR4XD5pBNfZuzt3FAcZ9eM11UClKUClKUClKUClKUClKUClKUClKUClKUClKUCoezXEu7tCDd3AVUsotGtVHoKpcI4OBSKKm4mA2juEchgMeGAqYqLtea85LZiLi5bl+1WDd7wd+/h8VMp9u7AZxuxnAZx4BQSlKUoFKUoFKUoFKUoFKUoFKUoFKUoFKUoFKUoIeCcS60pcSckVUG7eSInHidLYAtxZtjDtHAbw4pluvXrkM93ATFRcRNdqyE2x5bhdjvyMt2/dxdzVBfdjAbff9uOvo5z1wEpQKUpQKUpQKUpQKUpQKUpQK4JxzENItdxOlSMxJt4oKpcQvUwAXJcDnvCHqrvrgnIdrPxa8S8UVIivt3GTEAMG0wGDAiAh4gHqoO+lKUClKUClKUClKUCoW7WVtSsSMHdKIKs5Y3IATJymE6pTF7hyYOmbAmwcolEviAgNTVcErDtZjk+aUVLyTtN4nsEAycmcAOQHp1/3oPCV/f8LOPhLub6m+Tvf54ycj3gSCEXdBReMzrAbcAA4KHFTDORyJVD5HcBwEAEPW+nFlLubQt2Qve2n8BcLGLWjXEelc7x6iiUxjFOIKir7sJgADlUPlQgGANwCA1otKCsNNObXZchy4S/8ABrFWNb75t6f3BT0t+5UeIfr0UPuOX1GCjTTm12XIcuEv/BrFWNb75t6f3BT0t+5UeIfr0UPuOX1GCrPSgp7jSWxHsehEyMa+fsW8atE8s9lnjhJVqr6ZVSKKmBYw56HUAxw9RgrpZ6b2swCPK2LLAEYwVjW4Hm3p8IKelv3KjxD/AAKH3HL/ABTBVnpQVhppza7LkOXCX/g1irGt9829P7gp6W/cqPEP16KH3HL6jBXCno3p2nMQ1xDCuVZW34tzDRz5eTdquEGbgQFYnEOqJjCbaXvmET90MCGAq60oKw005tdlyHLhL/waxVjW++ben9wU9LfuVHiH69FD7jl9Rgo005tdlyHLhL/waxVjW++ben9wU9LfuVHiH69FD7jl9Rgqz0oKipp9ZkWxQWcFleViYtwwDizL5YOVOAipxAMqPFPjODn3HD+KYK/sNp9ZqLKIXiQleWYxZmDHMy+EOVVDPeAyvfPgeih8qF9Rgqyv2aUixcx65jFTcpHROJRwYCmAQHGfX1owZpRzFtHoGMZNskREgmHJhKUAAM49fSggGmnNrsuQ5cJf+DWKsa33zb0/uCnpb9yo8Q/XoofccvqMFGmnNrsuQ5cJf+DWKsa33zb0/uCnpb9yo8Q/XoofccvqMFWelBWGmnNrsuQ5cJf+DWKsa33zb0/uCnpb9yo8Q/XoofccvqMFGmnNrsuQ5cJf+DWKsa33zb0/uCnpb9yo8Q/XoofccvqMFWelBWGmnNrsuQ5cJf8Ag1irGt9829P7gp6W/cqPEP16KH3HL6jBRppza7LkOXCX/g1irGt9829P7gp6W/cqPEP16KH3HL6jBVnpQVhppza7LkOXCX/g1irGt9829P7gp6W/cqPEP16KH3HL6jBRppza7LkOXCX/AINYqxrffNvT+4Kelv3KjxD9eih9xy+owVZ6UFYaac2uy5Dlwl/4NYqxrffNvT+4Kelv3KjxD9eih9xy+owUaac2uy5Dlwl/4NYqxrffNvT+4Kelv3KjxD9eih9xy+owVZ6UFYaac2uy5Dlwl/4NYqxrffNvT+4Kelv3KjxD9eih9xy+owVw2/YVgp7OwiSQdkJuYk38LvvE/vvE3K+7KdQwsfccOm0wYq61wRUO1h+c5VRU3Ou1Him8QHBz4yAYAOnT/egh2mnNrsuQ5cJf+DWKsa33zb0/uCnpb9yo8Q/XoofccvqMFGmnNrsuQ5cJf+DWKsa33zb0/uCnpb9yo8Q/XoofccvqMFWelBWGmnNrsuQ5cJf+DWKsa33zb0/uCnpb9yo8Q/XoofccvqMFGmnNrsuQ5cJf+DWKsa33zb0/uCnpb9yo8Q/XoofccvqMFWelBWGmnNrsuQ5cJf8Ag1irGt9829P7gp6W/cqPEP16KH3HL6jBRppza7LkOXCX/g1irGt9829P7gp6W/cqPEP16KH3HL6jBVnpQVhppza7LkOXCX/g1irGt9829P7gp6W/cqPEP16KH3HL6jBXwU0+syLYoLOCyvKxMW4YBxZl8sHKnARU4gGVHinxnBz7jh/FMFW6ud+zSkWLmPXMYqblI6JxKODAUwCA4z6+tBWobT6zUWUQvEhK8sxizMGOZl8IcqqGe8Ble+fA9FD5UL6jBX2aac2uy5Dlwl/4NYqxrffNvT+4Kelv3KjxD9eih9xy+owVPsGaUcxbR6BjGTbJERIJhyYSlAADOPX0rooKw005tdlyHLhL/wAGsVY1vvm3p/cFPS37lR4h+vRQ+45fUYKNNObXZchy4S/8GsVY1vvm3p/cFPS37lR4h+vRQ+45fUYKs9KCsNNObXZchy4S/wDBrFWNb75t6f3BT0t+5UeIfr0UPuOX1GCjTTm12XIcuEv/AAaxVjW++ben9wU9LfuVHiH69FD7jl9Rgqz0oKw005tdlyHLhL/waxVjW++ben9wU9LfuVHiH69FD7jl9Rgo005tdlyHLhL/AMGsVY1vvm3p/cFPS37lR4h+vRQ+45fUYKs9KCsNNObXZchy4S/8GsVY1vvm3p/cFPS37lR4h+vRQ+45fUYKNNObXZchy4S/8GsVY1vvm3p/cFPS37lR4h+vRQ+45fUYKs9KCsNNObXZchy4S/8ABrFWNb75t6f3BT0t+5UeIfr0UPuOX1GCjTTm12XIcuEv/BrFWNb75t6f3BT0t+5UeIfr0UPuOX1GCrPSgrDTTm12XIcuEv8AwaxVjW++ben9wU9LfuVHiH69FD7jl9Rgo005tdlyHLhL/wAGsVY1vvm3p/cFPS37lR4h+vRQ+45fUYKs9KCsNNObXZchy4S/8GsVY1vvm3p/cFPS37lR4h+vRQ+45fUYKNNObXZchy4S/wDBrFWNb75t6f3BT0t+5UeIfr0UPuOX1GCrPSgrDTTm12XIcuEv/BrFWNb75t6f3BT0t+5UeIfr0UPuOX1GCjTTm12XIcuEv/BrFWNb75t6f3BT0t+5UeIfr0UPuOX1GCrPSgrDTTm12XIcuEv/AAaxVjW++ben9wU9LfuVHiH69FD7jl9Rgo005tdlyHLhL/waxVjW++ben9wU9LfuVHiH69FD7jl9Rgqz0oKmGmFpA2bMwCa4bSNXiUv4ff7uXWAQPuNxsnUwI4VMIqF/imDFTsC5iHkHHPIAqRYtdoioyBJLhEBuYgCmBSYDaG0QwXAY8MBXfXBAw7W3oOOgGSip28Y0RZomVEBOYiZAIUTCAAAjgAzgA/NQd9KUoFKUoFKUoFKUoFKUoFKUoFKUoFKUoFKUoOCOcxC7yUSjSpA4buypyAkS2CLgUEjAJhwG8eEZHvdemAz3cB31wR0O1jHko9bqKmUlnZXi4HEBApwQSRAC4DoG1Eg9c9RHrjAB30ClKUClKUClKUClKUClKUCoe7odzP287iGaiRFl+HtMqIgUNpymHOAEfAB9VTFQ93uJdpbrtxBFVM+Lw+ECSXEN1OUDYLgc93PqoJilKUClKUClKUClKUCoe44dzMdl8sokXkZJB4pxBEMkJnIBgB69f96mKh7kcS7fsvskqo8WSQTdcNLfhuOd+eg7Q8OvTHw0ExSlKBSlKBSlKBSlKBSlKDjmWasjDvo9ExSqOmyqJBMOCgYxRAM49XWkMzVjodjHrGKZRq2SROJRyUTFKADjPq6UmVHaMO+VjwMLojZUyAELuNxAKO3AdcjnHSkMo7Wh2KsgBgdHbJGXA5dpuIJQ3ZDpgc56UHZSlKBSlKBSlKBSlKBSlKBUPbkO5h+1OZUSNz0ku8T4YiOCHxgByAden+9TFZepfuq0dMzMe30YnJ9k3kFCMn6UjHtSKobSiUCkWVIcQARMG4Q646CIUFWa6d2NrPqrqMnq7aUZc3my9YxsGyl2xXKUc1OySWFy3TUyVJVRVRXK5AA/uRS7u5UgldV0Rt16e6W6aXlDzEM9hnr51PzRDyzlwiycNkhIVRBZEh1DFVOQVTCbaYoGMU4gYpoW84SZv2XSn53yZb1byaaINjvIe/EIhZygAiYEXB2T9IzhIBEwgmqJyAJjYANw5lWLm5YuThpeL8lKXZOLejlYiLK1n4pFFozUFMTokSI5BMC5RSx3chtwGMjkK/YflIXpeOpTWNRtuRcW5JTb+FBslYM8gaNI2MsQr1WZUJyC5DnQABTIUmzjAAKHEggb9xHlAXnJ61sLOaycJIW7My8lCoFb2fLoFZqNkFjlUCXcKEaPzb2xyqIt0g2CYS8Qdm4/7aWy9Y3qW/2/ksXYEok5WeoonvZqePbulQEFXKLAz4WiS5wMfcsRIqg8Q4ibvmzzw9lGgbnSvCL8lK60pJvJOJZqJ73bKN2jpwVQrg7dud8KKAK8U4nImQpTmEDGATAAgFetjWfU6xdD7P7fuEk5c91XJLRyUwjZ8vNFaIorOjiY8e0XVdOBwjsKAKplKUxcjhMd286NXvO6g2I2uC5IF7FSIOHLRYjqHeRYuASVMQrkjV4Uq6KapQKoUigCJQNjcbG4ctWtZ8rbitqF8l680I88mrMo8tfiCDhk8UEwnUaOE34LNM71O6gdMuFDhjBjANis2WvPT+329r2n5MVxM49uY6gFUueNcKqqHMJ1FVVlXRlFlDmMYxlFDGOYwiJhERoK9Y+tWsEpP2rJ3MWzjW3dd0zdsJR7CPdEfNuTO84Tozo7gyZ9xWeDIggXAnyCg421F2V5QGoeqM0pDMrfdKRF0JybNgQbBnmacMKaaoILOZZcvJPCKCmACCIJbTKFAplQATVZGLWcjUodFl5KtwJkgJV1NRwedMePAeueNxlervvbuZW7pslDf0AMBiHRtyXt2ce33b/kuXcjNFK7csyqXm2dMmLlYpuKs1YHembN1DiJhMZFIpjbz5zvNkPjE+UddbG3o8hLcjjcO1EmxUzFVA43UBQAGGREA4fzZ3fPWw6oXvL6daZvrrIyaPphuk3bpJGEybYztdUiJBNjJgSBRQBEAETbQEAHPWsogIKTZxrNQfJMnAX7aC61BG448uZcxMHc7Bdd0RERHh4AgD/FAQq5Tl3ag3LDvbfn/Jjmn0bIoHbOmy07EmIqmYMGKIcx8A0FUltZdXbIWvSCus9ny0ha7a3F27yPjHTRFz2i9URVE6CjlUxNpSYKAKm6huER3bC/XVvUF49f3PasrAxT+Ptu6LNSZlV45DCZ27RMZQ5k1S5MQ2DExguQADFOGQGmW5pldkNN3w0e+TfdUnat5REdHLNpG+UH785253AnOo7cPTriOFkgTMCu4nDAC7QKWrPGWgvFMXTBHyV7vclfO2D92u/vlu9cuXDI4HaqKuF3x1VDEEpepjDkClKbJQAKC2Mbl1oe64HtSNuuypa0owVF51NG1naDuNTOnlq150ZE6aro24pzADcoAkG4QJvTA2w15st2ypO1LoWu6A8nnVFq9cSDiVWb+yuqowVdLGMZU52J5MWxgETCO0UtodMAGAxo3slasfk53B+v4n7RQabSsy9krVj8nO4P1/E/aKeyVqx+TncH6/iftFBptKzL2StWPyc7g/X8T9op7JWrH5Odwfr+J+0UGm0rMvZK1Y/JzuD9fxP2inslasfk53B+v4n7RQabSsy9krVj8nO4P1/E/aKeyVqx+TncH6/iftFBptKzL2StWPyc7g/X8T9op7JWrH5Odwfr+J+0UGm0rMvZK1Y/JzuD9fxP2inslasfk53B+v4n7RQabSsy9krVj8nO4P1/E/aKx7yqL01EW0ofXS/tK89M3FrD2oyuFpdUaRNBcAEoEWQK5w6Ifds4QlMYRNgoZHAh6uqHs2Hc27aEHb71RI7iMjWzNUyQiJDHTSKQwlEQARDIDjIB+avCXkYeWp5WWr79jBXToareMMdYjde7WZAi02xdwAoqqY4cuqJQyPDS2GEAHAGHAD7ts1xLu7Qg3dwFVLKLRrVR6CqXCODgUiipuJgNo7hHIYDHhgKCYpSlApSlApSlApSlApSlApSlApSlApSlApSlBDwcO5jJS4Xq6iRiS8kR4iBBERKQGbZEQNkOg7kTD0z0EOucgExUPBOJdaUuJOSKqDdvJETjxOlsAW4s2xh2jgN4cUy3Xr1yGe7gJigUpSgUpSgUpSgUpSgUpSgVF3LNebsI5mOW5jl9nue/Zu3HAvjgceOfCpSuCccxDSLXcTpUjMSbeKCqXEL1MAFyXA57wh6qDvpSlApSlApSlApSlAqLnZrsXs/7m43Pv0mXp7dm/Pe8BzjHh0/PUpXBKuYhtyfaxUh4rtNNtvS34cDnYIdB2j497pj4aDvpSlApSlApSlApSlApSlByyj3s2MdyPC4nKoKL7N2N20ojjPqzikW97SjGkjwuHzSCa+zdnbuKA4z68Zr9P1GiLFytIAUWpEjmXAxdxeGADuyHXIYz0owUaLMWy0eBQanSIZACl2l4YgG3AdMBjHSg6KUpQKUpQKUpQKUpQKUpQKi4Ka7a7Q+5uDyD9Vl6e7fsx3vAMZz4dfz1KVwRTmIc852SVIOE7UTc7EtmXAY3iPQNw+He65+Gg76UpQKUpQKUpQK5ZR72bGO5HhcTlUFF9m7G7aURxn1ZxXVXO/UaIsXK0gBRakSOZcDF3F4YAO7IdchjPSg/MW97SjGkjwuHzSCa+zdnbuKA4z68ZrqrnYKNFmLZaPAoNTpEMgBS7S8MQDbgOmAxjpXRQKVncZrCyM61HbXNFlhvY6X3uDmdcUHLAWpXCbsO4XYBgFQu3vYMmbvDX2i9YrWZ2vaEtqhMQFhzN4ooCyhpabQIsdwqBRBskZTYK6gbyAJSFzuNjHhkL9SoKRvyyIm4GlpSd4wbSekejKLcSKKbtyIlOYATRMYDn7qag9AHoQw+BRrL3flKMm0vpvapkLOa3DfoLuTsXt5tyEbNERwc7dRJNXnFTCIARMpSFNtUyoXYOQ22lRzS47efjHgxno5wMs3M7jwSdEPzaBQKIqpYH3QgAcgiYuQ7xfhCuS6r6sixGgP73vGDt5qYiigLysgi0TEpAATm3KmKGCgICI+rIZoJylQMtftiwNqhfc7ekFHW0KSbgJl3IoosRSUxwz8cxgT2m3FwO7A5DHjXxk9StOoWBZXVMX9bjCEkiAoyknMqgk1ckEu4DJqmMBDgJe9koj06+FBZKVU32rmlMXOoWvJ6nWm0mXR1E0I5eabJulTETKqcpUjHA5hKmchxAA6FMUw9BAa4XOrlrydpxt56dTlt3hFSMw0iivWNwtStPdXBUVDEX3GTUUJuEQRKO85g2B3hCgvVKrrXUfTx9eLnTtlfluuLrZI8y5gkpRA8gij3fdDtgNxCl75O8Jcd4vwhX9iNRdPrguaTsqBvu3pK4YUMycSzlEFnrIMgHuyBDCdPqIekAeIUFhpVFZau2pH6dM9RtSJ+2rNjnChklHD64Wp2SZ+KchCg83FSOJtmcAOQERL4gNStyam6b2bFtpy79Qbag414jzDZ5JSzdsgsl3fdCKKHApi98nUBx3i/CFBZaVV7i1T0xs+3GV4XbqPa8JAyPD5OVkZhu2Zud5dxOGsocCH3F6hgRyHUKsqSqS6RF0FCqJqFA5DkEBKYohkBAQ8QoP3VZvjTPT/UtKMbagWhF3ChDvQkGaEg3BZJNwCZ0wOJDd03dUN0MAhnA4yUohZqUHzQQQaoJtmyJEUUSAmmmmUClIUAwBQAOgAAdMVH2vNeclsxFxcty/arBu94O/fw+KmU+3dgM43YzgM48AqUrggXMQ8g455AFSLFrtEVGQJJcIgNzEAUwKTAbQ2iGC4DHhgKDvpSlApSlApSlApSlApSlApSlApSlApSlApSlBFxE12rITbHluF2O/Iy3b93F3NUF92MBt9/246+jnPXASlcEc5iF3kolGlSBw3dlTkBIlsEXAoJGATDgN48IyPe69MBnu4DvoFKUoFKUoFKUoFKUoFKUoFcE5DtZ+LXiXiipEV9u4yYgBg2mAwYEQEPEA9Vd9Q93Q7mft53EM1EiLL8PaZURAobTlMOcAI+AD6qCYpSlApSlApSlApSlArglYdrMcnzSipeSdpvE9ggGTkzgByA9Ov+9d9Q9xw7mY7L5ZRIvIySDxTiCIZITOQDAD16/wC9BMUpSgUpSgUpSgUpSgUpSg537NKRYuY9cxipuUjonEo4MBTAIDjPr60YM0o5i2j0DGMm2SIiQTDkwlKAAGcevpXzmWasjDvo9ExSqOmyqJBMOCgYxRAM49XWkMzVjodjHrGKZRq2SROJRyUTFKADjPq6UHZSlKBSlKBSlKBSlKBSlKBXBFQ7WH5zlVFTc67UeKbxAcHPjIBgA6dP9676h7ch3MP2pzKiRuekl3ifDERwQ+MAOQDr0/3oJilKUClKUClKUCud+zSkWLmPXMYqblI6JxKODAUwCA4z6+tdFccyzVkYd9HomKVR02VRIJhwUDGKIBnHq60FJ1D1n0d0Ft9upqTqBFwTds2KVFJ0tvdrpkDbkiCYCqp4ddhB600U1kYa42yvesBaNwRMCo5FOJeS6CaPaqAAH3SimBzHKmJtwAJwLuAAMGciAeZda/8AhZ6UaoipclrXRLWldDkoLOz8Q0gwcOBABUOKSpgUJuEMBsUApQxgmAAK0fQbyZ3sdZfm/rtbDBWchlQZISsJdEmKEs3KQolcCiJyA3N12GIHQTEMIAUolyEnrppPft0alQ69lQbdzbt7Nm0BfjkzpNI7SOaOeaTUAhhAy3EKZw2EpMiALgYehRqH8oHSbU2cvuXm7UG+JGGui2ULdVj7aXttFNESKLicHZ5huqciBwXL3mu84CQw8IwgStN9rdo/8QSf7QyX7+ntbtH/AIgk/wBoZL9/Qc1mafT8Fq3N3M/j97JazYSFbv1HKayiy7dR0KxBMAFOPviYiYSEKYRyABgQCs6ZaX3xb6mjozMFwC2tDTLSX+6UT8sqvwuEXunHfu2m6k3AGOuKt/tbtH/iCT/aGS/f09rdo/8AEEn+0Ml+/oKhoFbcwz1HvZpKtEOybCcHti2l0194mauDg/VKJcABBIVZqhgBHo3Ac9cB9dfVXjLV/R2YjrFWu11GO5t0jHtVGxHW7kdm9AzlRJEFAA4+moQNom65wAz8b5LOhcK1BhD2c5YtgOZQEW03IJEAxjCYw7SrgGRMIiI+sREa+ivkwaJOHSD1e1Hijhru4Cx52QE6W4MG2mFfJch0HHjQZlMaN6qNdMrJdQpJ2LlbeuiSuNeFtheIO+aoPRdcNu2NKEUYmURByUo7hKXAKcM/Qu6SsjR28WTbSdzLQEoc8Fd0zcUkWbfRjh4wK7avQIdTkkkWwKCo4LlNsQ5SCoYAOcoCcdC9rdo/8QSf7QyX7+ntbtH/AIgk/wBoZL9/QZ9d2it0TZtQDhZ7V0a4NRbbnWwqKNxFywZjHioqbcbpwxRXECmwboO0B3BnpmNKL6cBdhWlvgISeqsLcrUAcoF4kegMeKy/p9MCgt3RwcdvQo5DN49rdo/8QSf7QyX7+ntbtH/iCT/aGS/f0FEirG1Kjdbm7iFta4o22yT7yXe9oOoWRt8SrJKgdwyMYAl2zxQxy7iYBuUTLAG4ogY3405sHUq3dYERaW7c8VabJ7LOl0Jp5CycQmDowqCeIckAJZM6iwgcybkCpFKdUhQwVKr97W7R/wCIJP8AaGS/f09rdo/8QSf7QyX7+gzyAsDUewrY0zuE9gP7keWgWabv7cYPWJXOXqhuE5SO4XSbmEhQ2mAVgHYsfACIbakNPdHLst6Q0iVm4JmZO1WU8o9BNZNROLVeCUyCCecCbYUx0gMmXaAFHwKIZuftbtH/AIgk/wBoZL9/T2t2j/xBJ/tDJfv6DLFdL9Q7d0qsNoxs68SXFbwSaBl7PloUJFkRwsY3DFCUEY9wgoTbv3GE5BKnsKIiYS7xpdGXFC6c23EXahHoTDOMboPEo9AiLdNQpAASkTT7hQDABgncyA7cBiq17W7R/wCIJP8AaGS/f09rdo/8QSf7QyX7+g02lZl7W7R/4gk/2hkv39Pa3aP/ABBJ/tDJfv6DTa4IGHa29Bx0AyUVO3jGiLNEyogJzETIBCiYQAAEcAGcAH5qoPtbtH/iCT/aGS/f1dbNh3Nu2hB2+9USO4jI1szVMkIiQx00ikMJREAEQyA4yAfmoJilKUClKUClKUClKUClKUClKUClKUClKUClKUHBHQ7WMeSj1uoqZSWdleLgcQECnBBJEALgOgbUSD1z1EeuMAHfUPBw7mMlLherqJGJLyRHiIEEREpAZtkRA2Q6DuRMPTPQQ65yATFApSlApSlApSlApSlApSlAqHu9xLtLdduIIqpnxeHwgSS4hupygbBcDnu59VTFRdyzXm7COZjluY5fZ7nv2btxwL44HHjnwoJSlKUClKUClKUClKUCoe5HEu37L7JKqPFkkE3XDS34bjnfnoO0PDr0x8NTFRc7Ndi9n/c3G59+ky9Pbs3573gOcY8On56CUpSlApSlApSlApSlApSlBxzKjtGHfKx4GF0RsqZACF3G4gFHbgOuRzjpSGUdrQ7FWQAwOjtkjLgcu03EEobsh0wOc9K/Uo97NjHcjwuJyqCi+zdjdtKI4z6s4pFve0oxpI8Lh80gmvs3Z27igOM+vGaDqpSlApSlApSlApSlApSlAqHttxLuO1O1iqhwpJdNrxEtmW4Y2Y6BuDx69c/DUxUXBTXbXaH3NweQfqsvT3b9mO94BjOfDr+eglKUpQKUpQKUpQK45lR2jDvlY8DC6I2VMgBC7jcQCjtwHXI5x0rsrllHvZsY7keFxOVQUX2bsbtpRHGfVnFB+YZR2tDsVZADA6O2SMuBy7TcQShuyHTA5z0r8oTsG6l3dvtZlitKMEkl3bFNwQzhumpu4Z1EwHcQptptoiAAO0ceA1+W8w3PApXA8ErZAzMrxXcbIJE2bxyPToAZ6/NXlKybwuuK1FtvV6d0ovaGj70l3bKTnH7qK7OUYPzJlivcknyjoBJwWiZd6BNvHV3AURoPXtK8vpal6moz1x3WfVIHTSE1PTs9tapY1oVFdkuo3T2KKAkLgXBAWOqQxFCl2Ewch+pqJal6moz1x3WfVIHTSE1PTs9tapY1oVFdkuo3T2KKAkLgXBAWOqQxFCl2Ewch+pqD1BSvOzzUPUiIs7VvUQ95Luht2dewcTHLMWoMY5AiqJQdqCRMFlTJgqcxtym0SEABLnJh+g3Hq3Ao6k2ZD6gvrukbJZxU6xln7FiV25BTiKuI5UrVBNARMk3wQxUiHAHBeoiAHEPQtK843NrVejrSqd1YsWQdS8Pcc/GRVrDGoMeIgwVURbqu0TujpoKKHVOsKZl1OEA8LICXIGunk+XXfk+xuWFv5GYB1b8qVo3UnXMKeWOidukrh4nDrKNk1AMc20AKkJkxTESddxg1qlYrJ3Dd83qZdedWBseGsNeMTBkuzYqMpNJwmVQ6zs65OMBTCYyKfAXRwZMRNv8ARqEW1E1HhLJ1n1PNcbyZPaD+YYQsFybMjVEjYpTpqGNtIqocNw5E65SbADIAOTiHoWleZrN1d1FtiD1BV1GeXO1Z2/bKVwNH90BbbmUROcFgMINIV1sO29zIKYqgmIiChRVMAZLRpi7dSbo0j15sS77rvQh4a0Wsg3VuFO3hlm4uEnIqJH7KTMzBI5USGKUQMqBVBETAIl2h7HTl4laUXhEZNoeRaopuF2ZViiukkoJgIcxM7ilMJDgAiGBEpseA1115rl73uXTl7qLIx6qEs+tfTOGkG7t5HtyrrLgZ6AquFEE0zHIGwDimGClwfYUomHPLdWoWqOn9t6sQLHVBzcz+3bLaXLEz0hHMRXYu3HMF4J02yKSCiQcAihAMQD7TiBjHDAgHp6lZBpXKX1G6pXVp9dd/P7taNIWKm2rmQYs267dVydyRVEnKIpFFEOAUSAcp1AybcofpjX6BSlKBSlKBUPZriXd2hBu7gKqWUWjWqj0FUuEcHApFFTcTAbR3COQwGPDAVMVF2vNeclsxFxcty/arBu94O/fw+KmU+3dgM43YzgM48AoJSlKUClKUClKUClKUClKUClKUClKUClKUClKUEPBOJdaUuJOSKqDdvJETjxOlsAW4s2xh2jgN4cUy3Xr1yGe7gJiouImu1ZCbY8twux35GW7fu4u5qgvuxgNvv+3HX0c564CUoFKUoFKUoFKUoFKUoFKUoFcE45iGkWu4nSpGYk28UFUuIXqYALkuBz3hD1V31wTkO1n4teJeKKkRX27jJiAGDaYDBgRAQ8QD1UHfSlKBSlKBSlKBSlKBXBKuYhtyfaxUh4rtNNtvS34cDnYIdB2j497pj4a764JWHazHJ80oqXknabxPYIBk5M4AcgPTr/vQd9KUoFKUoFKUoFKUoFKUoOd+o0RYuVpACi1Ikcy4GLuLwwAd2Q65DGelGCjRZi2WjwKDU6RDIAUu0vDEA24DpgMY6Ufs0pFi5j1zGKm5SOicSjgwFMAgOM+vrRgzSjmLaPQMYybZIiJBMOTCUoAAZx6+lB0UpSgUpSgUpSgUpSgUpSgVwRTmIc852SVIOE7UTc7EtmXAY3iPQNw+He65+Gu+uCKh2sPznKqKm512o8U3iA4OfGQDAB06f70HfSlKBSlKBSlKBXO/UaIsXK0gBRakSOZcDF3F4YAO7IdchjPSuiud+zSkWLmPXMYqblI6JxKODAUwCA4z6+tBUYyTmLqgYKPmtL25Ie4GjpKWarvG66DFuBBBEh08YXIsXAbShgoDgwV/UzS9yRcFB3VpK0LHSQLhKs3Ttq6QjAQHc2yTAlW3iUghsDuDjPhVtYM0o5i2j0DGMm2SIiQTDkwlKAAGcevpXRQYnptpYSCupC+7h0ihlbluCZmJNxMrEZnfW4irjhtiLhuUWKpt/wD0zFAN47ih1pptpYSCupC+7h0ihlbluCZmJNxMrEZnfW4irjhtiLhuUWKpt/8A0zFAN47ih1rbKUFKgjTBkI9q60maRKNxqvl7hTI8anK1UwIFOqBAw5MuAAAiGRDPe8K4NOoNKyoaCty1dDIWyomRUeKyjCIOzQbxhw97MKaBSlWFbAZEgZLnveFaJSgokU0ePbcg7OlNG46PgJJs7ZSsULhoqzjG5AEEkhRKGxYiodNpAwUB7wV8tPIs1mQtu21a+icTZcQ6O9UkI+JVZoNogwCIpmBJApSqisPURIHdEe9WgUoM3VtpleNxWbd97aCQKs6zF0Paj7knju3RIIijwVhKJx4o4H3IQ2iPeqVt1ecSJGJqaVNoYk+u9czxUnrYwM1v4iigED7pMtguTFyIfxvCrnSgzCxLLg7YiWcBBeTxbVpRl0meHuVlGpsEkEDAUSpiumiQCuhWLgoiADtAcGr9WXZ0PAxcRCRfk925a8dMtXTCaZsSMSIMGyYqCiiciRAK4TVFQ47ChgoqGyHUc6bSgz+zokYVG320dolEWyi8ZKRsimyVZlLEtG2/lG+EigCqRtxtpCd1PePQMjXBZ1mQsLb7C0o/yebatmDuQ71S4oxkmwK0amAMEMsikQCOhWACgIgA7em7wrT6UFMg151SSiJl3pU2ipCZRWbTTsr1sdZgigJxbJnOQNzgpxMYSlKOE95s+I12RNwXo87B7T0/PH9oc12pmUQV7L4eeDnb79xcB6Ho561Z6UFYibgvR52D2np+eP7Q5rtTMogr2Xw88HO337i4D0PRz1pE3BejzsHtPT88f2hzXamZRBXsvh54Odvv3FwHoejnrVnpQViJuC9HnYPaen54/tDmu1MyiCvZfDzwc7ffuLgPQ9HPWsU8qR3JSGjrK7LvmJrSdzDC7k/OFhcQZg3aZTEbEURSMASAOQNw+EUBEAVEAwI16SquXhpzYWoRosb6s6InwhHfPMCyLQjgrdfYYm8pTgIZwYfEB6gU3iUogHhnyMPK78tLVJaPjbp0SNeluqKkSVurYWH4RBPtOoZQwA3cCQOvDTKU4/COQr31AuYh5BxzyAKkWLXaIqMgSS4RAbmIApgUmA2htEMFwGPDAV2pppoplSSIUhCABSlKGAKAeAAHqCuKBh2tvQcdAMlFTt4xoizRMqICcxEyAQomEAABHABnAB+ag76UpQKUpQKUpQKUpQKUpQKUpQKUpQKUpQKUpQcEc5iF3kolGlSBw3dlTkBIlsEXAoJGATDgN48IyPe69MBnu4DvrgjodrGPJR63UVMpLOyvFwOICBTggkiAFwHQNqJB656iPXGADvoFKUoFKUoFKUoFKUoFKUoFQ93Q7mft53EM1EiLL8PaZURAobTlMOcAI+AD6qmKh7vcS7S3XbiCKqZ8Xh8IEkuIbqcoGwXA57ufVQTFKUoFKUoFKUoFKUoFQ9xw7mY7L5ZRIvIySDxTiCIZITOQDAD16/71MVD3I4l2/ZfZJVR4skgm64aW/Dcc789B2h4demPhoJilKUClKUClKUClKUClKUHHMs1ZGHfR6JilUdNlUSCYcFAxiiAZx6utIZmrHQ7GPWMUyjVskicSjkomKUAHGfV0pMqO0Yd8rHgYXRGypkAIXcbiAUduA65HOOlIZR2tDsVZADA6O2SMuBy7TcQShuyHTA5z0oOylKUClKUClKUClKUClKUCoe3IdzD9qcyokbnpJd4nwxEcEPjADkA69P8AepiqRIajW/YUPL3BqndUdb0c3k10mzmVWTaEMiGNhSCbHEEeuMZEw9AzQXes91JvS62Nw2/pzp6EQlcdyJunYPpZBVw0jmbYCcVc6CR0zrmE6qSZUwVS6nEwnwXA1bRzyq7H1+vKRg9JrfuCatyHSMD67DNSto0rruim2TBUxVVTmKJzDgncwTPQ+QtOpNl3W+uG39RtPRiFbjttN00BjLLqt2kizcgTioHXSIodAwHSSUKoCSvUglEmDZAOm37ou62bcm3+tRoVmSAOJxnI4hkGUi22AbjEbGVWVbmARFMUjHUETFASmNuAA5m2vulS9nS19r3A8j4mBXTbSoScM+YO2KigkBMFmjhEjhMDcQglEyYAJTAYBEvWoed0+1Q1D0/uGMvqchWEvKOWj2LjI8x3MfFHaqJqppGcmSSWdFUVS3KHMmTBT7Sk7oievSOjept6Qt6TF2BbETcl2vITZHx0i4eMWjWPXIoGXSjdJRRQ/uo+8EKGSF64E4hJ395TFpw2kl36g2eWUdvrY2NlGL62ZVJw2cq7eEddkZAjngiBgPvAoEMUBwcPEOuI1kC3xl19TbvgeQhYSFfuV2kBJR7hNZ6osTeq1X4hkkzmImBE951CCCnEx0rlvrRi6LnS1ZTYP4pMb7axaMdxlVA4RmyW0/GwQdoCPht3fPivjqDoldd2Tl6ycdIRKaVxsrabNQXVUAxDR71VdYVMJiAAYpwAmM5HOdodaCxznlFaU22gzVm5OdaKvowZpNme15UXibEFOGZdVsDYVkSEN6YqELsAQMbaUQGu2E1RsTVLt60rNm1XEg3jwVEHMc6aprN1ynKk5QUWSKVy3MJRwsgKiY46GqOvbTCfuS85+4mLuPTbStiOrYRKqocDldKqmOU5gAggCeDBkQETZ/ijXFbWml1WhNJ3PzbJUWGnzK2yEbCdRUz5sY5xMUpiABiDuDbnqI+JQoJ+e1OsfSprCW7eMuum+VY7wTYxrt8KaCBSlVcrcukcUG5REAFZXYmAiACYB6V3Rmq9gTCTZeOn+MR3b5bpRHlVy7ow3gv1IGP/AOQe/wD0aoV/WpqWg9LqZZbeBfP5C0+w5trOO1mXLJhuWB0jwUFOKoUx1QMgYEwPkuFU9o7qRYmnupEpp7pxdlgJW06RldLm1rSRJh+u1M0Iokmom5RBJBUFxAROBkjClnu4UDrQbAhqowd3MkZjJtHlvL2kW5kUWsa+XlFiGVACqkSImIHTEggAJFAVhP8AxcV26fawWRqc+loy1huBN5B8Hn20xbMnDqo8UomT7j5uiJtwFEe6A9PzhVGi9KdULQTYTVpubZXnYfTZC1WRHzlcjU0omcpiqKCRITcvkPEA3j4bQ8asGhluaj2nDu4e/rStmOVUU5xWSjLpcTDqVeqCIrrueLHtATEcF2gXcAFwQpSFIUKCavnWLT7TmQbRl2SzxFw4TBc4NIl4+I0b7tvMOjt0jlaIbshxlxTTDabvd02PqjqxYji8H1jN5ZyrKxiHMvxJGujNGaXCKqUyzsE+XS3EOBi71A34PtyJDAFYuuztUYfUeQv/AEtbWq/VuKJaRD8lwP3DYsfyyixk3KRUUFRc9HB9yAnQyJC4VDcIl+oaRyUm41Ubzsq3Iz1CboNUlWYnBVAoMAbKGMUcAUd2TFADm6YyIDQTlmayaeX6EgNvTDsvZqAO1u0op3G72o52ukubST47cdo4XS3JDjoYagjeUbp28te6rit8J58rasQeZVYubck2S7tuBTimq3Is2KdwkcSCAKolUJ68jVI0t0D1AtRWakJBdnES3m4rAxMoF83Bcy3EPgeZAkmcEmRNxEzcBMio5D37BcG4dL/J21KhFrje3k/jUV7isgLZUzdsvci5XgHVEXAu5EpVBSOCoGBIpSgmIGAN+7cAaYlr/YjexrWvWdJNshutgR+1jG8BIvX5SbCmVMZqi3FwVJPeUDKmSKQNxBEQAxcyN1606eWjFw8o9mnDxK4kTOIrsmMdyhnCAEA4uBK0TUMRuUDEEy5gKmXeXcYNwZyW7dAdSJ6CsCZKzj1Llte3D26/imOos7b7JQo8HC5JCORIspgUAyko32m4npFEgCawt9HL+sVKxJTTtvaz+Qtu21rXfx8lIvmzTgLGRUFduuoV44ExDo+gqJhUKbvKFEoDQX3RO+X2pmklpagyRWRXVwxLeQVBkAg3yoUDe57jGHb16ZMP56u1UvRizZnTzSi1LHuJ2xdSkJFoMna7Epit1FSFwYyYGABAoj4APgHSrpQKUpQKUpQKUpQKUpQKh7Nh3Nu2hB2+9USO4jI1szVMkIiQx00ikMJREAEQyA4yAfmqYqHs1xLu7Qg3dwFVLKLRrVR6CqXCODgUiipuJgNo7hHIYDHhgKCYpSlApSlApSlApSlApSlApSlApSlApSlApSlBDwcO5jJS4Xq6iRiS8kR4iBBERKQGbZEQNkOg7kTD0z0EOucgExUPBOJdaUuJOSKqDdvJETjxOlsAW4s2xh2jgN4cUy3Xr1yGe7gJigUpSgUpSgUpSgUpSgUpSgVF3LNebsI5mOW5jl9nue/Zu3HAvjgceOfCpSuCccxDSLXcTpUjMSbeKCqXEL1MAFyXA57wh6qDvpSlApSlApSlApSlAqLnZrsXs/7m43Pv0mXp7dm/Pe8BzjHh0/PUpXBKuYhtyfaxUh4rtNNtvS34cDnYIdB2j497pj4aDvpX4VVSQSOuuoVNNMonOc4gBSlAMiIiPgFVux9UNM9TW7p3ptqJbF2IMTlTdKwcu3fkQOYMlKcUTmAoiACIAOKCz0r8nORIhlFDlIQgCYxjDgAAPERGueMk42aj20vDSDZ+xeJFWbumyxVUlkzBkpyHKIgYoh1AQHA0HVSlch5eKTlUoNSTaFkl0DukmZliguoiQxSnUKnncJCmOQBMAYATFAfEKDrpSlApSuSSl4qGRScTEm0YpLLpNUjuVipFOsoYCJplEwgAnMYQKUodREQAOtB/ZR72bGO5HhcTlUFF9m7G7aURxn1ZxSLe9pRjSR4XD5pBNfZuzt3FAcZ9eM1+n6jRFi5WkAKLUiRzLgYu4vDAB3ZDrkMZ6UYKNFmLZaPAoNTpEMgBS7S8MQDbgOmAxjpQdFKUoFKUoFKUoFKUoFKUoFecNb/JC0T8rJzITd7xcrF3DGLHiEJeNkTgpwkRyUBSOBkRLk4iIbN3jgwV6PrginMQ55zskqQcJ2om52JbMuAxvEegbh8O91z8NB5c8mTyT798n6VktP7hkLevXT99EO2DKWEVmEoxRVV4irI7cu5NVNQ6hjgcFAMUSn6gAkJXov2NLI+IU/wF5te/Kfg3+Q9Lw/pel89WelBWPY0sj4hT/AXm178p+Df5D0vD+l6Xz09jSyPiFP8AAXm178p+Df5D0vD+l6Xz1Z6UFY9jSyPiFP8AAXm178p+Df5D0vD+l6Xz09jSyPiFP8BebXvyn4N/kPS8P6XpfPVnpQVj2NLI+IU/wF5te/Kfg3+Q9Lw/pel89cspYVkRsY7kfN1NTlbbUgNnHUDdGlKI8tnd0Acel6Xz1ca536jRFi5WkAKLUiRzLgYu4vDAB3ZDrkMZ6UFWi7CsiSjGkj5upp81bacBs46g7Y0xQHls7uoBn0vS+eur2NLI+IU/wF5te/Kfg3+Q9Lw/pel89T7BRosxbLR4FBqdIhkAKXaXhiAbcB0wGMdK6KCsexpZHxCn+AvNr35T8G/yHpeH9L0vnp7GlkfEKf4C82vflPwb/Iel4f0vS+erPSgrHsaWR8Qp/gLza9+U/Bv8h6Xh/S9L56expZHxCn+AvNr35T8G/wAh6Xh/S9L56s9KCsexpZHxCn+AvNr35T8G/wAh6Xh/S9L56expZHxCn+AvNr35T8G/yHpeH9L0vnqz0oKx7GlkfEKf4C82vflPwb/Iel4f0vS+ensaWR8Qp/gLza9+U/Bv8h6Xh/S9L56s9KCsexpZHxCn+AvNr35T8G/yHpeH9L0vnp7GlkfEKf4C82vflPwb/Iel4f0vS+erPSgrHsaWR8Qp/gLza9+U/Bv8h6Xh/S9L56expZHxCn+AvNr35T8G/wAh6Xh/S9L56s9KCsexpZHxCn+AvNr35T8G/wAh6Xh/S9L56expZHxCn+AvNr35T8G/yHpeH9L0vnqz0oKx7GlkfEKf4C82vflPwb/Iel4f0vS+ensaWR8Qp/gLza9+U/Bv8h6Xh/S9L56s9KCsexpZHxCn+AvNr35T8G/yHpeH9L0vnp7GlkfEKf4C82vflPwb/Iel4f0vS+erPSgrHsaWR8Qp/gLza9+U/Bv8h6Xh/S9L56k7XmvOS2Yi4uW5ftVg3e8Hfv4fFTKfbuwGcbsZwGceAVKVwQLmIeQcc8gCpFi12iKjIEkuEQG5iAKYFJgNobRDBcBjwwFB30pSgUpSgUpSgUpSgUpSgUpSgUpSgUpSgUpSgi4ia7VkJtjy3C7HfkZbt+7i7mqC+7GA2+/7cdfRznrgJSuCOcxC7yUSjSpA4buypyAkS2CLgUEjAJhwG8eEZHvdemAz3cB30ClKUClKUClKUClKUClKUCuCch2s/FrxLxRUiK+3cZMQAwbTAYMCICHiAequ+oe7odzP287iGaiRFl+HtMqIgUNpymHOAEfAB9VBMUpSgUpSgUpSgUpSgVwSsO1mOT5pRUvJO03iewQDJyZwA5AenX/eu+qtqIzuJxDNHlrRCEpIxsg3ekZLOwbFXKUwgYvEEpgKODZ6h6qCM11Y2pK6RXTEXvcBoKEkI87N3JglxCsyqiBCqnLgQEhTGKJt3c253CBciGfQMrfVvaqxtu6lsrQnJxzbckpbtz2uVyxOLJLljKouo1VRYpC8QUxIqVdUoj0AiW4d1tVvDXJdI6C+g0QomoUSHIe70hKYohgQEBbdQqs2PA3Ppim7R028kSwrTTfmKZ0SDmWbAFxLnaKgItC7hDI4znGRoIeyNXLruZLSWPlLnQdKXbp7LTUwkVJApnTpErMoK4KUBIBTLKgIE2lybAh0DEB5M0/eNvQWj0WvqSFxRd5WkuoaFFq1KlEAzQS2KtVEUyrCTJuErzCiuVDl2CmHcG7W9b9zWk/dytqeSFYMK9kFVlnbmPmWbZVworjinUOm0ATmPgNwiIibAZzX0tmHu2ypJ7MWb5JNiwL+SRSbvHUZNs2qzlJIoFSIodNoBjlIUAAoCIgUAwGKCh2Zcmtl1o2AL3XOZajf8HLOnQtYWJAY5RmYhkjtN7U4AcwG2qcYFiGDIkIkIgIGN53ZqHAWm6mZdFtJ3Fo3NP3cmzjWgOiOdzMBUSOokfYA7jCKfVMRwIlHaXGmNHOpkeDAGHky2q2CKSUQYcG5G5OUTUxxCJYa+5lNgNwFwA4DNfxitqVGcn2b5MdqNOz2Z45pwLjbJ8u0MJRMgntahsTESEESBgo7S9OgUFj8nxk5j9DLBau5Z3JKlt1gIuXRUiqGAUCCACCRCEwACBQwUBwAZyORHINHtS9TZE2nNz3FqkFylvmYmIV5CBGtEEGaTUXRiOETIpAtxU+AmmqJ1DJm4mSkTHGdCt6S1VtKIQgLV8my2oaLa7uAyj7nQbN0txhMbamm1ApcmERHAdRERqlaSWFqBpPHoLMPJts9xcnAUbPLiRmmrZ88RMsZQqaioNjKGKXcAAUTiHdAengAf2Fv7U5LQWPvyR1BeOpa7p1lEA7Vj2REINBaS5QVkSERDccCCA5WFUvEEo7QJklc0rel3toWXtSauNO6j2pqdbkIhNSUYyOu6RXWZKnBUiaJW4LpiuYgKJJpmLtKIAU4bhvIutTht5W0h8ma1hgl0lEFYzzlb8ookoIichkeV2CUwmNkBDA5HPjVMuGzNXXMLatm2ToDZdpWpb821mF4mPlkUyq8usC6SbfhJppt8rFKY5hTU3BuAAKI7gCJltVNXpbU2ZQTYXQjbbW7SWes2UcW02guUU4ZDKGUXcllBemKrxUwKXhmymUqRwHeN5sqVuqTumVlnurprfiLbuYbSQth2zYi0coppplTE6pkyuecW3goQSL8PaYgcEw5Eeaft6856eVvVz5KFjHu3klGLe4FZtoeQQTMQxQKVwLTigUAObugbGBH4a/UfBXs2no29XXkp2Q4u2NYJx6dwGnGgyBUik27CuBacUpMCbugbGDD8NB3eSnESETZ92A/uiTmRWvq4zEF8m2IKIBIKlEpOAinkDCAnHduHcYcCBcFDa6x6Ie6oW+8k5CB8mi1411Nuedk12dyt0VHzjaBeKsYjUBVPtAA3GyOAAM1Kee2u3yFxf7Yp/ZqDTaVmXntrt8hcX+2Kf2anntrt8hcX+2Kf2ag02lZl57a7fIXF/tin9mp57a7fIXF/tin9moNNpWZee2u3yFxf7Yp/Zqee2u3yFxf7Yp/ZqDTaVmXntrt8hcX+2Kf2anntrt8hcX+2Kf2ag02uCKh2sPznKqKm512o8U3iA4OfGQDAB06f71QfPbXb5C4v9sU/s1RUBOa9Q3aW/RKJV56QWehi70w2gfHd+9+uMUGxUrMvPbXb5C4v9sU/s1PPbXb5C4v9sU/s1BptKzLz212+QuL/bFP7NTz212+QuL/AGxT+zUGm0rMvPbXb5C4v9sU/s1PPbXb5C4v9sU/s1Bptc79mlIsXMeuYxU3KR0TiUcGApgEBxn19azrz212+QuL/bFP7NXJLXTrxJRTyOLodFEM6bqIgYbwTECiYohn73+eg1BgzSjmLaPQMYybZIiJBMOTCUoAAZx6+ldFZPE3TrxGxTOONodFHM1bpoiYLwTADCUoBn73+auvz212+QuL/bFP7NQabSsy89tdvkLi/wBsU/s1PPbXb5C4v9sU/s1BptKzLz212+QuL/bFP7NTz212+QuL/bFP7NQabSsy89tdvkLi/wBsU/s1PPbXb5C4v9sU/s1BptKzLz212+QuL/bFP7NTz212+QuL/bFP7NQabSsy89tdvkLi/wBsU/s1PPbXb5C4v9sU/s1BptKzLz212+QuL/bFP7NTz212+QuL/bFP7NQabSsy89tdvkLi/wBsU/s1PPbXb5C4v9sU/s1BptKzLz212+QuL/bFP7NTz212+QuL/bFP7NQabSsy89tdvkLi/wBsU/s1Yn5Xc9qE60fe3FeNuqadntxTtCKuKLv4yS7N9sMmTaimiXmROBzp8LqJiqGAolEcgHrmuCBh2tvQcdAMlFTt4xoizRMqICcxEyAQomEAABHABnAB+avAnkWeU/5dGo60c2u3SALztFZRMqlzOikh1U0DGABVIqIAk62F67CJ7zDjJgyIh7ys2Hc27aEHb71RI7iMjWzNUyQiJDHTSKQwlEQARDIDjIB+agmKUpQKUpQKUpQKUpQKUpQKUpQKUpQKUpQKUpQcEdDtYx5KPW6iplJZ2V4uBxAQKcEEkQAuA6BtRIPXPUR64wAd9Q8HDuYyUuF6uokYkvJEeIgQRESkBm2REDZDoO5Ew9M9BDrnIBMUClKUClKUClKUClKUClKUCoe73Eu0t124giqmfF4fCBJLiG6nKBsFwOe7n1VMVF3LNebsI5mOW5jl9nue/Zu3HAvjgceOfCglKUpQKUpQKUpQKUpQKh7kcS7fsvskqo8WSQTdcNLfhuOd+eg7Q8OvTHw1MVFzs12L2f8Ac3G59+ky9Pbs3573gOcY8On56CUpSlApSlApSlApSlApSlBxzKjtGHfKx4GF0RsqZACF3G4gFHbgOuRzjpSGUdrQ7FWQAwOjtkjLgcu03EEobsh0wOc9K/Uo97NjHcjwuJyqCi+zdjdtKI4z6s4pFve0oxpI8Lh80gmvs3Z27igOM+vGaDqpSsL1F1iuuN1hT0thb907spYWDV1HJXazVcOLnWXOoUUGO142AgpikBTCAODZWKIkKABxA3SlUqZ1Si7LtaGnNQouUipKVTIUYaMj3M28I44e9VMiTBJVRYpMDuUITaABkcANdUPqlYc+pCJRVwEWG4otaZjBFBUgLtEhTBU+TFACGIKqe4hsHDI5L0HAWulUCU110yibdhLoVmJF2yuNEzmMJGwb9+5cNygAmXBs3ROsVEoGKJlTEAhd5MmDcGbrFSkbORjSahnyD1g+RI5bOUDgdNZI5QMU5TB0EBAQEBoOqlZ5Zmv+k2oMyhBWlcyzxw7Bxyqp4t4g1dHbnEi6SLlVIqKqqZim3pEOKhMCJigHWumG1u0znomen4y4FjRNsnXSkpFWNdItE1EVTpKpkWUTKmsciiRyGIkYxgMAAIZMXIXqlZdJa427L2DKXZY00g1cRUgzYO0rlhpJio0OsskXauzURI6TE6aoCmIpgURMU2dmRqcuXWTTy0bnb2hOzDtKQX4PEOjFO3DVnxjbUebdJJGQacQ3QnHUT3D6OaC61D224l3HanaxVQ4Ukum14iWzLcMbMdA3B49eufhqCurWTTuy7jb2rcMy6RfrESUVMhFu3LZkRU4kSO8copGRZlOYBAhnB0wMJR2iOBqL0x1qY6lXvqFZCFuyMevYMuSLO4XauSovAMkU/EIooiRPOTGDYU5x2gU/onLkNJpSlApSlApSlArjmVHaMO+VjwMLojZUyAELuNxAKO3AdcjnHSuyuWUe9mxjuR4XE5VBRfZuxu2lEcZ9WcUH5hlHa0OxVkAMDo7ZIy4HLtNxBKG7IdMDnPSuyuWLe9pRjSR4XD5pBNfZuzt3FAcZ9eM11UClKUClKUClKUClKUClKUClKUClKUClKUCoG6LBsi91ote8bSiJs8K652PGQZpr8svtEvEJvAcDgf8A9wAfEAEJ6lB/AAADABgAqIs1xLu7Qg3dwFVLKLRrVR6CqXCODgUiipuJgNo7hHIYDHhgKmKi7XmvOS2Yi4uW5ftVg3e8Hfv4fFTKfbuwGcbsZwGceAUEpSlKBSlKBSlKBSlKBSlKBSlKBSlKBSlKBSlKCHgnEutKXEnJFVBu3kiJx4nS2ALcWbYw7RwG8OKZbr165DPdwExUXETXashNseW4XY78jLdv3cXc1QX3YwG33/bjr6Oc9cBKUClKUClKUClKUClKUClKUCuCccxDSLXcTpUjMSbeKCqXEL1MAFyXA57wh6q764JyHaz8WvEvFFSIr7dxkxADBtMBgwIgIeIB6qDvpSlApSlApSlApSlArglXMQ25PtYqQ8V2mm23pb8OBzsEOg7R8e90x8Nd9cErDtZjk+aUVLyTtN4nsEAycmcAOQHp1/3oO+lKUClKUClKUClKUClKUHO/UaIsXK0gBRakSOZcDF3F4YAO7IdchjPSs81J8ojQzRWDQktQNQoaDQUbkVashPudqpCAbRTakAVRLjAZAmAyGcVob9mlIsXMeuYxU3KR0TiUcGApgEBxn19a8r62/wDDX8nvWE7mbZpSlrXK5EyqsqwcCqVysPiougpkhsiIiPD4YiPrx0oNh0J1vLr1CPbzhLCnoO1xUISFkZgE0lJcveBRVNApjGIkUQKBTGHv7ugBgQrm1OtXVS4HUpBNbT081AsufRTItDXc6UZFjjkAAHBU2Toj1MwgCm1QEjEMUQA5gMHDzjQHyQmFlW45szWezbDurskyacNcTJodF0/aiBgErtuYu1NUm0oAYhzgcpgz3imE2pe1m0B+Sa3fooUFNubQvUlCxtNrIti6zyzO1CC1mkj3TK22L4vB2JrFXYcRY4JGztaqG4ZyiAGOAkKavmTyer6baHWFYkbckKwu60DA1UlUCLcuZksB0HpUQH3QpjN1TGTAwiBVSJbhMBcjdvazaA/JNbv0UKe1m0B+Sa3fooUFW1o0GmrmlbZuKwG/GUt6IcQRYob5mbVSFuoZIxFAdRQGUNsFEA4R0xKYDZ3EEoZ1DTK0PMHT637MEGwGh49FoYGp3B0QMUve2GcqqrCXOcCooc2PEarHtZtAfkmt36KFPazaA/JNbv0UKDKfJ2srUK57Y06fzSVttLVtOSlJlk6auVVJF8uoo7QIiogZEqaBCAuoIqFWUMoJS90mRq+ttEZ82h0lpo7lmCUqtNPZpoumJ1G3ENKnfNyKZKUwlH3MqgAA+JsbumZn2s2gPyTW79FCntZtAfkmt36KFBlWp9v3TF2ldF06mLWzFXPf83bcXGwkTKndoiDV2lsTSXXRQO4WOBllBKVEu0pcd7aJhk9UfJtuS7NRZqeh00JCIu0zM0kD2/LgikmIokIkf+DI85W8iU6ZCjhVREQHICYxcAGhe1m0B+Sa3fooU9rNoD8k1u/RQoOR/Zuq1tajTdyacIWm8jrvIwCRXm3zlJeKUbEFLeigkicHhTJiA8My7faYojuNvHb16aWxKQmpGpM2iEQtBXHKNniSyCypHST1Jqk3XRVQMiBNvuRTgqVUwmE4gJQ25M9rNoD8k1u/RQrlY+Sv5P7HmNul8ItzC51x4rco7BNjulxjBQx0D/8AzQavSsy9rNoD8k1u/RQp7WbQH5Jrd+ihQabSsy9rNoD8k1u/RQp7WbQH5Jrd+ihQabSsy9rNoD8k1u/RQp7WbQH5Jrd+ihQabXO/UaIsXK0gBRakSOZcDF3F4YAO7IdchjPSs69rNoD8k1u/RQr5OvJe0AdNlmw6VwKYLJmTE6bYAMXIYyAj6woNKYKNFmLZaPAoNTpEMgBS7S8MQDbgOmAxjpXRWWtfJe0AatkWwaVwKgIplTA6jYBMbAYyIh6xr6+1m0B+Sa3fooUGm0rMvazaA/JNbv0UKe1m0B+Sa3fooUGm0rMvazaA/JNbv0UKe1m0B+Sa3fooUGm0rMvazaA/JNbv0UKe1m0B+Sa3fooUGm0rMvazaA/JNbv0UKe1m0B+Sa3fooUGm0rMvazaA/JNbv0UKe1m0B+Sa3fooUGm0rMvazaA/JNbv0UKe1m0B+Sa3fooUGm0rMvazaA/JNbv0UKe1m0B+Sa3fooUGm0rMvazaA/JNbv0UKe1m0B+Sa3fooUGm0rMvazaA/JNbv0UKe1m0B+Sa3fooUGm1wQLmIeQcc8gCpFi12iKjIEkuEQG5iAKYFJgNobRDBcBjwwFUH2s2gPyTW79FCr9Aw7W3oOOgGSip28Y0RZomVEBOYiZAIUTCAAAjgAzgA/NQd9KUoFKUoFKUoFKUoFKUoFKUoFKUoFKUoFKUoOCOcxC7yUSjSpA4buypyAkS2CLgUEjAJhwG8eEZHvdemAz3cB31wR0O1jHko9bqKmUlnZXi4HEBApwQSRAC4DoG1Eg9c9RHrjAB30ClKUClKUClKUClKUClKUCoe7odzP287iGaiRFl+HtMqIgUNpymHOAEfAB9VTFQ93uJdpbrtxBFVM+Lw+ECSXEN1OUDYLgc93PqoJilKUClKUClKUClKUCoe44dzMdl8sokXkZJB4pxBEMkJnIBgB69f8Aepioe5HEu37L7JKqPFkkE3XDS34bjnfnoO0PDr0x8NBMUpSgUpSgUpSgUpSgUpSg45lmrIw76PRMUqjpsqiQTDgoGMUQDOPV1pDM1Y6HYx6ximUatkkTiUclExSgA4z6ulJlR2jDvlY8DC6I2VMgBC7jcQCjtwHXI5x0pDKO1odirIAYHR2yRlwOXabiCUN2Q6YHOelBBv8AVLTKLvJppzJ6jWwzux+Up2sCvLt05FcpgMICm2McFTAIFMICBR9EfgGrRXnjTkumQ6B3ObVTldqc9JqXkJxUBwWTK+MJREUvdgWAAbcHZ7pt4PD/AItfDU/UjUGNmr3uODvh1BtNOlIgjS3jMmp0Z8rsEzGFyZZIzkBOKhkUuAqkIHTHcCg92g9HVXR1F0+C5FrMG+7eC4Gx0U1ooZRDnEzrFMZIpkd28BOUphKAh3gKIhnA1gM7ferrW5bru5DU54jF23qNEW00twsUx5NZi6KwKsVwqZEXJjgZ0qYhk1U8DgDAcAxUZayM5bV3yPMXW7nE5DW0WvDlI6OODcgsDHEUTJtiGIfqUu/ImApAABDJxMHrOleYYS8NXZPTewZ9TVmRLJX3dpItyr2TH7GLMBdlEjcnA9MQRIbeqKmDhkA2ZTH+WlemrbK5bTVmNVpGaZqX/KWO7ZOouPSTetEEXSibpUyKBDg6AyJAEUjJoiXpwQHJhD0/Ssf8oCW1JbHgYrTmYmUFHPNLvWlsrwoT6yaZSAVRslMALVVAhjhxgyU4b09pvEpqu11un5FCSlmt0gRh7FIXQ0O5jkmY8+U6xVHApHE4lwJSZTE5yB06iA5EN9Rl4pxJuYVvJtFZBmkms5aEWKZZFNQTAmc5AHcUpth9oiGB2mx4DXXXjR3ct7qXde9/xurqVsyENpbbFzukysmanaK5SPlBK6Ksmba1ObJTAgCKmTd1UuMVZr61J1gMe+rrhNQHEChaDe2njSELFNFkFlHqZBcIuTqpCsZPJ+gJnSOAh6eB2gHpp/LRcVy3akk1Z844I0b8wsVPjLnzsSJuENxxwOCh1HA1xW5DuYftTmVEjc9JLvE+GIjgh8YAcgHXp/vXnx3c98RV2q2TcN3nutOG1Kt9o0fS8VH8yRu6acY6fuKCaZRIcR2KFIVUoDjeI9R+emeqOqyd7y6eoFzSRmMwebC33a6EStaqpWvuiR2jpqJHyRSJgfii7Ico7TAQ4CXvB6UlJaLg2KspNSTWPZIbeK5dLFSSJkwFDccwgAZEQAMj4iAV114/cajals9OLthtRH8+8mlYmNmWhLgjYB/HLEF8mkqtHrx4cNVoInIKZHiJXAAJT5EehbjdupeojO57iupjeyzJpa17RFpo2nybQzaSbu+UA6yqhkhdccQdnOmKSxSAVIu5M3fyHo+leaI+99ViXG2ux1qY9cRq2p7mzgt80YxKy7PFRQhTGUBHmRWIJQEpwWKXAABiGHJh9L0ClKUCuOZZqyMO+j0TFKo6bKokEw4KBjFEAzj1da7K45lR2jDvlY8DC6I2VMgBC7jcQCjtwHXI5x0oEMzVjodjHrGKZRq2SROJRyUTFKADjPq6V2VxwyjtaHYqyAGB0dskZcDl2m4glDdkOmBznpXZQKUpQKUpQKUpQKUpQKUpQKUpQKUpQKUpQKUpQKh7Nh3Nu2hB2+9USO4jI1szVMkIiQx00ikMJREAEQyA4yAfmqYqHs1xLu7Qg3dwFVLKLRrVR6CqXCODgUiipuJgNo7hHIYDHhgKCYpSlApSlApSlApSlApSlApSlApSlApSlApSlBDwcO5jJS4Xq6iRiS8kR4iBBERKQGbZEQNkOg7kTD0z0EOucgExUPBOJdaUuJOSKqDdvJETjxOlsAW4s2xh2jgN4cUy3Xr1yGe7gJigUpSgUpSgUpSgUpSgUpSgVF3LNebsI5mOW5jl9nue/Zu3HAvjgceOfCpSuCccxDSLXcTpUjMSbeKCqXEL1MAFyXA57wh6qDvpSlApSlApSlApSlAqLnZrsXs/7m43Pv0mXp7dm/Pe8BzjHh0/PUpXBKuYhtyfaxUh4rtNNtvS34cDnYIdB2j497pj4aDvpSlApSlApSlApSlApSlByyj3s2MdyPC4nKoKL7N2N20ojjPqziq1BXFqDKx0NIOrIiGxX7gwvCknjqcszEuU1ifcwcU5shlMdgF/6zVZ36jRFi5WkAKLUiRzLgYu4vDAB3ZDrkMZ6UYKNFmLZaPAoNTpEMgBS7S8MQDbgOmAxjpQZypYbWZvKG1GuDQWwFbsbPDtjzyiyS8iwZEAwJKoOTNAVMYQMYOEBiAXcbBxz1+7201bluO3LxuzROyHk/EPlkkJVy6TdPIlpkRIu1WO037zD4plFMAz6Zq0elBQkYeYdlSJJ6SWkQsnNi8lgCQKqAcLZy77q1DjuPckuhtok2FwoO0K/rSJmlFmDh7pNaaCq06q/enJIlUM3MBdib8g8qAqOTFwUQHaJQ6cQwVfKUFDjomaTZwMerpNabRqwllVSoIyJTJxqQbuG7bl5UAFY282SBs27zd82RyYxEzvi1HOktpNjlnXD5wZKQKcWYmAwA/SHlQ3uFAOYDB3BADm90Nkc3ylBnN02mrqZGRkJqhonZFxR3aihnLSXdJyKLRAoCCTpMizQSqKiAiAkwTbke+avhI2K2us9sqXjoPYL88K9VQamdrJOxh2YABU1mgnadDmApQFIvDAoAHfNitNpQZY706jLidwMhdPk+6eOnTCRTKVdc6LlSMbNd3JuG5js8ioTcO1MNnD3DtONS4xM1KZ7c0mtM/bj7hTu+RKvvaI/e65tzUOYOGAwmbaBPUccVfKUFDSiZp48ZyMppNaZXbqYBxIL9olVURKgXa2eFMLUBVXAvdAo7RIHQDjUBYsA0RuiRvWG0GsWDuGQmXUZcEuxcJEerNSbRKuZcrQp3BjmxlI5gAMZ3mrW64IpzEOec7JKkHCdqJudiWzLgMbxHoG4fDvdc/DQZzbOmkPbrVZjEeTzpzBtrikzjcKMcZBMiyBDCZFyoUjMoOVRN12HxtEcgca7xtRaVu2Ev6c0Usg9ztHKzIZo7tNd/Hx/e2HQcGaAoYTbhyiBiAG4e+atGpQUNnEzRyRybvSa00CnnlpB2VORKcGpsiJH6f3KHEcmEREQ7glER90NUq0ltQ1OQ52y4hDjPlUnuydOpy7QPe1yfcwcQ5umUx2gX/rNVnpQVhpLahqchztlxCHGfKpPdk6dTl2ge9rk+5g4hzdMpjtAv8A1mo0ltQ1OQ52y4hDjPlUnuydOpy7QPe1yfcwcQ5umUx2gX/rNVnpQVhpLahqchztlxCHGfKpPdk6dTl2ge9rk+5g4hzdMpjtAv8A1mrlc3HqGxjCSLyxogvCXci9ISeObgtEyiKapB5YOIc2AymO0C59M1XGud+o0RYuVpACi1Ikcy4GLuLwwAd2Q65DGelBWIK4tQZWOhpB1ZEQ2K/cGF4Uk8dTlmYlymsT7mDinNkMpjsAv/WauhpLahqchztlxCHGfKpPdk6dTl2ge9rk+5g4hzdMpjtAv/Wap9go0WYtlo8Cg1OkQyAFLtLwxANuA6YDGOldFBWGktqGpyHO2XEIcZ8qk92Tp1OXaB72uT7mDiHN0ymO0C/9ZqNJbUNTkOdsuIQ4z5VJ7snTqcu0D3tcn3MHEObplMdoF/6zVZ6UFYaS2oanIc7ZcQhxnyqT3ZOnU5doHva5PuYOIc3TKY7QL/1mo0ltQ1OQ52y4hDjPlUnuydOpy7QPe1yfcwcQ5umUx2gX/rNVnpQVhpLahqchztlxCHGfKpPdk6dTl2ge9rk+5g4hzdMpjtAv/WajSW1DU5DnbLiEOM+VSe7J06nLtA97XJ9zBxDm6ZTHaBf+s1WelBWGktqGpyHO2XEIcZ8qk92Tp1OXaB72uT7mDiHN0ymO0C/9ZqNJbUNTkOdsuIQ4z5VJ7snTqcu0D3tcn3MHEObplMdoF/6zVZ6UFYaS2oanIc7ZcQhxnyqT3ZOnU5doHva5PuYOIc3TKY7QL/1mo0ltQ1OQ52y4hDjPlUnuydOpy7QPe1yfcwcQ5umUx2gX/rNVnpQVhpLahqchztlxCHGfKpPdk6dTl2ge9rk+5g4hzdMpjtAv/WajSW1DU5DnbLiEOM+VSe7J06nLtA97XJ9zBxDm6ZTHaBf+s1WelBWGktqGpyHO2XEIcZ8qk92Tp1OXaB72uT7mDiHN0ymO0C/9ZqNJbUNTkOdsuIQ4z5VJ7snTqcu0D3tcn3MHEObplMdoF/6zVZ6UFYaS2oanIc7ZcQhxnyqT3ZOnU5doHva5PuYOIc3TKY7QL/1mo0ltQ1OQ52y4hDjPlUnuydOpy7QPe1yfcwcQ5umUx2gX/rNVnpQVhpLahqchztlxCHGfKpPdk6dTl2ge9rk+5g4hzdMpjtAv/WasS8rdc7nRY07qU+LYAwsmo8Zz0PdK5HkWuVNQjZdsQiJObWUKc5DNhEgbTnwoGN4elKh5+zrSutaOXui2IqXUiHPOR5nzNNcWq+0S8VPeA7D4EQyGB60HhDyJvKE8vO/3cY0vPTALpspZZMqtyy6YRC6bYxgDioqYArsClyOCpmMYQABOXqavedrzXnJbMRcXLcv2qwbveDv38PiplPt3YDON2M4DOPAKlK4IFzEPIOOeQBUixa7RFRkCSXCIDcxAFMCkwG0NohguAx4YCg76UpQKUpQKUpQKUpQKUpQKUpQKUpQKUpQKUpQRcRNdqyE2x5bhdjvyMt2/dxdzVBfdjAbff9uOvo5z1wEpXBHOYhd5KJRpUgcN3ZU5ASJbBFwKCRgEw4DePCMj3uvTAZ7uA76BSlKBSlKBSlKBSlKBSlKBXBOQ7Wfi14l4oqRFfbuMmIAYNpgMGBEBDxAPVXfUPd0O5n7edxDNRIiy/D2mVEQKG05TDnACPgA+qgmKUpQKUpQKUpQKUpQK4JWHazHJ80oqXknabxPYIBk5M4AcgPTr/vXfUPccO5mOy+WUSLyMkg8U4giGSEzkAwA9ev8AvQTFK8/at+XR5OukrzsBa7xuq5Tqg3RgbYTCQdqLCbaCYiQeEQ+4QDYY4G69CjWxWFOXHc1oRc/dloqWvKvkeM4h1XZXKjPJh2kOoQAKJtu0RAA7oiJcjjIhhUbq/ro1s5jq7Oz+n7u23Vxdkmt9tbbxrIGRPJGZJgk+NIKJnWDun28sAHwJQ2ZAwbMy1XsWRu2XslnKOlJO3ymNKm7MdA0Y7U01NqzsU+XIYSKkMBRUAxi7hABApsUfRvyZdNNOm7S4ZbTCxFL5QkJB8a4mkK3F8JnDhY4GB0ZIq2/hKgQRz8IZEPGVa6RPnTfVqKmpJFJlqK8UO2UaHMKrdA8cg1MJwECgBwMmcwAURDGOoCIgAftLXmyLnta6pKx50E5C3olWTDtyGkGSQo8M4pOgTVRIq5aGEg+7NwOUwAIFMI4rrmdcbCs1jCeeU2qV3KR6D9U8ZEPnjdsicAAXK5kkj8m23COFnIpkACmyYNpsZLetrXlbViXjfmsT+zoNOIsB1aEUSMlFFU3oqB0XVMuigCKihyokI3ICmBMIcQ4iAB+L78nK7rtWjblt9ArtSXtGOt+TZPL9n7dRZ8AqmFRRizbXwCC5wMgqKXoYBUu4cBtV66y6d6evGjC6Jl2mq7SByIsop2+TathNtBy6UbJKEaN8592XEifdN3u6bHLausEZdeq13aWNIaSSWtRqwdGkFGTkrZ0DkhjYIqdEqI7cFwJFD7smx6BsV2R071Ns27hufSdtab8ZOAj7feEnX7tsSPBmZXhOUSppLnchhc+UDqpCOwvu2TCYLFbtm3VC6vXPeDkYpxDXHFRqIqkcKEdJO2vEKJeAKYkFMxVdwH424BDbtH0qDsvHWKwLCm2tvXNJSCTtykVwczWGevEGaJj7CrO10EjpM0xMBgBRcyZR2HwI7TY65rU+xreUuJOXnOAa041KYmA5ZY/LNFAUEindIO/PBV7pNxu71DqGc0120h1Bvq5m0zYbSGZOzR/IkuBC65W35SMNxNwHMVmmolKogIgcrVxw0wMQwCJgVEScerOjerVxTF6Esxe1Xcff9oN7dkHku+cNXDBwgDnasmii3UIuVTmMCUVEhJgRDf6NBI3T5RFoW/qPc+nl9yIs4RGCi3rd0yinjpVFN6Z0RVd2dEihGzYvCT93WKmmQTDvP4YsFy6+aNaWuhtK5LscN1odiyXdmTi3jpJiyX3kRdOlkETJN0BFE4GXUMRMu3vGLkKpGoOjusb6evZxZJLIcML6tKOtRdWVeukHEeCRXZV3JSpt1CuAArkuxERS3CAiKhPAftN+T1dbu3L8gI6Vif8A8ksSHtWPOuqoG1wzTcEOdXCY7SDxiYEu4ehslDpkLXL682vJWZdM1Y02i2kLXXbN3hbjhZJmmgKyhAIcyJkSLqJKEMPDVSKZMw9QMIAbEPd/lQQ9pqasoGs2edKaWR7Z8ptjX4JyIqoifYRQGwkAAHAbiCoG3cfoUphBfOiV13MOoosJCJT87mMC2ZcZVQOGZkoJlRVwmOAEB7u3dn14r93po/elyP8AV1iyWhE4vUS3m7Nk6Vdqg4bPU26iAkVRBES8IQMU3EKoJvEOH0ARC1TuumntrxcLJ3G7l2ozjIJBJujASDlw2bYKJl3KSSBlGqJNwAZVcqZCj0MIDX51N1ssvTiJ4zyTVWfPIxxIsCM4x3IJcFMmQcLmapnBBvkSgKypiJ9fTCs01M0G1DvOQhrxZsWJ5pW20oGXi0NR5+CZNjkMY5Vk3Eammd8QBUOUUlkktwYEDJiJgGZndH9Q7dcsHWl6NqPAcWejZki2l3rtqizRSEwpOmw8N0dXbxFAFBUxROAEysAgIiGpadXE9u7T+2rrkkkEnczEtH65ECiVMqiqJTmAoGERAuTDjIiOPWNWKq7p1br20dP7atSSVQVdw0S0YLnQMJkzKJIlIYSiYAES5KOMgA49QVYqBSlKBSlKBXBFQ7WH5zlVFTc67UeKbxAcHPjIBgA6dP8Aeu+oe3IdzD9qcyokbnpJd4nwxEcEPjADkA69P96CYpSlApSlApSlArnfs0pFi5j1zGKm5SOicSjgwFMAgOM+vrXRXHMs1ZGHfR6JilUdNlUSCYcFAxiiAZx6utB9GDNKOYto9AxjJtkiIkEw5MJSgABnHr6V0VxwzNWOh2MesYplGrZJE4lHJRMUoAOM+rpXZQKUpQKUpQKUpQKUpQKUpQKUpQKUpQKUpQKUpQK4IGHa29Bx0AyUVO3jGiLNEyogJzETIBCiYQAAEcAGcAH5q76h7Nh3Nu2hB2+9USO4jI1szVMkIiQx00ikMJREAEQyA4yAfmoJilKUClKUClKUClKUClKUClKUClKUClKUClKUHBHQ7WMeSj1uoqZSWdleLgcQECnBBJEALgOgbUSD1z1EeuMAHfUPBw7mMlLherqJGJLyRHiIEEREpAZtkRA2Q6DuRMPTPQQ65yATFApSlApSlApSlApSlApSlAqHu9xLtLdduIIqpnxeHwgSS4hupygbBcDnu59VTFRdyzXm7COZjluY5fZ7nv2btxwL44HHjnwoJSlKUClKUClKUClKUCq5fLJaVim8ILHnGEq6IwlG4o8QirJUpirEOGBwQSjgR6ePjVjqLnZrsXs/7m43Pv0mXp7dm/Pe8BzjHh0/PQeRNRf+GHpQ8nUb40MuKR02uRkqDlsVIvPx4qAORAyKo7gKbIlEN4k2iIcMQ7teidN9MWLGz7cLftgWS1ueIi1YhUYNmAs0kDmMChG28hTpoqhg4pYwG4SjuxkdGpQVhpphpww5DkrEgUOy2KsWx4cekXlmavviCeC91M2RyUOg+sKNNMNOGHIclYkCh2WxVi2PDj0i8szV98QTwXupmyOSh0H1hVnpQVhpphpww5DkrEgUOy2KsWx4cekXlmavviCeC91M2RyUOg+sKNNMNOGHIclYkCh2WxVi2PDj0i8szV98QTwXupmyOSh0H1hVnpQVhpphpww5DkrEgUOy2KsWx4cekXlmavviCeC91M2RyUOg+sKNNMNOGHIclYkCh2WxVi2PDj0i8szV98QTwXupmyOSh0H1hVnpQVhpphpww5DkrEgUOy2KsWx4cekXlmavviCeC91M2RyUOg+sKNNMNOGHIclYkCh2WxVi2PDj0i8szV98QTwXupmyOSh0H1hVnpQUx9ppYkVDgrBWHBouoiHdRsWCEalubN1CjubpABehDD4kDoPrAaW3ppYjaHglT2HBt3UdD9moAWNSTM1bqlDjNyABQ4ZDCI7iBgB+CrTKPezYx3I8Licqgovs3Y3bSiOM+rOKRb3tKMaSPC4fNIJr7N2du4oDjPrxmggmmmGnDDkOSsSBQ7LYqxbHhx6ReWZq++IJ4L3UzZHJQ6D6wo00w04YchyViQKHZbFWLY8OPSLyzNX3xBPBe6mbI5KHQfWFWelBWGmmGnDDkOSsSBQ7LYqxbHhx6ReWZq++IJ4L3UzZHJQ6D6wo00w04YchyViQKHZbFWLY8OPSLyzNX3xBPBe6mbI5KHQfWFWelBWGmmGnDDkOSsSBQ7LYqxbHhx6ReWZq++IJ4L3UzZHJQ6D6wo00w04YchyViQKHZbFWLY8OPSLyzNX3xBPBe6mbI5KHQfWFWelBWGmmGnDDkOSsSBQ7LYqxbHhx6ReWZq++IJ4L3UzZHJQ6D6wo00w04YchyViQKHZbFWLY8OPSLyzNX3xBPBe6mbI5KHQfWFWelBWGmmGnDDkOSsSBQ7LYqxbHhx6ReWZq++IJ4L3UzZHJQ6D6wo00w04YchyViQKHZbFWLY8OPSLyzNX3xBPBe6mbI5KHQfWFWelBWGmmGnDDkOSsSBQ7LYqxbHhx6ReWZq++IJ4L3UzZHJQ6D6wqHtHTiz0OLzNhQzbsZR5DxGIpJLl4w+MoJYKGEjZNkA6G65zV/qLgprtrtD7m4PIP1WXp7t+zHe8AxnPh1/PQRjTTDThhyHJWJAodlsVYtjw49IvLM1ffEE8F7qZsjkodB9YUaaYacMOQ5KxIFDstirFseHHpF5Zmr74gngvdTNkclDoPrCoi6/KA0GsOaWtq+NbbBt2XblKZaPlbkZNHKYGDJRMkqoUwAICAhkOoVe0lUl0iLoKFUTUKByHIICUxRDICAh4hQVtpphpww5DkrEgUOy2KsWx4cekXlmavviCeC91M2RyUOg+sKNNMNOGHIclYkCh2WxVi2PDj0i8szV98QTwXupmyOSh0H1hVnpQVhpphpww5DkrEgUOy2KsWx4cekXlmavviCeC91M2RyUOg+sKNNMNOGHIclYkCh2WxVi2PDj0i8szV98QTwXupmyOSh0H1hVnpQVhpphpww5DkrEgUOy2KsWx4cekXlmavviCeC91M2RyUOg+sK432mliRUOCsFYcGi6iId1GxYIRqW5s3UKO5ukAF6EMPiQOg+sBq51yyj3s2MdyPC4nKoKL7N2N20ojjPqzigq1t6aWI2h4JU9hwbd1HQ/ZqAFjUkzNW6pQ4zcgAUOGQwiO4gYAfgrsaaYacMOQ5KxIFDstirFseHHpF5Zmr74gngvdTNkclDoPrCp2Le9pRjSR4XD5pBNfZuzt3FAcZ9eM11UFYaaYacMOQ5KxIFDstirFseHHpF5Zmr74gngvdTNkclDoPrCjTTDThhyHJWJAodlsVYtjw49IvLM1ffEE8F7qZsjkodB9YVOLy0U1kGsQ5k2iT58VQ7VqdYpVVypgAqCQgjkwF3FyIAOMhnxrroKw00w04YchyViQKHZbFWLY8OPSLyzNX3xBPBe6mbI5KHQfWFGmmGnDDkOSsSBQ7LYqxbHhx6ReWZq++IJ4L3UzZHJQ6D6wqz0oKw00w04YchyViQKHZbFWLY8OPSLyzNX3xBPBe6mbI5KHQfWFGmmGnDDkOSsSBQ7LYqxbHhx6ReWZq++IJ4L3UzZHJQ6D6wqQZXhaUlcUhaEddEQ6nYhNJaQi0HqR3bRNT3s6qIG3plNjuiYAAfVUvQVhpphpww5DkrEgUOy2KsWx4cekXlmavviCeC91M2RyUOg+sKNNMNOGHIclYkCh2WxVi2PDj0i8szV98QTwXupmyOSh0H1hVnpQVhpphpww5DkrEgUOy2KsWx4cekXlmavviCeC91M2RyUOg+sKNNMNOGHIclYkCh2WxVi2PDj0i8szV98QTwXupmyOSh0H1hVnrkfy0XFct2pJNWfOOCNG/MLFT4y587EibhDcccDgodRwNBBtNMNOGHIclYkCh2WxVi2PDj0i8szV98QTwXupmyOSh0H1hRpphpww5DkrEgUOy2KsWx4cekXlmavviCeC91M2RyUOg+sKs9KCsNNMNOGHIclYkCh2WxVi2PDj0i8szV98QTwXupmyOSh0H1hRpphpww5DkrEgUOy2KsWx4cekXlmavviCeC91M2RyUOg+sKs9KCsNNMNOGHIclYkCh2WxVi2PDj0i8szV98QTwXupmyOSh0H1hRpphpww5DkrEgUOy2KsWx4cekXlmavviCeC91M2RyUOg+sKs9KCsNNMNOGHIclYkCh2WxVi2PDj0i8szV98QTwXupmyOSh0H1hRpphpww5DkrEgUOy2KsWx4cekXlmavviCeC91M2RyUOg+sKs9KCphpNpeDZsyDT23Qbs41eGbpdmo7UWCwCCzYobcFSOAiBiB3RyOQqUs1xLu7Qg3dwFVLKLRrVR6CqXCODgUiipuJgNo7hHIYDHhgKmKi7XmvOS2Yi4uW5ftVg3e8Hfv4fFTKfbuwGcbsZwGceAUEpSlKBSlKBSlKBSlKBSlKBSlKBSlKBSlKBSlKCHgnEutKXEnJFVBu3kiJx4nS2ALcWbYw7RwG8OKZbr165DPdwExUXETXashNseW4XY78jLdv3cXc1QX3YwG33/bjr6Oc9cBKUClKUClKUClKUClKUClKUCuCccxDSLXcTpUjMSbeKCqXEL1MAFyXA57wh6q764JyHaz8WvEvFFSIr7dxkxADBtMBgwIgIeIB6qDvpSlApSlApSlApSlArglXMQ25PtYqQ8V2mm23pb8OBzsEOg7R8e90x8Nd9cErDtZjk+aUVLyTtN4nsEAycmcAOQHp1/3oO+lKUClKUClKUClKUClKUHO/UaIsXK0gBRakSOZcDF3F4YAO7IdchjPSjBRosxbLR4FBqdIhkAKXaXhiAbcB0wGMdKP2aUixcx65jFTcpHROJRwYCmAQHGfX1owZpRzFtHoGMZNskREgmHJhKUAAM49fSg6KUpQKUpQKUpQKUpQKUpQK4IpzEOec7JKkHCdqJudiWzLgMbxHoG4fDvdc/DXfWbSA6zW7NyrextPbMloh27F4m7lbzdMnJzqEKKgCgnFrFIAHAwB7qfIAAiICO0AyCXurV21Ly13kLB0ttq74lGTZnfFfXC4aOy5iGgHBNomxWK4IVPviXjEMfBilKI4z1z1wXVYel2jenOlEzcs+1m2BWxZ20yw3PuUW7MFCcsEwoDQoKBk2DAocE0zAUucnJojR1r+wdPXrHQ/Spu4klCrPVkr8eEO5UKQCFMoYIXJzAQpSgJsiAFAPAKg5KzdR5m0/MGX8lzQ19bHE43Yrm61lWHE3ipv5c0GKe7eImztzuER8aCJa6h6o3hZemkG5uZaz5S7Zp/FSk4w7Keu0ytCODEIQSi6YEcLcAoKFAFQIILFKUBABJy2Hq5fsgxsY0nfTaXJJ6mXBbL18izbppu2TbtArdLuAJSmAzdINxBAxjEHr1EKtElb+rE1aRbBmPJs0WfWwRFNuWFc3g4VYAknjYQG5oMU9pcBgNuAwGKqls6S6sxlhyGm12aBaL3Vb76bfTBY2RupwozSBd0ddNIG6kKcg8LcBSmwHogIAXwAPxK606iuNKjyUA6lJaRldR5S00XsEnF840aJPnKaYN+dMmyFUAQIiUy4iG43UFDYKb7N791qlNKFGKb+TY3M0uo0IHEkraLcr9oQnEMmkUii0UWRAM5SPsIKaZzbUhMG20qwOrK9sObIX8m3RdS3XpTFcxB7xcCyXKYcmA6AwfDMAj1HIdRrmPZuo6llBpsp5LmhprRKUCBADdawxoFA+8A5bsPhY3d70fHr40FMmJOf1Bj9Dnru9rsZScVqIvGyQvIyNbPVV27V8U6boiZF2wqACYpmO1MVI285iAQdgJ6x5TF3zdiaKXDdFvy7WLetBalK7dNiuEUk1HKSagqJmAQOTYc2Q8cZwIDgarxrW1QNbUdZhvJk0SG34hVFePiRu5fk2aiRt6R0Uew9iZiG7xRKACUeoYGuLVu3PKP1WsKQsRzprpqwSkFGx1F/Px8tgqS6aol2DDgA7gT2+PTOcDjAhBTmouoNl2lqVBQeoyk+rbTGCkIeddRjMqzXn1RKZqokgikgYpCFKYgbAOBFigYREAONxvla/G9x2ppKw1bnoTnYeUlnd1gyizv3KrUyIEQ2qtTNClwuY58IAbakGDF7wjxW5ZmptpWl5i295NGirGAOYFFo5vd66TZdXJRFVRIkGBDHExSmEwlyIgA12XlBat6jRJYHULybtGLnjCqlXKymbxcPUAVKAgBwTVgzF3AAjgcZ6jQRNkaiz96y+iVxTDeNO6uG3Jh47OixTyocqTfB0DnAyiRD53bSHwYDFARMAANV/RPV3WO6r3t6TuaOuZKFvAZAqjWYXtpGOaCgBxIWMK1cjJKmIJNipXJDj1Ewgjt21YHsB5T7/AFNgr4V050pTjLci3TFhGI3pIEVKs4FMDqGX7K2iQCJFKVMEgEBERE49ACRibX1RgLpkb5gvJl0SjrkmAEsjMNLuXRfPAyA4WXLBgop1KHpGHwD4KD46ZzV53jEI3tcGtCrQbtCVaJWuoxjylj1UTqkKRifhFXFdEEhFXjmcFMIHwQhcYl/JFj3cb5Nmnzd7OPpZQ0KiqC7wiBTlKYMlTAEU0y7SgO0Ml3YANxjDkRj4u2tU4S6pG+oXyaNFGFyzBdkjMtbvcJPnhenRZcsGCigd0vQxh9EPgrut1vrfaEeaJtLQDSKEYnXVdGbR17umyQrKGE6igkThADeYwiYxsZERERyNBnEFKXhpzbmrcrG3xKPnMhqWlFJOn7RiJIlN0o0SUdFBJuTeJCL9OLvL7mnkB7+6UltQtS7VsfUuBb6iOJuUs24YmNj7jesGXNGI7M0Ook4TQSTbGOmC5i5IkmOwxMhuDea6HR1wUZScapoDpEZpNGUPJtzXw7FN6ZQoEOKxexMKCYoAURNnIAAD0qPh7Z1St2107It/yZtE4y3EVOMnEM7vcIsiKcTibgQJBgmA8Tv5xnd18etBrsJHP4SBbRsjcT+ddtUdikk/TbkcOTBnvqFbpJJAPzETKHzV5vLqPq7G+Tzb99Dddx3FP31LsI/cxZQyK0SkqoZIeSK4Kg2FQ2woALtRQvFUyACXaiOqjcHlKCGB0i01EB//AIhvv9FqHcxusry2FbIeeTvo6vbq6BmqsQpejkzJRE3imZAYThiQcjkohigrcJqLq6jpJcFxSqsghJWHcSZnhZZSGcST2HR4KrpJ4SLUVbIuQRUVwCfDEdiRtpAMID0yV5XBPQtp3krKM5CKuTUpmWDIrHNlCIxOVEkjpGMQRyrwxXKsA7wBYNpgDFTcBG6y2nbpLQtbyd9HYaBSIdMkXH3o5btCkOIicoIkhAIAGERyGOuRzXQYmuZmUfGm0F0kFpEnSVj0Bvl3w2h0gwmZIvYmExIHQolxgPDFBnbTV7WR5qys8JGXOjb7e8zWodo5XtpvA8sB9nEA6jksqZ6IYVKUCiQwCBSpCAgpXbKa5Xta1xO2UzNpKsrEl3w3V9zIidaPcqlLGeiACTBFyGESlATcE2c562VS19UVrzT1HW8mXRI92pI8unPGu5cZEiW0S7Ac9h8UC7REMbsYEQrrdx2sz9aRcvvJ40dcrTBUSSKi16ujmeFRHKILCMJlQCD6IGzt9WKDQ9Oxug9jQa97OgXnl2Sa8gIJkIBFjhvMmAEAAwTdsDpkQKAjkciNirMvOHylfkj01/vDff6LTzh8pX5I9Nf7w33+i0Gm0rMvOHylfkj01/vDff6LTzh8pX5I9Nf7w33+i0Gm0rMvOHylfkj01/vDff6LWHeWPL6g+wpITmqdr2NaKcGsD6EnIrUyRRkWcoCahURagSIKZRQxTKFFPIAJROIiTG8oevq4IFzEPIOOeQBUixa7RFRkCSXCIDcxAFMCkwG0NohguAx4YCvBHkR6wf8AEGu99Etb5sNOdsNVVMq89cifZzxJqOMqIHAAM6HbuEBFI+4wYFQnjXveBh2tvQcdAMlFTt4xoizRMqICcxEyAQomEAABHABnAB+ag76UpQKUpQKUpQKUpQKUpQKUpQKUpQKUpQKUpQcEc5iF3kolGlSBw3dlTkBIlsEXAoJGATDgN48IyPe69MBnu4DvrgjodrGPJR63UVMpLOyvFwOICBTggkiAFwHQNqJB656iPXGADvoFKUoFKUoFKUoFKUoFKUoFQ93Q7mft53EM1EiLL8PaZURAobTlMOcAI+AD6qmKh7vcS7S3XbiCKqZ8Xh8IEkuIbqcoGwXA57ufVQTFKUoFKUoFKUoFKUoFQ9xw7mY7L5ZRIvIySDxTiCIZITOQDAD16/71MVD3I4l2/ZfZJVR4skgm64aW/Dcc789B2h4demPhoJilKUClKUClKUClKUClKUHHMs1ZGHfR6JilUdNlUSCYcFAxiiAZx6utIZmrHQ7GPWMUyjVskicSjkomKUAHGfV0pMqO0Yd8rHgYXRGypkAIXcbiAUduA65HOOlIZR2tDsVZADA6O2SMuBy7TcQShuyHTA5z0oOylKxqZuTXC5NVrqs3T+8LEt+KtlhGuMzVqvJRddRyVUxhFRKSbFIUOGGA2GHqPWg2WlZdaGuEQ50egtTr5DklJP7mFCKaOX5njoFDp/cSCBFF3BVOGZQhSEMbh9R6AI18rx8omz7btC1r2iGMtOx10z7SBSBpFPjLtVFVBTUFdAjc6qKiYlMUySpEzbw2DtN0oNWpVLc6r2ia5paxI1+6VuCIaHcuidkvVGrP3EFScdwRIUk9xTAJSicDHwcCAYSmAIdtrdbMFpxaV4XtKi8eXJGIPE07ag5KRF0YUSqKqt2iKKjvgF3AImOmGwDF3iAjQaZSq201Gsl++iI9lcLddWfjFZmNOmBjJOmaQp8RUioBs6cZMcbt2DZxgBEIWW1z01h7WhrwVlZJ5H3CkK8WSMgn8g7dIgXcZUjRsidwKZS4Ex+HtKBiiIhuDIX6lccPMRdwRTOchH6D6PfokctXKBwOmskcMlMUQ8QEBCqSx180pkrtGyWdyODyZZFaHOYYp4VoSQTzuaGdikDcq4gGSpCoBzhgSAYBAaDQqh7ch3MP2pzKiRuekl3ifDERwQ+MAOQDr0/3qJi9V7DmronbQjZddaQtkxiTB+z3JWjE5U01RIq6MmCBT8NVM4EFTcJTbgAQARCu6da029fza6CxEw4M8ijqvWqcnEO2G+PMA8u5TKskmZw2MJD4WSA5TYHBhHFBqFKzJprja0Jp/aFz3rLg7fXNFoviEtuEkpAHGUiHVXRbJInckbF3lETqEACAcgHEoiFTty6tWFatvRdzv5dy9YzgEGLCGjXUs4fFMTiAZBuzTVWVKBO8JikECl6iIB1oLhSswV18tdXUaxrEhmT+VbX3EvZVlLtGTpRskVDhYKc5ERTJu4htwqKE2CUpTBlQoVp9ApSlArjmWasjDvo9ExSqOmyqJBMOCgYxRAM49XWuyuOZUdow75WPAwuiNlTIAQu43EAo7cB1yOcdKBDM1Y6HYx6ximUatkkTiUclExSgA4z6uldlccMo7Wh2KsgBgdHbJGXA5dpuIJQ3ZDpgc56V2UClKUClKUClKUClKUClKUClKUClKUClKUCo6Wt2355Zg4nIKOkVYtxzbE7tqRYzVfaJeKkJgESH2mMXcXA4MIZ61I0oFQ9mw7m3bQg7feqJHcRka2ZqmSERIY6aRSGEoiACIZAcZAPzVMVD2a4l3doQbu4CqllFo1qo9BVLhHBwKRRU3EwG0dwjkMBjwwFBMUpSgUpSgUpSgUpSgUpSgUpSgUpSgUpSgUpSgh4OHcxkpcL1dRIxJeSI8RAgiIlIDNsiIGyHQdyJh6Z6CHXOQCYqHgnEutKXEnJFVBu3kiJx4nS2ALcWbYw7RwG8OKZbr165DPdwExQKUpQKUpQKUpQKUpQKUpQKi7lmvN2EczHLcxy+z3Pfs3bjgXxwOPHPhUpXBOOYhpFruJ0qRmJNvFBVLiF6mAC5Lgc94Q9VB30pSgUpSgUpSgUpSgVFzs12L2f9zcbn36TL09uzfnveA5xjw6fnqUrglXMQ25PtYqQ8V2mm23pb8OBzsEOg7R8e90x8NB30pSgUpSgUpSgUpSgUpSg5ZR72bGO5HhcTlUFF9m7G7aURxn1ZxWT6meVtoJo7CoSOomoUYwfLtyLBENlebfbjFyBeCmAmL1yAGOBS9B6hga1p+o0RYuVpACi1Ikcy4GLuLwwAd2Q65DGelebtafID8mnygAVudW3Fbcm5IoOAmIE4NjrCYMgZVExRSPnOTCJAOP8A1APWg0LQDXF/rvbru/C6fyFq2u5UT83lpdwQHsohgd7gzcuQRTztAnfNvDJgwXaJq/enkt6Var39e1y6s2VaFxNLiiWEZGuXTNJaRYAkRYFTJqnJuQERUKYopnzkMjj11vQDyMbU04tx3Zeq1iaV302jVCEhJ09oNUpJw3EB3EelMmYpjlHaBVAOYTAPe6hkdS9rR5OP5P8Apv8Asow/dUFFuzRy/bx0ws+Gn5KIVuaxJMyzQsTdEjANpRsRJVsnvdsEyLslDIKlOYqRFEynKJAAxByH7ZaL3VFaTxMDFlt5K4mN3N7rWZuLllHzZQxHQKnSPJPQXdLHEgdVhSKBjB0SIA9Lv7Wjycfyf9N/2UYfuqe1o8nH8n/Tf9lGH7qg/UNZEkwuTUmZcSMaKV5C1FiUi5hMlw2RUDcXJQAO+AiG3d0+AelZdcfk8XSpaOmQxT5tIz1jW15uu2Te/Jm12zkDpt96pHsaUVh2nbBgh0hKYDddglCtP9rR5OP5P+m/7KMP3VPa0eTj+T/pv+yjD91QVGd0Nmj6TWXZ9oXBCwtw2sciQvSrO1kSNHBDIyCaSi6qrgxhRWUFMyqhsqppGN0DAf3WjRJ5dEhalw2GYiq9rxrmGTigvqXtVI7VXgiU3ORYGVyQW5A4ZkzEMBh6lEoDVt9rR5OP5P8Apv8Asow/dU9rR5OP5P8Apv8Asow/dUE3pba6Gn+nkDZqizAqkUzKioDVw4VRBTqY2w7pVVc4bhHvKKGMPiOPAMGsC1L5vd7PwZTWw2s9vqm+nnMgZ4p2nxGj0qpWxG3BFIwHUSLlcVwEpREoJjgDVr3taPJx/J/03/ZRh+6p7Wjycfyf9N/2UYfuqDjj9K1V4vViCnJpok01EknK7dVmsYVW7daPQaiJwEC4OBkjjgBEMbeuREAolvJT0UjcmpesErZtuMrNtdxZ6CjKWMduumQSmUerqLpIlb7hKkBUQ3gXJsqGyGNH9rR5OP5P+m/7KMP3VcrDye/JjkuY5HQXTZTlXB2y3/4kyLtVLjcHVHr4h1DpQZGTRO57q0z0jui3w4svB2ShDOola+5i1CiVVFufiC6iwMoYSGRwKR0xKYDZ3EEoZv8A7Fd12ZCacyGnydryM5YcavFGi5CXes49yi4TTBUSOlCvXBDEOkQSioVUxi7imMGchZ/a0eTj+T/pv+yjD91T2tHk4/k/6b/sow/dUHG7tS/3t/6eX/IOrWdOoWPk46fSRdLtk0yu+AcFGgCRUVhIZuUm1QUtwGE+S44dahzTb8YS/TCs79rR5OP5P+m/7KMP3VPa0eTj+T/pv+yjD91QaJzTb8YS/TCnNNvxhL9MKzv2tHk4/k/6b/sow/dU9rR5OP5P+m/7KMP3VBonNNvxhL9MK5ZSXbRsY7kQOkpyqCi2ziAG7aURxn1ZxVF9rR5OP5P+m/7KMP3VfJ15OXk1Mmqzx1oFpuRFBMyqhvNNiOClDIjgEsj0Cgv8XLtpKMaSInST5pBNbZxAHbuKA4z68Zrq5pt+MJfphWbNfJy8mp61ReNdAtNzorplVTN5psQyUwZAcClkOg19fa0eTj+T/pv+yjD91QaJzTb8YS/TCnNNvxhL9MKzv2tHk4/k/wCm/wCyjD91T2tHk4/k/wCm/wCyjD91QaJzTb8YS/TCnNNvxhL9MKzv2tHk4/k/6b/sow/dU9rR5OP5P+m/7KMP3VBonNNvxhL9MKc02/GEv0wrO/a0eTj+T/pv+yjD91T2tHk4/k/6b/sow/dUGic02/GEv0wpzTb8YS/TCs79rR5OP5P+m/7KMP3VPa0eTj+T/pv+yjD91QaJzTb8YS/TCnNNvxhL9MKzv2tHk4/k/wCm/wCyjD91T2tHk4/k/wCm/wCyjD91QaJzTb8YS/TCnNNvxhL9MKzv2tHk4/k/6b/sow/dU9rR5OP5P+m/7KMP3VBonNNvxhL9MKc02/GEv0wrO/a0eTj+T/pv+yjD91T2tHk4/k/6b/sow/dUGic02/GEv0wpzTb8YS/TCs79rR5OP5P+m/7KMP3VPa0eTj+T/pv+yjD91QaJzTb8YS/TCnNNvxhL9MKzv2tHk4/k/wCm/wCyjD91T2tHk4/k/wCm/wCyjD91QaJzTb8YS/TCuC15rzktmIuLluX7VYN3vB37+HxUyn27sBnG7GcBnHgFUr2tHk4/k/6b/sow/dVeoFzEPIOOeQBUixa7RFRkCSXCIDcxAFMCkwG0NohguAx4YCg76UpQKUpQKUpQKUpQKUpQKUpQKUpQKUpQKUpQRcRNdqyE2x5bhdjvyMt2/dxdzVBfdjAbff8Abjr6Oc9cBKVwRzmIXeSiUaVIHDd2VOQEiWwRcCgkYBMOA3jwjI97r0wGe7gO+gUpSgUpSgUpSgUpSgUpSgVwTkO1n4teJeKKkRX27jJiAGDaYDBgRAQ8QD1V31D3dDuZ+3ncQzUSIsvw9plREChtOUw5wAj4APqoJilKUClKUClKUClKUCuCVh2sxyfNKKl5J2m8T2CAZOTOAHID06/7131D3HDuZjsvllEi8jJIPFOIIhkhM5AMAPXr/vQTFKUoFKUoFKUoFKUoFKUoOd+zSkWLmPXMYqblI6JxKODAUwCA4z6+tGDNKOYto9AxjJtkiIkEw5MJSgABnHr6V85lmrIw76PRMUqjpsqiQTDgoGMUQDOPV1pDM1Y6HYx6ximUatkkTiUclExSgA4z6ulB2UpSgUpSgUpSgUpSgUpSgVwRUO1h+c5VRU3Ou1Him8QHBz4yAYAOnT/eu+oe3IdzD9qcyokbnpJd4nwxEcEPjADkA69P96Cu3FrvofaFxjZ92ay2NCTwGTKMXI3EzbPMqY2BwVFAPk2Qx065DFXkBAQyA5Aa80N0tW5XUnW+2rEsuyJaKlZRo1eO5+4XLQ6B1IdqQ2GiTFcrggFEBwKye4cl7od6rPbEdedvanW9pKz1FlSwNnWTGu1kEmjQx5ZdNRVuILKLJKKFTMUhTCCZim3FLg4BuA4bjXwfPmUYyXkpJ4g0aNUzLLrrqAmmkmUMmOYxsAUoAAiIj0AArzvptqHqNLXDYsxLX+4kEdS0ZcXFvHZMyp28ZsUTFM2MmkVceGYARV5g6wCc4YEnQo8CWpl/XRZF1xchPNF32ntozLG8EzRzdVJ5NFA5G4nIcgkKUyKJnApbQKJHKWQEogFB6RczUOyiFLgeSzNCLRbi7UfKrlK3IgBdwqioI7QJt67hHGOtdSSqS6RF0FCqJqFA5DkEBKYohkBAQ8QryNrNcV3XPYF9QRdSfM+KtfSpvLmZJsGQtpYXTZwCp3HERFQiCfBKQpWx0RAxjZEQ2BXbqhqxq/BzbiGsVjc6LK0LPjZwqkcpbaUc5UVKtuGTUlnKSxGocACiLXhmDKgipnaAB6rcOEGiCjp0umiiiQyiiihgKUhQDImER6AAB1ERqIipy1dQ7WCVta446bhJZBRNGRiniblBYg5IYU1SCYhsDkMgI9Qqh+USD6c8ma+10pBxEOF7TeOTKNBQWMT7mMcyYCoRRMxR6kEQAegiJRAcGDGNUL61nh0PMC0Xl7vUrbsNnMqSrMLWQRkFlQWKYZM0io3BNqUESgYWZEjFA5h3lHaFB62YM0o5i2j0DGMm2SIiQTDkwlKAAGcevpX8kZKOh49zLS79uxYs0jLuXLlUqSSKRQyY5zmEAKUAARERHAAFeWNSNVNaIyQbW/Z8dc7IltWRHXEqtBr20aPXcKAqByP1pZymYWZOABTHaCU2DmNxQ7lNf7rvO87Y1IjVNRPMqOt7TMk4pHposnLWUO8Qc8YXCp0znMgnwSplFsqkO4xhExgEgUHqJpOQr98tGMZhk5eN0UnKzdJwQ6qaKu7hKGKA5Ap9h9phDA7RxnA13V5AuORumI1F1EuW2dVkrSUtfTa3J0zcrVovzxkQfmKm6BwQ5gam27DcHhK5N3VS4wMjrTrjf8TJGlrUnLqjgt9jBOJNk0aQhIdJw+VKPAfKPTGfrGOQ20hWZE9ohgxxMPdD1dXIwlouV5nsuSavOTcHaOOXWKpwVyY3pH2iO04ZDJR6hkKyCTuG75vUy686sDY8NYa8YmDJdmxUZSaThMqh1nZ1ycYCmExkU+AujgyYibf6NUrSG7bnLrRdNlPXLi3bfXvWbdsXaaaCwXA7IVMVGJjHAwtwTTEVdoFBRXaYSnKVI4HD0/SlKBSlKBSlKBSlKBSlKBSlKBSlfwRABABEAz0D56D+1wQMO1t6DjoBkoqdvGNEWaJlRATmImQCFEwgAAI4AM4APzV31D2bDubdtCDt96okdxGRrZmqZIREhjppFIYSiIAIhkBxkA/NQTFKUoFKUoFKUoFKUoFKUoFKUoFKUoFKUoFKUoOCOh2sY8lHrdRUyks7K8XA4gIFOCCSIAXAdA2okHrnqI9cYAO+oeDh3MZKXC9XUSMSXkiPEQIIiJSAzbIiBsh0HciYemegh1zkAmKBSlKBSlKBSlKBSlKBSlKBUPd7iXaW67cQRVTPi8PhAklxDdTlA2C4HPdz6qmKi7lmvN2EczHLcxy+z3Pfs3bjgXxwOPHPhQSlKUoFKUoFKUoFKUoFQ9yOJdv2X2SVUeLJIJuuGlvw3HO/PQdoeHXpj4amKi52a7F7P+5uNz79Jl6e3Zvz3vAc4x4dPz0EpSlKBSlKBSlKBSlKBSlKDjmVHaMO+VjwMLojZUyAELuNxAKO3AdcjnHSkMo7Wh2KsgBgdHbJGXA5dpuIJQ3ZDpgc56V+pR72bGO5HhcTlUFF9m7G7aURxn1ZxSLe9pRjSR4XD5pBNfZuzt3FAcZ9eM0HVSlKBSlKBSlKBSlKBSlKBVCaSerxy3dytvwDgzWQInbgSEku1ByjkOLx9jU3CKUM8MxOLvH0tnjV9qLgprtrtD7m4PIP1WXp7t+zHe8AxnPh1/PQQLpne0W6up9almWcDl4qzWj1lZJZseTUAhSLnfGTamFMxCFAqYl4wmApQHhh4f2UaXujKXBOQNmWcvJFQaNYR46klkV3iO7cum7UI1OZAhDGOKZSCsBhHI8PI1caUGclsh7bVx3leNh6T6ctJ+X5TlpUFRZvJjqAuO0VkmZjk2Dnh4FbfgN3D9XdLwt0kSvFGEsCx3KcsLYzUjt8oiWYE6ZU3QyAFaH2bUygQmONvKUoG2B0C8UoMyvjTrzrM7PI6N6ZXGaAI3TtAZwd4kKcoFdFUyzU5MAKGCAjxN4AAG2epfeng3e4cO5TRzTO5V7bUaK2arOm4h0j5KLgxxMzUFmJBKApijxN+0ueH6tNpQVC50b7lI+5olG0LQlmKySCEW2lJNYEpBJQMOyPScqcEigAmAgFBYFA9LZmqxqlYDm7o6VXfaPacXMvbZEF7LNNF5hRJbaArnEp2anKnIJQ4fC4m8Sl3cP1atXLKPezYx3I8Licqgovs3Y3bSiOM+rOKDM7qsaS1Ajivru0g04uqQhSMXVsHuQRUUI5MUguzq7manJHKYO4KPEEwlLu4fq7NQLCXvZ1IPZvSLTa6XENwfNRa4Diqf3UAB5xTGZqC0wGQLwuLxAAN2z1aBFve0oxpI8Lh80gmvs3Z27igOM+vGa6qDL7x01SuGRkpdfRfS+dfRKsavazqYwKwqI53HWOLNQzUyO9TgikKojkfe8jX7vHTsbhnJy519HNM52ZbtWzGAkZg2XLlsccukXKos1Dt0yiJhIVMVQP/GAma02lBm94WI6uC4XN3LaSabzk7bnK+Z0nMKCLtLcIC53rcmodntHIk4Iqb+m7h+rrl7cuAppw0LpxYTkW8g1loAXjs6IuXxsA5dOdrQ/LrFybYonxTH6bhTzV9pQViWd6lp9vdh2/bDjg8r2Fzcw4R5rOOZ5ra2PwNvXZs4u/pu4fqSzvUtPt7sO37YccHlewubmHCPNZxzPNbWx+Bt67NnF39N3D9VnpQViWd6lp9vdh2/bDjg8r2Fzcw4R5rOOZ5ra2PwNvXZs4u/pu4fqSzvUtPt7sO37YccHlewubmHCPNZxzPNbWx+Bt67NnF39N3D9VnpQViWd6lp9vdh2/bDjg8r2Fzcw4R5rOOZ5ra2PwNvXZs4u/pu4fqSzvUtPt7sO37YccHlewubmHCPNZxzPNbWx+Bt67NnF39N3D9VnpQViWd6lp9vdh2/bDjg8r2Fzcw4R5rOOZ5ra2PwNvXZs4u/pu4fqSzvUtPt7sO37YccHlewubmHCPNZxzPNbWx+Bt67NnF39N3D9VnpQViWd6lp9vdh2/bDjg8r2Fzcw4R5rOOZ5ra2PwNvXZs4u/pu4fqSzvUtPt7sO37YccHlewubmHCPNZxzPNbWx+Bt67NnF39N3D9VnpQViWd6lp9vdh2/bDjg8r2Fzcw4R5rOOZ5ra2PwNvXZs4u/pu4fqSzvUtPt7sO37YccHlewubmHCPNZxzPNbWx+Bt67NnF39N3D9VnpQViWd6lp9vdh2/bDjg8r2Fzcw4R5rOOZ5ra2PwNvXZs4u/pu4fqwry4jwyOi91TWo4QsSlBrNHViyjadctZU0oJBA/D4bcTJLAAnAhExVBQu4VBRKAnJ6crjfw8RKqsl5SKZvFY1wDtmdwgVQzZcCGICqYmAdh9pzl3BgcGMHgI0HgXyJr9/4ik89i0L6tpOVsEyyZFpS8iCzkE2u4Nx0DlAFnBxKImKZQihTCAAJygICHu6zXEu7tCDd3AVUsotGtVHoKpcI4OBSKKm4mA2juEchgMeGAqYqLtea85LZiLi5bl+1WDd7wd+/h8VMp9u7AZxuxnAZx4BQSlKUoFKUoFKUoFKUoFKUoFKUoFKUoFKUoFKUoIeCcS60pcSckVUG7eSInHidLYAtxZtjDtHAbw4pluvXrkM93ATFRcRNdqyE2x5bhdjvyMt2/dxdzVBfdjAbff9uOvo5z1wEpQKUpQKUpQKUpQKUpQKUpQK4JxzENItdxOlSMxJt4oKpcQvUwAXJcDnvCHqrvrgnIdrPxa8S8UVIivt3GTEAMG0wGDAiAh4gHqoO+lKUClKUClKUClKUCuCVcxDbk+1ipDxXaabbelvw4HOwQ6DtHx73THw131GTzCNdt0Hkq75ZCLcFkBVFQpCF4QCOTiboBQAREfDw8aCTpXmjVT/iC+Txp1Ikti3pxzqBdDhYrZtD2qmDwVFjDtKQVwEEsiboIFMY4D/F9VbfYFzzk/aERL3vDx1vTsi2M7cRLeUK9K1KJhECcYCkBQxSbd5il2gbcACIAAiGKMNWPKBbadOdcpOX0/kLXjHr1R/b7e3HrR+WNbu1EVDpvxfrJmWImTi4FqBVBKJMp7t5dNX1ciYKXvBW5plgMRAdlg2Qjo965kN7tPJUzJJpmFwooYS8MjcDmEOghmsrjdN9a3+nDjQyTDTqMtiWcvTObgZXK6ev1oxZ4ouqVNiZiimVQ6RxS38yYqYmE+FNu0bHeekbq4Vb/AFWqFnTbW6+xXMXHSUi5agYrBPBjg6bF4rNUpwKdJyiChkjFKYC5AKC8O9dtLmFpsb1kJ901jJKQ7JblXiHqbvnu9hqdoZIHCawiQQBM6ZTCYSgAZMUBjJTWyOkWVly9hLJPWVxXUnbz4r9i4bOWnuSxlEzoKgmqguUyZQEipAEAHqXqA1kFx23f1m2dp5Gup2NkptfUZCUio+Sul5NN2jcEFhBsMo6S5tdPcU48Y6RjJ8UAApgTKA3eJ0ruh6pFXHOzNsITT++iXtJs2L46zVBumzFqCLZYyRDuBApExFQ6aYCIn6FAACgvrLXHTaQvQ9gtZSTGVKs4bJqHgn5GDhdAomWQQfGRBquqQCn3JpqmOAkUAQyQwBNQ2olnXApBpQ0yDk9yRykrGlKgqArNU+GB1ByUOHgVkwwfaOTYxkBAMJtnRbUcmr8Lf10XbESaEVcEpLJu1bwlHh3scui5TRKjHLF5NgKJVkyGBDIKATcJyiG00x5Osc1C9r+uFrckRKW0hIqxdortDgYoMRUM7eAVTcJVClduFEtxMFAG5S+JBGgtWpeq01burOn+llvCVqrdJ3Tp47c2zIySItkALlEircSJIKGE+RVVOJUwL3iDvLVitrWTTy7rncWhBTDtWQQ43DOtFO27V5wTbVuUdKpFQd8M3Q/AUU2j6WK5bjto09qdZl5tJiMBhCsJZNdMXGFlQcESKU6QAAgYocM24REMdMZrJNIvJ9krFvaFWknke7hbdSeni5JXUGfknDtNQhkymTil1AYsBKmcwGMmK5RxghU93dDXorWjTG6JmRtZjLuFlmiTkxzOIh2kzeJojtccq5VSKg9Ag9DggdTb4GxVNX8pC2ZG9rXszTpQHbWRPJJOFnMK9bIHTaNDnAWS6hE0XBSqEKQ4pCoUudo7REKpumHk5PbVuiNbTD5i6gYVq/LGyZ9Qp6ScuklkzpFOnFOFAYMBKmocDGTFco4wUqYG7vfZukuo0M6se1XkjZB7VsEkiWKkEJVY8jKNVmyyKR1W4twIgZMDkA4lWVBQdx8kEAIIXPQjyiLV1dgIFu5kAQul/CIyrlsWLeNWaw7SccWa65OE6Kkc4FPwVVeGIgU4gPSrJaWtmnN73Cva9vSsgd8k3UdpGdwr5m2eN0zgQ6zRw4RIi7TKYxcnQOoUAMUc4EBHMdI9L9R4I2n0TecpY7SN07t9dnFOoN+s6Xk11W5ETqnSVQTK3SSKU/Qp1eKIlMPCxsqF0m0J1BiL0j7n1EumKfH83ZaHePCXpKzLmQFwdubnUSPSgmyIPCPubIe5piBRA584IF/uvykrPGw7ynNPZEXsxbkG7mGRJKJetmkgmiX35soqRIr1uBhIAqtznJ3y94Nxc6Fa17Qd1qvGMU8M5dRYJJvzJN1QbpLmLuFIqwl4Zzl/jEKYxiZADgURDOMJaf6uymjUtofJPdPW0SSz1bfhZBpKOVXEoYEuEm6WT4CZGRClLkxExc5E/Q5QJ371o5ZaulbNzZTCXjFrPTTTd28nz51nTUDAIuUB3h30Cqd8h95je6GKIABCiIadSuYknGqbNkg2NxSCqTCpR3EDxMHXqAfDQknGqbNkg2NxSCqTCpR3EDxMHXqAfDQdNK5iScaps2SDY3FIKpMKlHcQPEwdeoB8NCScaps2SDY3FIKpMKlHcQPEwdeoB8NB00rmJJxqmzZINjcUgqkwqUdxA8TB16gHw0JJxqmzZINjcUgqkwqUdxA8TB16gHw0HTXBFOYhzznZJUg4TtRNzsS2ZcBjeI9A3D4d7rn4a+xJONU2bJBsbikFUmFSjuIHiYOvUA+GuCHShIvmeSk01O0nCsiO5cg53Y3CXGO4GPn/AD0ExSuYknGqbNkg2NxSCqTCpR3EDxMHXqAfDQknGqbNkg2NxSCqTCpR3EDxMHXqAfDQdNK5iScaps2SDY3FIKpMKlHcQPEwdeoB8NCScaps2SDY3FIKpMKlHcQPEwdeoB8NB00rmJJxqmzZINjcUgqkwqUdxA8TB16gHw0JJxqmzZINjcUgqkwqUdxA8TB16gHw0HTXO/UaIsXK0gBRakSOZcDF3F4YAO7IdchjPSv4STjVNmyQbG4pBVJhUo7iB4mDr1APhrnerxEoxVjzySHDfNlAAU1i7jJCAgYxfHIBnx6hQdLBRosxbLR4FBqdIhkAKXaXhiAbcB0wGMdK6Kjo1eIZMWce1kkFE0mxQREViiY6RAAN3TxDp1EOldBJONU2bJBsbikFUmFSjuIHiYOvUA+Gg6aVzEk41TZskGxuKQVSYVKO4geJg69QD4aEk41TZskGxuKQVSYVKO4geJg69QD4aDppXMSTjVNmyQbG4pBVJhUo7iB4mDr1APhoSTjVNmyQbG4pBVJhUo7iB4mDr1APhoOmlcxJONU2bJBsbikFUmFSjuIHiYOvUA+GhJONU2bJBsbikFUmFSjuIHiYOvUA+Gg6aVzEk41TZskGxuKQVSYVKO4geJg69QD4aEk41TZskGxuKQVSYVKO4geJg69QD4aDppXMSTjVNmyQbG4pBVJhUo7iB4mDr1APhoSTjVNmyQbG4pBVJhUo7iB4mDr1APhoOmlcxJONU2bJBsbikFUmFSjuIHiYOvUA+GhJONU2bJBsbikFUmFSjuIHiYOvUA+Gg6aVzEk41TZskGxuKQVSYVKO4geJg69QD4aEk41TZskGxuKQVSYVKO4geJg69QD4aDppXMSTjVNmyQbG4pBVJhUo7iB4mDr1APhoSTjVNmyQbG4pBVJhUo7iB4mDr1APhoOmlcxJONU2bJBsbikFUmFSjuIHiYOvUA+GhJONU2bJBsbikFUmFSjuIHiYOvUA+Gg6a4IFzEPIOOeQBUixa7RFRkCSXCIDcxAFMCkwG0NohguAx4YCvr2rF7Sn7Sa7TpmWKPGLgyYeJg69Sh6x8K+UDDtbeg46AZKKnbxjRFmiZUQE5iJkAhRMIAACOADOAD81B30pSgUpSgUpSgUpSgUpSgUpSgUpSgUpSgUpSg4I5zELvJRKNKkDhu7KnICRLYIuBQSMAmHAbx4Rke916YDPdwHfXBHQ7WMeSj1uoqZSWdleLgcQECnBBJEALgOgbUSD1z1EeuMAHfQKUpQKUpQKUpQKUpQKUpQKh7uh3M/bzuIZqJEWX4e0yoiBQ2nKYc4AR8AH1VMVD3e4l2luu3EEVUz4vD4QJJcQ3U5QNguBz3c+qgmKUpQKUpQKUpQKUpQKr952uldzBpFu2rN0yB4mo9bOyAdJdvtMVRMxBAQMBgMICUQwICIDVgqHuRxLt+y+ySqjxZJBN1w0t+G45356DtDw69MfDQeX9Sf+GtojcEynemkryQ0wulsrzDd1E+7sgV+E7RQcbcdNiZ0yiAiAgORrfNO9OiRNowLW/Lasxe5IqPVjFHUNEkQbAgYxgEiJDFykRQm0Tph3dwmAAEMVfKUEC3sKxWfKcpZcEh2e0UYNOHHIl5dqf00E8F7iZvWQMFH1hRvYVis+U5Sy4JDs9oowacOORLy7U/poJ4L3EzesgYKPrCp6lBAt7CsVnynKWXBIdntFGDThxyJeXan9NBPBe4mb1kDBR9YUb2FYrPlOUsuCQ7PaKMGnDjkS8u1P6aCeC9xM3rIGCj6wqepQQLewrFZ8pyllwSHZ7RRg04cciXl2p/TQTwXuJm9ZAwUfWFG9hWKz5TlLLgkOz2ijBpw45EvLtT+mgngvcTN6yBgo+sKnqUEC3sKxWfKcpZcEh2e0UYNOHHIl5dqf00E8F7iZvWQMFH1hRvYVis+U5Sy4JDs9oowacOORLy7U/poJ4L3EzesgYKPrCp6lBVn+nFmHiTMouz4Bqs3jHEWwMSPSIDVBUogZEglLkiZhHvFL0H4Br+wOnVnREXENBtCBKvExnZiJ0o9IOCgYoAqkmO0BKmYc5KGAHPUKnJlR2jDvlY8DC6I2VMgBC7jcQCjtwHXI5x0pDKO1odirIAYHR2yRlwOXabiCUN2Q6YHOelBGt7CsVnynKWXBIdntFGDThxyJeXan9NBPBe4mb1kDBR9YUb2FYrPlOUsuCQ7PaKMGnDjkS8u1P6aCeC9xM3rIGCj6wqepQQLewrFZ8pyllwSHZ7RRg04cciXl2p/TQTwXuJm9ZAwUfWFG9hWKz5TlLLgkOz2ijBpw45EvLtT+mgngvcTN6yBgo+sKnqUEC3sKxWfKcpZcEh2e0UYNOHHIl5dqf00E8F7iZvWQMFH1hRvYVis+U5Sy4JDs9oowacOORLy7U/poJ4L3EzesgYKPrCp6lBAt7CsVnynKWXBIdntFGDThxyJeXan9NBPBe4mb1kDBR9YUb2FYrPlOUsuCQ7PaKMGnDjkS8u1P6aCeC9xM3rIGCj6wqepQQLewrFZ8pyllwSHZ7RRg04cciXl2p/TQTwXuJm9ZAwUfWFG9hWKz5TlLLgkOz2ijBpw45EvLtT+mgngvcTN6yBgo+sKnqUEC3sKxWfKcpZcEh2e0UYNOHHIl5dqf00E8F7iZvWQMFH1hURauldoW8LgfNC3iCRZ0mw4EekHLMlsAZuTuBsIOB3EL3R+errUPbbiXcdqdrFVDhSS6bXiJbMtwxsx0DcHj165+Gg+LewrFZ8pyllwSHZ7RRg04cciXl2p/TQTwXuJm9ZAwUfWFG9hWKz5TlLLgkOz2ijBpw45EvLtT+mgngvcTN6yBgo+sKnqUEC3sKxWfKcpZcEh2e0UYNOHHIl5dqf00E8F7iZvWQMFH1hRvYVis+U5Sy4JDs9oowacOORLy7U/poJ4L3EzesgYKPrCp6lBAt7CsVnynKWXBIdntFGDThxyJeXan9NBPBe4mb1kDBR9YUb2FYrPlOUsuCQ7PaKMGnDjkS8u1P6aCeC9xM3rIGCj6wqepQQLewrFZ8pyllwSHZ7RRg04cciXl2p/TQTwXuJm9ZAwUfWFcj/TizDxJmUXZ8A1WbxjiLYGJHpEBqgqUQMiQSlyRMwj3il6D8A1aa45lR2jDvlY8DC6I2VMgBC7jcQCjtwHXI5x0oIOB06s6Ii4hoNoQJV4mM7MROlHpBwUDFAFUkx2gJUzDnJQwA56hXU3sKxWfKcpZcEh2e0UYNOHHIl5dqf00E8F7iZvWQMFH1hUlDKO1odirIAYHR2yRlwOXabiCUN2Q6YHOelflCdg3Uu7t9rMsVpRgkku7YpuCGcN01N3DOomA7iFNtNtEQAB2jjwGgj29hWKz5TlLLgkOz2ijBpw45EvLtT+mgngvcTN6yBgo+sKN7CsVnynKWXBIdntFGDThxyJeXan9NBPBe4mb1kDBR9YVJyEtFRBEFJWTaMiuV02qJnCxUwVWOOCJl3CG45h6AUOoj4UfS0VFnapycm0aGfLlatSrrFTFdYQEQTJuENxxAphAoZHAD8FBGN7CsVnynKWXBIdntFGDThxyJeXan9NBPBe4mb1kDBR9YUb2FYrPlOUsuCQ7PaKMGnDjkS8u1P6aCeC9xM3rIGCj6wqepQQLewrFZ8pyllwSHZ7RRg04cciXl2p/TQTwXuJm9ZAwUfWFG9hWKz5TlLLgkOz2ijBpw45EvLtT+mgngvcTN6yBgo+sKnqUEC3sKxWfKcpZcEh2e0UYNOHHIl5dqf00E8F7iZvWQMFH1hRvYVis+U5Sy4JDs9oowacOORLy7U/poJ4L3EzesgYKPrCp6lBAt7CsVnynKWXBIdntFGDThxyJeXan9NBPBe4mb1kDBR9YUb2FYrPlOUsuCQ7PaKMGnDjkS8u1P6aCeC9xM3rIGCj6wqTj5aKlyLqRUm0elbLqNVjN1iqAksQcHTNtEdpyj0Eo9QHxpHy0VLkXUipNo9K2XUarGbrFUBJYg4OmbaI7TlHoJR6gPjQRjewrFZ8pyllwSHZ7RRg04cciXl2p/TQTwXuJm9ZAwUfWFG9hWKz5TlLLgkOz2ijBpw45EvLtT+mgngvcTN6yBgo+sKnqUEC3sKxWfKcpZcEh2e0UYNOHHIl5dqf00E8F7iZvWQMFH1hRvYVis+U5Sy4JDs9oowacOORLy7U/poJ4L3EzesgYKPrCp6lBAt7CsVnynKWXBIdntFGDThxyJeXan9NBPBe4mb1kDBR9YUb2FYrPlOUsuCQ7PaKMGnDjkS8u1P6aCeC9xM3rIGCj6wqepQQLewrFZ8pyllwSHZ7RRg04cciXl2p/TQTwXuJm9ZAwUfWFG9hWKz5TlLLgkOz2ijBpw45EvLtT+mgngvcTN6yBgo+sKnqUFeDTrT4EEGoWLb3BasVYxBPstDakzVAQVblDbgqRwEQMQO6ORyA102bDubdtCDt96okdxGRrZmqZIREhjppFIYSiIAIhkBxkA/NUxUPZriXd2hBu7gKqWUWjWqj0FUuEcHApFFTcTAbR3COQwGPDAUExSlKBSlKBSlKBSlKBSlKBSlKBSlKBSlKBSlKCHg4dzGSlwvV1EjEl5IjxECCIiUgM2yIgbIdB3ImHpnoIdc5AJioeCcS60pcSckVUG7eSInHidLYAtxZtjDtHAbw4pluvXrkM93ATFApSlApSlApSlApSlApSlAqLuWa83YRzMctzHL7Pc9+zduOBfHA48c+FSlcE45iGkWu4nSpGYk28UFUuIXqYALkuBz3hD1UHfSlKBSlKBSlKBSlKBUXOzXYvZ/3NxuffpMvT27N+e94DnGPDp+epSuCVcxDbk+1ipDxXaabbelvw4HOwQ6DtHx73THw0HfSlKBSlKBSlKBSlKBSlKDllHvZsY7keFxOVQUX2bsbtpRHGfVnFIt72lGNJHhcPmkE19m7O3cUBxn14zX6fqNEWLlaQAotSJHMuBi7i8MAHdkOuQxnpRgo0WYtlo8Cg1OkQyAFLtLwxANuA6YDGOlB0UpSgUpSgUpSgUpSgUpSgVFwU1212h9zcHkH6rL092/ZjveAYznw6/nqUrginMQ55zskqQcJ2om52JbMuAxvEegbh8O91z8NB30pSgUpSgUpSgVyyj3s2MdyPC4nKoKL7N2N20ojjPqziuqud+o0RYuVpACi1Ikcy4GLuLwwAd2Q65DGelBzt5hueBSuB4JWyBmZXiu42QSJs3jkenQAz1+avKVk3hdcVqLber07pRe0NH3pLu2UnOP3UV2cowfmTLFe5JPlHQCTgtEy70CbeOruAojWwGLr3PQPZ69naTvYeQacIzVaRfGQWbnJjYZMzTAkEo4EohjHTFf2Rjde5iLGDl7F0kfRwgQBZuZB6qgIEEDE7hmgl7olKIdOggGPCgy68pu67xmGVyS2oS7ZnGatMLfStMzVpwEiN3JQTUBQEgc8woXC/eWFPhnAATAcGr8SE3d153VY95TmoqpG/sruIYlpqtGgINCtCvUk+EoRIrjjmIQqpxUVUIJT90heghfHmnepkjdgX7IaN6GObnKmmkE0sZwd+BEzAZMvMCz4mCmKUxQ3dBKAh1Cv0fT7U892Hvw+juhprmV4e+aE7gX5uGGCZccnxB2h0DvdPVQTuuMveaEtp9a9nXm6tgbouFSNfvmjNs4XK3Bg5WwkDlNRMp9yRBAwkMACHUpgyUcrf6t6vI6fW5b7J9c05NSN8TVqLzUE2hEpdVuxO7FI5CvzJR4LqA3IBhFPaIApsSARDGovWnlAyThm7kbL0ndLxywuGaq0k9OdsqJDEE6Yi1yQ2w5i5DA4MIeAjUVK2RqzO2+8tKc0m0SkYORXO5eRjtZys0crHU4h1FETMxIcxlO+JhARE3UevWgprXWrVSLsyCm7gdAi4kTztrJpOFYpwupMJq7Y1RcWKqrci4gkqRVJNTYCmQ2E8C6Fopel7XpLSKNwShV29rsUYOR2tk0wdTaaqgOlu6HdACEQEClHb7sPTIYDjb2hrA1hIu2WuluiyMPBqIqxkem4dFbMTpDlIyCQM9qQkHqUSgAl9WKkWDXyg4rmey7M0oZ844O7ccvJPk+MufG9U+1qG444DJh6jgKCpag39qLbWrhpI1xzvmVGyMYwXJAJQz+Pai4FMh0pZBYSSaaxjLEMmdocxQKdMx0xADAf9OdWrxRbPCDcqRHSWrqNrEIKCG8I46iQ8vt2+IpmEd3p4HO711Iyun2p87djC/JvR7Q2QuaKACsJp0dwq/aAGRAEnBmYqJgG43omDxH4a/K2nWpbi6Vb5caNaFq3IvwgVmDmcGfKcIxTJblxZ8QdgkKJcm6CUBDGAoKDZlwXhaUlM3PEahAoyW1dd28pahWrYyLhN08KVQ51OGLkHJAOZYu1QqfDJ3kxyJ6/stqRqO0RTtWzGE+mvP6gXIzVc2gygUJEqbUTKETT7UMmzMofAidRQqipipnwAjk5L8jp9qk0uQt6sdINDG9yJlWBKYIZwDwnGETK4WBmCmDmERNgwbhEc1Aw2j2tB7LkbM1DsXRa9GkzMOpyQbyZnirJVysuKuStlm6oFAgiAFyYwhtznNB9YbUDVC/obTm0nt0PLMkblPMlkJyMGIeuxMwOJU0S45xiRZUuTqlKCgFFJUpRKIdOq3GcpI+Ura88pqmrcKJdPXaSpo9uzJHvlCPkyGVDaQ6hRE3UwFW2gZMAAChuKMhNafan3JaaFh3Fo9obKWy1BIqEK9O4XYJAn0TArc7MUygX+LgvT1V1hausoPYeSDTHRnm7eRM3iHHMuuJHJGKBDEbm5TKJRKAFECYAQAA8KDZ6VmXN+Uv8Aze0y/XEh9lpzflL/AM3tMv1xIfZaDTaVmXN+Uv8Aze0y/XEh9lpzflL/AM3tMv1xIfZaDTa/CiyKR0yKqkIZY2xMDGABObAmwHwjgphx8ACPqrNeb8pf+b2mX64kPstYF5abq409HHMhrcw06jwZKgrb7uLm3xZlKSx7n2f9zAIrCOAEudolzvECgIgHsqou15rzktmIuLluX7VYN3vB37+HxUyn27sBnG7GcBnHgFeCvIquP/iRyS8ajfESi6scyiYKvr8KdGQK33BvMgJcOVVBL1KZYpkx/wCoM7g99QLmIeQcc8gCpFi12iKjIEkuEQG5iAKYFJgNobRDBcBjwwFB30pSgUpSgUpSgUpSgUpSgUpSgUpSgUpSgUpSgi4ia7VkJtjy3C7HfkZbt+7i7mqC+7GA2+/7cdfRznrgJSuCOcxC7yUSjSpA4buypyAkS2CLgUEjAJhwG8eEZHvdemAz3cB30ClKUClKUClKUClKUClKUCuCch2s/FrxLxRUiK+3cZMQAwbTAYMCICHiAequ+oe7odzP287iGaiRFl+HtMqIgUNpymHOAEfAB9VBMUpSgUpSgUpSgUpSgVwSsO1mOT5pRUvJO03iewQDJyZwA5AenX/eu+oe44dzMdl8sokXkZJB4pxBEMkJnIBgB69f96CYpSlApSlApSlApSlApSlBzv2aUixcx65jFTcpHROJRwYCmAQHGfX1owZpRzFtHoGMZNskREgmHJhKUAAM49fSvnMs1ZGHfR6JilUdNlUSCYcFAxiiAZx6utIZmrHQ7GPWMUyjVskicSjkomKUAHGfV0oOylKUClKUClKUClKUClKUCuCKh2sPznKqKm512o8U3iA4OfGQDAB06f7131D25DuYftTmVEjc9JLvE+GIjgh8YAcgHXp/vQTFKUoFKUoFKUoFc79mlIsXMeuYxU3KR0TiUcGApgEBxn19a6K45lmrIw76PRMUqjpsqiQTDgoGMUQDOPV1oPowZpRzFtHoGMZNskREgmHJhKUAAM49fSuiuOGZqx0Oxj1jFMo1bJInEo5KJilABxn1dK7KBSlKBSlKBSlKBSlKBSlKBSlKBSlKBSlKBXM7jY5+q1WfMG7hRitzLU6qRTmQW2GJxCCId02w5y7gwODmDwEa6aUCuCBh2tvQcdAMlFTt4xoizRMqICcxEyAQomEAABHABnAB+au+oezYdzbtoQdvvVEjuIyNbM1TJCIkMdNIpDCURABEMgOMgH5qCYpWFJ6l3sbyftUL3Ga/hq3Xd1pRjrlkfcCs13BGwbNuw2wqZA7wDux3s5Gpye18aWo/Y2uax7tuia83ELjeBCtWpipsxMJFVjCsukGSmDPDLk5gEOGU4gIAGs0rJL+17i4qDTPY0FPXS6krcVuJFxCotjlYMBT9yeLFcKpiYomHommVVU202ExwNcxdcZK0tJrVvKdsa67rUdWyhOTb6IQZJIs0gQIdZdU7ldul4iYeEiJ1MAIgTFBslKyttrFKu9bG9goWs5G1nNnFuYs8YUCkKYVtoAYBXBUCbMBjgZ3D47cjUhYetcRfcy3iS2jckGSVZHk4J5KotyITTIgkAy7cEllFEwAFUjbHBEVNpwECYA2A0SlUDULWCPsO4Ym0mtoXBdM5LNHMiSOhBZ8wkybmTKs4ErlwjxSlMsmGxHiKiJgwQakH+p8BHT7m3VmUlzLa3D3Oc3AAheVKcSCTBzAcFch6JigAesQHpQW+lYHK+ULJs9RYU0Jal1XFAzlgkuhGHi2TQXKWXJdy6iiyqZAEqRyhwgWExhzwyHEBq2MtWYB/eaUm2vFYbYWscLnKmLBMG3A4/wB9CuJuMBtnThbNuOud3Sg1ClZxa2uMJO9oecVq3FZnJRhpxHt9JsXnIwvpO0uXWW2lL3dyavDWLuLuTDIVUb48o644nSa5r/t3Rm8Wz6JZt38YhMNmYIyLZZQpSuCHTecMpQAdwoqKJOADAil1xQbrSoxaeax9tHueeTPFNmzIXzwjkSCZqQpN5wOKZjFESgA52mMHToI+NZJZutlwXlq22jFbTue3LfUs9ecTYyrJqZV790pFScpC2UWN1TMYOEJiqBkN6ZREuQ26lY268oV0rB3oVvpZdkPclsW4e42cVMhHgpINhBUElSgi8MCZROkIGTXOioAZ7oD4dpNbJ5lpjat7u9H7wl5KdiCSj6NiCx5Rj0wRKoooqs4eJtil7wbSAudQwG6FHacShq9KirUuWLvO2Im7oNRQ8dNMkX7UyhBIYUlSAcmSj4DgwZCpWg4I6HaxjyUet1FTKSzsrxcDiAgU4IJIgBcB0DaiQeueoj1xgA76h4OHcxkpcL1dRIxJeSI8RAgiIlIDNsiIGyHQdyJh6Z6CHXOQCYoFKUoFKUoFKUoFKUoFKUoFQ93uJdpbrtxBFVM+Lw+ECSXEN1OUDYLgc93PqqYqLuWa83YRzMctzHL7Pc9+zduOBfHA48c+FBKUpSgUpSgUpSgUpSgVD3I4l2/ZfZJVR4skgm64aW/Dcc789B2h4demPhqYqLnZrsXs/wC5uNz79Jl6e3Zvz3vAc4x4dPz0EpSlKBSlKBSlKBSlKBSlKDjmVHaMO+VjwMLojZUyAELuNxAKO3AdcjnHSkMo7Wh2KsgBgdHbJGXA5dpuIJQ3ZDpgc56V+pR72bGO5HhcTlUFF9m7G7aURxn1ZxSLe9pRjSR4XD5pBNfZuzt3FAcZ9eM0HVSlKBSlKBSlKBSlKBSlKBUPbbiXcdqdrFVDhSS6bXiJbMtwxsx0DcHj165+GpiouCmu2u0Pubg8g/VZenu37Md7wDGc+HX89BKUpSgUpSgUpSgVxzKjtGHfKx4GF0RsqZACF3G4gFHbgOuRzjpXZXLKPezYx3I8Licqgovs3Y3bSiOM+rOKD8wyjtaHYqyAGB0dskZcDl2m4glDdkOmBznpXZXLFve0oxpI8Lh80gmvs3Z27igOM+vGa6qBSlKBSlKBSlKBSlKBSlKBSlKBSlKBSlKBSlKBVLtXUGA814fzqu6IbzfIN+0kXLtFBZN1wy8Up08hsMB9wCXAYHIYDFXSqHBWNpjesJH3lIaX2uLqeapSa4rRTdZTiLkBQ25QUwE5smHJh6iPWgzGcsZo+86LUhfKFtBhYV6PHDyYi12Ca8mmLn77TavweETSIp1xxGyxi7z4NjaBI+8ealtcHSmn+rNuWvHmsZvEKP3jQkg2OUXau5NIQcIlI5ITaJTCY5SgYRMmcBDG2exBpL8l1o/qRt9SnsQaS/JdaP6kbfUoMpmLCtiPLFF0r1ztm2hbW0laEgMkmlJi6jUs8IyYlcoCk5JuV2qmFQnug7kjdMVTULyftPL8aW0wcaw2AonBWga0xWl4RpJuGxtgFK/jTquAKxcZDvGEiwGApAwAlA1egfYg0l+S60f1I2+pT2INJfkutH9SNvqUFDbwNnN7thLgHVu1FmLS0TWlLMVeGJnqWSmIqkoDgAQHcB9xTEV3AYAASiGRqGiGimkmi11pz0Zd+kKTaOjjxkeaEtOMipNZIwl779+VVRRyptIUMpFbkMImMchh27dr9iDSX5LrR/Ujb6lPYg0l+S60f1I2+pQZvrxall60MGMUrqDpW4j2/EBaPu6AaT7UDmLtBw3DmUFG7kpROUFAUMXBh7metcdwWTCquoVxZvlAW9HCztU1nyqkuROTXfMR2iCpFOaS4TkBAw8QwKkHeOUxwFap7EGkvyXWj+pG31KexBpL8l1o/qRt9SgyNayEIpeCkLE8oq0oh7EWahZyh3sei9SWSIcpjOSkK7SMRXu9wNxilEcmBQOlRsJF6VK6gPtOk7kSUtSI02Ss9y7eL8Iq4qqiO1Nc4AmufhAImMkJgKYQAcD0rbvYg0l+S60f1I2+pT2INJfkutH9SNvqUGH6Y6F6OWM3uCOk7q0hKynIRS3jFtW1Y2311mhwEDndrkVVUXWENvUgpJZAR4WRDbOubbdXDp7P6e3r5SdoyDV9FFioo7KNQalbAQQEjhyB3ap3K3dKBhIdBMQ3YTKIgIan7EGkvyXWj+pG31KexBpL8l1o/qRt9Sg4ZOa0+ueyXdnXhfttPSSkaeOklGrxJuRYFExIoZMhlVBTAciIAJj46ZE3jWZwNlkB64d3x5SdtSwltZ1aUepGNUo5Zu2VFMSuFDi7VA7kOH3jlKmQw7RKQmB3a17EGkvyXWj+pG31KexBpL8l1o/qRt9SgwnSfQzTrTdCZRU1U04RJOWp5ruW1rwTOCaZAyn3ZwyuFTGXMVTCgnOYDCUolAgZKP6u7Ru074iLAZXPrFppKuLNiVYdftK3271oqBgSAjxo3WeGBm8TBEuxYxlgDcfuCA4DdPYg0l+S60f1I2+pT2INJfkutH9SNvqUFVhJuK010aj7Ps29bQuCetqCRj4/npZNi3eLIpAQgqCUygpgbaA4Dd8GQ8QyjTX/AIkGhNzzS1l6nC80yupmtyzpnOHKdkCweIJvU/cxJ6wOoCZRDAhkBAR2u7NGrOXtmURsnTywGc+dqoEavJW6is1I42jsFUhAKYSZxnA5DxwOMDhGmf8Aw0tD7bmVLz1UXd6j3O6WF04XfplZx4LCIjlNmiO0CdcAmYxyAAFAChgKD0zZ86e4jzMm3kEn8Qo+SGHdICU6C7QzNsfekoXoqQVTLd4BHrkM93AWKoG01IpsSRteDg2kTH2y5Si2rZoQqaJUuVQWKBEylAqZQBbaBQ6dzPrwE9QKUpQKUpQKUpQKUpQKUpQK4JxzENItdxOlSMxJt4oKpcQvUwAXJcDnvCHqrvrgnIdrPxa8S8UVIivt3GTEAMG0wGDAiAh4gHqoO+lKUClKUClKUClKUCuCVcxDbk+1ipDxXaabbelvw4HOwQ6DtHx73THw131wSsO1mOT5pRUvJO03iewQDJyZwA5AenX/AHoO+lKUClKUClKUClKUClKUHO/UaIsXK0gBRakSOZcDF3F4YAO7IdchjPSjBRosxbLR4FBqdIhkAKXaXhiAbcB0wGMdKP2aUixcx65jFTcpHROJRwYCmAQHGfX1owZpRzFtHoGMZNskREgmHJhKUAAM49fSg6KUpQKUpQKUpQKUpQKUpQK4IpzEOec7JKkHCdqJudiWzLgMbxHoG4fDvdc/DXfXBFQ7WH5zlVFTc67UeKbxAcHPjIBgA6dP96DvpSlApSlApSlArnfqNEWLlaQAotSJHMuBi7i8MAHdkOuQxnpXRXO/ZpSLFzHrmMVNykdE4lHBgKYBAcZ9fWgMFGizFstHgUGp0iGQApdpeGIBtwHTAYx0rornYM0o5i2j0DGMm2SIiQTDkwlKAAGcevpXRQKUpQKUpQKUpQKUpQKUpQKUpQKUpQKUpQKUpQK4IFzEPIOOeQBUixa7RFRkCSXCIDcxAFMCkwG0NohguAx4YCu+uCBh2tvQcdAMlFTt4xoizRMqICcxEyAQomEAABHABnAB+ag76qd9apWXp0Zmhcr2QO8kd4tI6KiHkq/XKTG9QjRmkquZMmS7jgTaXcXIhuDNnK7andKMSOUjOUUyKqIgcBOQhxMBDCXxADCQ4APgIkNjwGsXuu7bY0p17eXtqhcUfb1uTdrNIyMmpVwVswbuUHK6i7Y7hQQSSUUKqicpTGAVOEbGdlBrFr3RAXnBNbltiSTfRzwoiksQpiiAlESmIchgAxDlMAlMQwAYpiiUwAICFSteddQ74tGRtq2pls7kLH0zmbpeBcc8g6NAlcocBYyTznUFE1EG7hyVMQc70zKdzqJVQE1ZthW4NQU9K7bmL5vHzelZS6k27tlOu2LqYiG+7s9RV0ici6gCkCZyrAcDnDBtw7jCYPRd26i2nY76HjLgdvSvJ1c6DFuzjHT5Q4kLuOc5W6ZxSSIGNyp9qZcl3GDIZkrZuSFvC3o66rce83FyzZN4zX4Z0+KicoGKbacAMXICHQQAfmrylaDJzcdw6O3JO3JcruTjYy72qbgZ96TjEaLgRHjkIqBFzbSl3GUKYTiUonEwgGJXSB3PXnIWc8uK87qcdnaWxk8VIk87RTcSBjrkFdwVNQOYES5yVXcUw7RMURKQSh6rpXiyy7blp6PsBOW1R1KWLeWmb2cmhLekkkZd82Bny6yZk1imbCTinAQbimVXPuwKj1rdIKbu24vJNZ3CjIvnNyyFhFdkdIHErlR4dhuBQpi4EFBOOQEOufCg1+leObo1sC7bTumY031QcyaMdoyu7M6iZM6pW0sQ+DH3ENgrsnQDAIgoXIAbGQr9M72dpwF/H0P1PuW8Y5C02ryaejLrzKsVMHX2ugbnOZQW7kGwqqGZJ7SpGTT2ppibBg9XM7qgX9yyVntH++XiGzZ48b8I4cJFcVASNuENptwoqdAERDb1AMhnrk5eJhW5XczJtGCB1k25VXKxUiGVUOBEyAJhABMY5ilKHiIiAB1GvHUVemndpoa1XlpXqDL3bbrS1YLgy5LuWfCkJlnpVMS6/MqkSTE4mUVHimQDibQDhlIWrrS7G59KL1QuK8HI2xbV8WnIovGeoUvLs2jNRRqdZdOadGSXcNuqh+IIgkQwG24FPcAe+KV4yvTUG/GuvjqNLd8FGSJLji2tsM3mocqg4fQ5yNxUFC327FVCRIoBnIGcmOYyY7hFRIEcl9m0ClKUClKUHBHOYhd5KJRpUgcN3ZU5ASJbBFwKCRgEw4DePCMj3uvTAZ7uA764I6HaxjyUet1FTKSzsrxcDiAgU4IJIgBcB0DaiQeueoj1xgA76BSlKBSlKBSlKBSlKBSlKBUPd0O5n7edxDNRIiy/D2mVEQKG05TDnACPgA+qpioe73Eu0t124giqmfF4fCBJLiG6nKBsFwOe7n1UExSlKBSlKBSlKBSlKBUPccO5mOy+WUSLyMkg8U4giGSEzkAwA9ev+9TFQ9yOJdv2X2SVUeLJIJuuGlvw3HO/PQdoeHXpj4aCYpSlApSlApSlApSlApSlBxzLNWRh30eiYpVHTZVEgmHBQMYogGcerrSGZqx0Oxj1jFMo1bJInEo5KJilABxn1dKTKjtGHfKx4GF0RsqZACF3G4gFHbgOuRzjpSGUdrQ7FWQAwOjtkjLgcu03EEobsh0wOc9KDspSlApSlApSlApSlApSlAqHtyHcw/anMqJG56SXeJ8MRHBD4wA5AOvT/epioe23Eu47U7WKqHCkl02vES2ZbhjZjoG4PHr1z8NBMUpSgUpSgUpSgVxzLNWRh30eiYpVHTZVEgmHBQMYogGcerrXZXHMqO0Yd8rHgYXRGypkAIXcbiAUduA65HOOlAhmasdDsY9YxTKNWySJxKOSiYpQAcZ9XSuyuOGUdrQ7FWQAwOjtkjLgcu03EEobsh0wOc9K7KBSlKBSlKBSlKBSlKBSlKBSlKBSlKBSlKBSlKBXhjyn4j/iJ27aDO39EzwR7XjItszOe1xEZsxU25CHE3MABhHiAbZywAfGM4617nqHs1xLu7Qg3dwFVLKLRrVR6CqXCODgUiipuJgNo7hHIYDHhgKDxj/w/uWGwrvG1+zh1d3tPOLzxF127zXd5jnN3unK/wAhw+n8p7pur1/LeyX/AA92GFsf+17C5vmPm5nmtv8A87NnzbqsJWjUjpR8RskVysmRJRYCABzkIJhIUTeIgUTnEA8AE5seI19qCsS3sl/w92GFsf8Atewub5j5uZ5rb/8AOzZ826kt7Jf8PdhhbH/tewub5j5uZ5rb/wDOzZ826rPSgrEt7Jf8PdhhbH/tewub5j5uZ5rb/wDOzZ826kt7Jf8AD3YYWx/7XsLm+Y+bmea2/wDzs2fNuqz0oKxLeyX/AA92GFsf+17C5vmPm5nmtv8A87NnzbqS3sl/w92GFsf+17C5vmPm5nmtv/zs2fNuqz0oM81OtC+b/s697ITWgkWM6xTYRSgnWKqVNQu10K47TABsCbh7QEPDcFS7xvqQ0azDS3htoSIJs04AXor5EAAAcc3s/MOzh/Nuq2UoKxLeyX/D3YYWx/7XsLm+Y+bmea2//OzZ826kt7Jf8PdhhbH/ALXsLm+Y+bmea2//ADs2fNuqz0oKxLeyX/D3YYWx/wC17C5vmPm5nmtv/wA7NnzbqS3sl/w92GFsf+17C5vmPm5nmtv/AM7Nnzbqs9KCsS3sl/w92GFsf+17C5vmPm5nmtv/AM7NnzbqS3sl/wAPdhhbH/tewub5j5uZ5rb/APOzZ826rPSgrEt7Jf8AD3YYWx/7XsLm+Y+bmea2/wDzs2fNupLeyX/D3YYWx/7XsLm+Y+bmea2//OzZ826rPSgh4OHcxkpcL1dRIxJeSI8RAgiIlIDNsiIGyHQdyJh6Z6CHXOQCYqHgnEutKXEnJFVBu3kiJx4nS2ALcWbYw7RwG8OKZbr165DPdwExQKUpQKUpQKUpQKUpQKUpQKi7lmvN2EczHLcxy+z3Pfs3bjgXxwOPHPhUpXBOOYhpFruJ0qRmJNvFBVLiF6mAC5Lgc94Q9VB30pSgUpSgUpSgUpSgVFzs12L2f9zcbn36TL09uzfnveA5xjw6fnqUrglXMQ25PtYqQ8V2mm23pb8OBzsEOg7R8e90x8NB30pSgUpSgUpSgUpSgUpSg5ZR72bGO5HhcTlUFF9m7G7aURxn1ZxSLe9pRjSR4XD5pBNfZuzt3FAcZ9eM1+n6jRFi5WkAKLUiRzLgYu4vDAB3ZDrkMZ6UYKNFmLZaPAoNTpEMgBS7S8MQDbgOmAxjpQdFKUoFKUoFKUoFKUoFKUoFRcFNdtdofc3B5B+qy9Pdv2Y73gGM58Ov56lK4IpzEOec7JKkHCdqJudiWzLgMbxHoG4fDvdc/DQd9KUoFKUoFKUoFcso97NjHcjwuJyqCi+zdjdtKI4z6s4rqrnfqNEWLlaQAotSJHMuBi7i8MAHdkOuQxnpQfmLe9pRjSR4XD5pBNfZuzt3FAcZ9eM11V5v1d8vvyYdFWwsHF5Jz0ogTaSHt9IHKqYh3dhzZBJESjgBIY4HDA93oIVc9Cdap3UqzzXnqJb8HZBJOXCPhotSbKu+IIkLtbuyiUgJuzGAx+AGTgU5SmKBijkKPq9qdcVp6gTCN5awzmlsM0FoW2XxreQVtqSOdLcPaskuzWI3yuBkhTBw1Ns27BExwMGtr6qxUQ6fQ001WUkoe1i3S+Ow2qtTo98pioHMYpjjuSPt3FKAgJRyGRAKpdcPc7+Vly2h5QVtMIC4pHsiQjpuMCVWavjJgko0j1geIlbqGIG7gKpL4UETATAiQYKe0lhkwj2WnWscDb8anABpjIIyDQkiquBQEEkUVAcpAi9LuP3TEVAd3VPpQfh/5SEhC6jypwta6rgtYtmw1yg1imTQykS3XM6Mu7XFRVMxwAiaQCkkZVQdo8NM2DDVuPrBDRV13hIvblfP4OKgIWTasUI1ISCLs7gqYt1Sm4i6i5iplBM5SlKIEwI7zYpcppQ7I4XUs/ygbdh0pOFjNOJMriKTdnMo1KuU5G5gdE4L4wLjsKcFQJgcpKZDbEeY+nOo1w6n2M9kEG9rnY29YjReTbe5Ky7AXCgNikclAjwS70NxS7inyYmc7sBqqGvMGjbk1L3PaNyW3KwSrZBxb0iRoeQUUdGAjQqQtl1W6nGOOwggtgDAYDiTabFfuXX28I95YTZhozdbBe5Lt83pZhLJMSOGSXKqrAqmoR5y6oCBCn3oqLFApVSCAKgBKrVq6C2Hb9mTkCW7tMYWTk7gYJtF7NtNlAMGcwyUKq2RM2IuoquvxC5Omo4EwlESkBLIjVjkbXn7ha29I3Tr3aT247evZJdBZCFIhGlclQUbnjE2vOGWBYyaqhu+5UOCg7tuwASoNWu641bVglphtbUzcDghiJoxsQiRR04UOYClKXiHIkQMjkTqKEIUAETGAKozfygYFxZJ7rCzrlLJlnD20W2sMjSZ5Qp9otimK5FoI4ybfzHDAoCInDAgHy1wtm1NYrIC0i3xarYU7gat+HLtkpSOdPkT7uznbMVkuY3etDiFNkCj6qpsJovbVs2ONvW9qxbDCYYX0eWhHqEY3SZR8wYgEGO5JNcoHLsMqnwCqJqbDgG7cXeISFm6/wAqWJuWTuS2bkkJNS9l7dgbZRbskpLJWyaotsmWTbiJABc4qnXEglLkFDAJc/uwNe5RxZ0hNz1uXJNTT285eBhrfbM2qEiYG6igggPEUSbl4aaSgiqosBDAXIHPuJu4kNLzIxhpU+udtKXwlfJ5RpMDGlBglMKNStlY4zLm95wMnxCgiDgqpQEneESiY0XcGgFmXXZSMNduoVhXNONb4eySLm4bfbyEUaWdAcqjBWPO4ATmAqhtiYLlVKJUxyOB3Bpb7XiBRtOIuCLtO5JeVnJNWFaW21TapyYv0eJzCBuOum3IKIIrGMcVgIIEyQx9xN1P071ZvO9LSilFHjxrLTeoUpDpldsUk12kczeODqIqJgXbkEGwo7wyOTgYDiIgYflGaSW9bVi2tD2ZqXY0DctpXI4Bi9j7eaNIcJRwVQi8f2Y2WS6CRUSglx+PkpDGUOYBE0xpnYkLY79pKXBq9FXC5bTU22ERIk2L2xJOyrnQKUFj7VUygZIqQ5PtN1HOchaoDWm1rjQs1diwlSFvdd6hHgqkmApGalUMoK2DjtAQSNt27s5DOPVCWH5SNrX7IxDdvaF1w8dcKztpES8q1bpNHztqZQFm5AIsdYpwBFQ5THTKmcpREhzeFViydL0rVuC2l3+t1uSEBZlwyTKEjko4iDkrl4VYBYOHIujgq4IKobQIkmbBRAxDCIGLXdArMfmtyzJC/wDU2LTiLZm5FGOt5RiDR6jMrKuUwbOXB1xBUSpLKcNuVBM/fKJhPgMhbkdepO7dTrDh7Yt64Yy2Jt9KpdpvGzQzOcQbtlBA7cxFVFkygqUBDiERMcOpQMXI1YGmvJXs6/tZXTG8YiTCHezUMWUTYpBMoNjEKcUUyuhVRHcol3XRG498PDA4qVq6XFt2ctpJfXWBc2nZUs8iYCKRYEQeouHCKqQMV3fNGIqukCoAmUiCZwKUQMU4juCD0b8nez9KLla3EbUuxVztk39oKjEW+2i3Ek8cGQMHPLg4UM5kgFE28wgXfvDCRBAwmC4WZ5RExL6WWNdElpdccrd13RHanm5BgxBcESFJxnBTLvCoERyontAy/EHiFDaJtwBPTevcChHW4vaFsXHdru6WC0o0ZxCLci7ZklsBVyuV2siBSpnUTIKZRMqJjYKmbBsZVN+TfZc9ZVkQc1emlNxTViHcWhHurotBCWjlAUEm1odko8AwPilRS7xFyiIgceEBTbC20NNYu3WdoLabat2nb8ta6CtkrKqwzUzB2KxiHUZlZNFmxG7kFEwMmQg9zJgMmpmgvHk/3ZNX3onZV5XE8O7k5mFbPXS524IGUUOQBERTKUoEH+jtDHwBVstea85LZiLi5bl+1WDd7wd+/h8VMp9u7AZxuxnAZx4BVT0sbWvprpzbtgq6hR0weA4NsmkFXCKR3UgQuBSMQDCBVzeIpAO7I+FXGBcxDyDjnkAVIsWu0RUZAklwiA3MQBTApMBtDaIYLgMeGAoO+lKUClKUClKUClKUClKUClKUClKUClKUClKUEXETXashNseW4XY78jLdv3cXc1QX3YwG33/bjr6Oc9cBKVwRzmIXeSiUaVIHDd2VOQEiWwRcCgkYBMOA3jwjI97r0wGe7gO+gUpSgUpSgUpSgUpSgUpSgVwTkO1n4teJeKKkRX27jJiAGDaYDBgRAQ8QD1V31D3dDuZ+3ncQzUSIsvw9plREChtOUw5wAj4APqoJilKUClKUClKUClKUCuCVh2sxyfNKKl5J2m8T2CAZOTOAHID06/7131D3HDuZjsvllEi8jJIPFOIIhkhM5AMAPXr/AL0ExSlKBSlKBSlKBSlKBSlKDnfs0pFi5j1zGKm5SOicSjgwFMAgOM+vrRgzSjmLaPQMYybZIiJBMOTCUoAAZx6+lfOZZqyMO+j0TFKo6bKokEw4KBjFEAzj1daQzNWOh2MesYplGrZJE4lHJRMUoAOM+rpQdlKUoFKUoFKUoFKUoFKUoFcEVDtYfnOVUVNzrtR4pvEBwc+MgGADp0/3rvqHtyHcw/anMqJG56SXeJ8MRHBD4wA5AOvT/egmKUpQKUpQKUpQK537NKRYuY9cxipuUjonEo4MBTAIDjPr610VxzLNWRh30eiYpVHTZVEgmHBQMYogGcerrQYFq15A3kzawMsTFikhpfhgQJqCErJ2Y3rUUApeEsccZEyiZh+cKuWhWjlwaXWeayr4u2OvZvGyQO4WRcRBUHxSAUNp3R95gWcFHJQWACmEpSiIiIiAaXDM1Y6HYx6ximUatkkTiUclExSgA4z6uldlBH+btv8AxFH/AH52j96k++/5fw98/p+l89PN23/iKP8AvztH71J99/y/h75/T9L56kKUEf5u2/8AEUf9+do/epPvv+X8PfP6fpfPTzdt/wCIo/787R+9Sfff8v4e+f0/S+epClBH+btv/EUf9+do/epPvv8Al/D3z+n6Xz083bf+Io/787R+9Sfff8v4e+f0/S+epClBH+btv/EUf9+do/epPvv+X8PfP6fpfPTzdt/4ij/vztH71J99/wAv4e+f0/S+epClBH+btv8AxFH/AH52j96k++/5fw98/p+l89PN23/iKP8AvztH71J99/y/h75/T9L56kKUEf5u2/8AEUf9+do/epPvv+X8PfP6fpfPTzdt/wCIo/787R+9Sfff8v4e+f0/S+epClBH+btv/EUf9+do/epPvv8Al/D3z+n6Xz083bf+Io/787R+9Sfff8v4e+f0/S+epClBH+btv/EUf9+do/epPvv+X8PfP6fpfPTzdt/4ij/vztH71J99/wAv4e+f0/S+epClBH+btv8AxFH/AH52j96k++/5fw98/p+l89PN23/iKP8AvztH71J99/y/h75/T9L56kKUEf5u2/8AEUf9+do/epPvv+X8PfP6fpfPX9gYdrb0HHQDJRU7eMaIs0TKiAnMRMgEKJhAAARwAZwAfmrvqHs2Hc27aEHb71RI7iMjWzNUyQiJDHTSKQwlEQARDIDjIB+agmKUpQKUpQKUpQKUpQKUpQKUpQKUpQKUpQKUpQcEdDtYx5KPW6iplJZ2V4uBxAQKcEEkQAuA6BtRIPXPUR64wAd9Q8HDuYyUuF6uokYkvJEeIgQRESkBm2REDZDoO5Ew9M9BDrnIBMUClKUClKUClKUGfaqgd68tyDVcLkZPHS6jlJJYyfHBNEwlIcSiAmJk24Sj0ESlz4Yqt+Y9q/E6X6Z/86supX/qK0/+68/wapWoN3StuJRMRbUe2eztxPuz48jtQxG6IgmdVRdUSgJhImmmc2wuBOO0uS7twevhk6brNSHmPavxOl+mf/OnmPavxOl+mf8AzqhONQL/ANMJRuz1de29OR0o3dqspO34peNOm4boHXM2UbLOXG8TpJqmKqCxQyTaJQyBh6r21zgrbgWT5BB+kvLW8pcTNQ7Ejgibchm4CVRMF0xE/wB0kwUDgHQ3e6AA9fnwXPzHtX4nS/TP/nTzHtX4nS/TP/nVKntbpGAu1jZz3R+9Ezy6y6DCUBSKVZqlSTE53BiJvjOSIAABkxkQEBMUBADGABjbH1zl53Q32RpqCZhcSTZuUY5soYiLl24IkZsUgm3GIVQV0g67tuTBk23IvkaP5j2r8Tpfpn/zp5j2r8Tpfpn/AM6y6zvKLdydi25MSVizM/OOYFrNXEnbCCR20QmqUR3m5ldM6gDsUEqSXFWEpM7OpctQfKVaRVszE1pxa8rcreMQbipOIN0lIpqsuVNRJNUBXI4PlNZMwmSTOQgHDeYuDYfOtjUfMe1fidL9M/8AnTzHtX4nS/TP/nUAvrFbTaGfzarGTFGOuNK11ilST3GdnXSRA5Q34FLcsUciIGwA93OAGs2xrzIylusVi2HMXRPrmeLO4+2yNicm0SdrIJrqC8cpF73BEAIU5lDCBhKTADh8jRRse1sd2KAhvUZNZQhij8IGAwCA/AIDkKvumT15IWDCOZB0q5ccqCZ1lTCZRTYIkAxzD1MYQKAiPrHI1TbcuCKuuCY3HCOBXYyKBXCBzEEhtpg8DFMACUweAlEAEBAQHqFWzSb/AJeQv/aP/iGrh/0SSTREfqRqNM2tNQFmWdbsZM3PcoOlGDeWljxjLhNilMsJ3BEHB9+Dl2kIicTd4R2lKJqrE75QklY9utn2oWl87Gy5rmZW04axjR7KtDmcCQQdNXCDXcugBD9BOkkIqFFIQKbGZPXK33Vxs49lMaIwuq1p5UGRgF27JR+m56Ag5bg/VTamKUBUA4GOQ4bimIYcCUc2t7SO8rT01NH2nYk+xgo65oOWt+yH06i+kYxi0VRFwgVdZ0duTIkMYiBXJkiFAAAwCbYXzNNvc6qWGzjpOVczokaw8ujAvTi1Xyk+VOkQiW3ZkcmXSDcACUN3UQwOKbqX5TVgaevjQaIu5WXJLx0MoRNk7IxTcunKSXBPIAgZqVwUqoKcuKgKiAB3Q3ANUC7rH1bWUvCyIfS949aXDfEVdjadGVYpMiNCOWCi6JyGW5gHBAbq4KCQpGAAwqAiBa+t0WVq1HRE3pdb+l7idaSl7t7nTuM8mxRZlZKSqDtYhiHWBxzKQAoBSglwzETKIKgYdlBr7zWvThhd5bIdS74JAXKbE7ksO9PGpOz42NlJAqQtE1zCJQBE6oKCJyBtyYoDxKeUHpOndYWaa4HwyAShoNRUsI/MyQkA8Gqz0EeWRVN02EUUKJ9xNu7cXONsdCZGNvCTt2d0w1BuZrI3QvNoTaGpjthbgNlnXNADmOJIAYFUhES8MjFRNU5SCYwAc5iWmV0tvtzZ1yxSEFudSGqTW42yfNIhvjiSDVUy2RPgMJpKDsEQP3cbciACGjaSasxurUdNv46Elo3sSbewxySEc7a8UUFTEBQnMIpbgMAZEC7gIIiURyA1e6z3R+IuK3k7rhp+3XTAvnNJSDJ4dZuog/bulzLEOkCahlC7QPsMCpEx3AOAMXBh0KgzHUVuWavSOhJBVc8ehFrOuVKsciSiplSFAyhSiAHEoFHbnIBuMPj4RHmPavxOl+mf/Opy8P8AmQ1/8Gf/ABwrPNRZ7URO77ZszT6ZtyJWmGz925dzMMvJFArfggBCJpOmwgIit1MJx9Hw65r2cUnSXTNWfzHtX4nS/TP/AJ08x7V+J0v0z/51nTDWaatMs9D6hpNLjk4WYYQ6Tm1WBkCPHD0m9FEWy7hTgKFESlNuXMGDkOIkKYQLJymvDGJVVI407u9QkU2Sc3Iq3TZKktwFCApsdbXIiqcpB3mK0BwJS4Eehi56fIuXmPavxOl+mf8Azp5j2r8Tpfpn/wA6qjzWSJjZW4WnDdy5o88ahGMI5mTmH67tAyqaSKh19iomAom3HBEiZQETGEoCcP4XXGJThl15CzblYXEi/Tiy2quVmMos6VKJ0SJiRwZqYp0ymUBQF+GBSH3GKJDAD5RbPMe1fidL9M/+dPMe1fidL9M/+dUN/rNc5blsWGaaT3OzTuSTdx8qnIps01Y7hNzKAO4HexQBwB96ArkEhTgA78Fr56c63PJ6wLjuy8Itq2dW8d4vwmQmArpoRVYiJigYREDGFE6YhkcmIIhgBAAfKtA8x7V+J0v0z/508x7V+J0v0z/51mlj69zcjp9BS1z2S5krzm3sk1Tty2jJHOIM3SiSpiqO1UUgTTKUm5RRRMDGMAFDcYpKn19dIFWKi3Fv2vcU9NSyrpBK3WSTdKRSUaiBXRVeZWSQT4RhKBhMrgwmLsE+4uXyLZ5j2r8Tpfpn/wA6eY9q/E6X6Z/86omk+uAX0WKj5yHcspScczotUythSIi3j3gIbVinOJyqiU6eQABATAf0QwFEtdY97P26ugRNjbMlFT0g+cP09q6Axy6SQmASHEoEHcqI9BEQAvgOQp8i9+Y9q/E6X6Z/8667VYIW5f0Q2hjLNm0i1eJuWwLnFFQSAQ5D7BHaBwEBADAGcGEPgxWLT1VRuWbSgZOx7mthZ83UdxSkym1KSTQIJd50uAuqZMQA5DCmuCSuDZ2d0223sP8AmHbf/aff4ZaxySdLYRatTXryPsGbcx7pVs45UUyLJGEqie8QIJiGDqUwAYRAfUOBqhBY9rY70UBzesyiyhzGH4RMJhER+ERHI1d9Wf8Al5Nf9on+IWqPf088taxrhuaPTRUdRMW6eokWARTMdNIxygYAEBEMgGcCA/OFc+CTVtWv75j2r8Tpfpn/AM6eY9q/E6X6Z/8AOulGcbIW0nccy4Rat02IPXSph2ppEBPec3XwAAyP/wAVU7X1gZz8unFS1k3Na6b5so8iXk2m1TQlEEw3HOkCK6iiQgQSn4bgiKm02dmSnAvo1j4ix+Y9q/E6X6Z/86eY9q/E6X6Z/wDOqcz1scTURITEHpdeKjIIxxJQkgogz5WaImXcXgmBzuR3gIGLzQN9wD0Hxx99PNXTXRGWK3uK3H8VO3lAqzIICVEUkQRBHiZEiymAMK5DEABMO30hKIYqfItXmPavxOl+mf8Azp5j2r8Tpfpn/wA6qLjXaDGHgZOGtK5Zlzcrt8yjY5kk2K4VVamOCoCZZciKYYSOYDHUAMAACICIAPRP60RsDIu0PM25ZCMhzEJOzLNNqZnDHEhTiVcDrlWU2kOUxxbprAQB7whgcPkWbzHtX4nS/TP/AJ112qwQty/ohtDGWbNpFq8TctgXOKKgkAhyH2CO0DgICAGAM4MIfBiAaalNJK/HlhRNsTb5SMKgeQk0gbFZNCrJcRExjHWKofeACUATIcQEO8BSiBhs7D/mHbf/AGn3+GWscsnS6ItWpr15H2DNuY90q2ccqKZFkjCVRPeIEExDB1KYAMIgPqHA1Qgse1sd6KA5vWZRZQ5jD8ImEwiI/CIjkau+rP8Ay8mv+0T/ABC1CGMUoCYwgAAGREfUFc/+eSy7WoPzHtX4nS/TP/nTzHtX4nS/TP8A51nVga4PpudnTXijGRtuqx60/bT1HeBnEWgqdFc6oiYwHMGxNYBIBQ4blMNoiUTGhJjypTQ1yRhpfTm6Ia23UK9mBXfMEjuXqJFmqaCrYEHBwKA8yImRWKRfG33MPAe28f1GweY9q/E6X6Z/86eY9q/E6X6Z/wDOs7f+Uixi3EwykNJr/QdW4RN5MombMB5GOU3CR8Y4OxTUSEE1Pc0jHcBsNuRDpnnZ+Ue1UWfxcZZN03dJtDyTjgQrBo32tGrxRuYwmcvSkEQEgfxymUyAlTDqQt+Rpg2Pa2O7FAQ3qMmsoQxR+EDAYBAfgEByFX3TJ68kLBhHMg6VcuOVBM6yphMopsESAY5h6mMIFARH1jkapltXFFXdb0bdEGuK0fLNUnjVQxBKJklCgYoiUeoDgfAfCrbpN/y8hf8AtH/xDVw55JJoi3UpSvM0UpSgUpSgUpSgUpSgUpSgVm2pwnkbrt62nSywxjqPknq7cipkyrKoqsyJifaICYoAup3RyXIgIhkpRDSazbUD/mPa/wD4SZ/x46t8f9ziVB+Y9q/E6X6Z/wDOnmPavxOl+mf/ADqo64anudNIyEOnMwdvITUiLBa459A6sXEe5HUKdyUiqPRQxASLuWSLuOHeEdpDcViasTCq0PG3k8gJ9pcrwza37ttYSBEynuCi23hC4WOgcoJKE98VKcS5Axc7C+353rSL35j2r8Tpfpn/AM6eY9q/E6X6Z/8AOqOfyg4h0+VY21p9eNxnagqu8GLbtDC3aEcKoA62KuCHWTOdBbaRAqiogn733iAbhgNfJV28udjL6aXFzjC4lIWBjmpWXNSpSNiLGEu53sTEpRMcxlzIlApkyj7oIlp8jRvMe1fidL9M/wDnTzHtX4nS/TP/AJ1RFfKGihXbQ0dp1eUjci6Ts61vt0WQPGh2xkQWSVOo5K3KYCuE1CiCwkOUe4YwiUpu+x9dIK+5SIaMLSuePYXC0VdRErItkEWz4yQAKyJSAqK5DkyPviRCm2GEhjhgRfIt8Qyb2vetqkgeKzTlpBdk9SIscUl0gYulgAxBES7gURTEDY3AG4AEAMYB2Kskcf8AraxP/NuP/q31a3Xl5pJn/FhSlK4qUpSgUpSgVUNV372PspVRg7WaqOJGMZHVQUFNQEl3yCKoFOUQMQRTUOAGKIGDOQEBABq31SNY/wD0SX/zcH/9o1q4/sFR8x7V9cOmPzic4j//ALp5j2r8Tpfpn/zr5ai3S7sexJ672MKvLrw7BZ4RkgU5jrCQojtACFMYfDIgUpjYAcAI4Cs50u1Vue7JAz5pqHprqTbfAOZ6+s0vLKwioEE5CLpneueMCgZKGOEYolyJTAYRJ79Yy60y0vzHtX4nS/TP/nTzHtX4nS/TP/nVPlNcYXzMhblho97xrpgX0zEEdJE2pg3acxtcAVTIZDAYIJuueoeNV+N8o4jmwzTk/aM/bEiraq1xx6sjGpHQkSItyqLHQRI64gAUTlHguDN1DFN08DGK+RqHmPavxOl+mf8Azp5j2r8Tpfpn/wA6qUlrfFxahzktK45WKjSJDOTjFBsDKJMdMig8Yqjgq59pDlObgJrbAHvCGBrpeawtSXG4hIOxLruFkwdJsZCZiUGyzNm5OUpipGKZcrhTAKJ7jJIqEJvycxQKcSvkWTzHtX4nS/TP/nTzHtX4nS/TP/nWMw/lG3s6Z2XKTVghEN5yYmGUqi8OlxUWjRUSFXSFBwsQNgdVAMPXhn24DaYbhder0nB6z25p2zjo/sR02crzUk4UMCjdQrdRZJNMoYKHdRMc5jCOAEgAHXIPkXbzHtX4nS/TP/nTzHtX4nS/TP8A51T4fXy2X66Skzbtw25ESDVZ9DzMsggRpLIJJiqodEE1TrJiCRRUAjhNI5iAIlKbabFXeeUw4Z3I07Q06uSGt0bZl7lMtJNEOO/bNAQMmo1FJwcpNxVTCKTgE1epMlJ1p8jWPMe1fidL9M/+dPMe1fidL9M/+dU/UvWVG0bemDwjA6ky1tJ1dLPmkgM1FNLaUCKbTgfduOXoHTGe8Fft/rfGxjhTfaNwv4mNMkjOXAySbdnRSxiEMYqoKLlcHAoKEE5kUlSkAe8IbTbXyJe7oSNte1Jq5beRUj5OKj3L1o4QXUIZNVNIxyiODYMXIBkpslMGQMAgIhW91iWpRim02uoxRAQGDfCAh6w5c9bbXn/6JJZpYz/Ur/1Faf8A3Xn+DVK1BtGVuNKJl7akGzKdt192hHndpmO3WEUzpKIKgUQMBFE1Dl3lyJB2mwbbtG/akxMy5XgpqHiVpPsxytzDZA6ZVeEoiYu8vEMUptpgLkuciBhEMiGBrvO3F8n9x/2bf97WuHLGY6tSsKktP/KJ1CvlJTU+MsZrZqKL3kW8PPOXj9g7cMztuKcyjFumuiUqiglJ3TlFQRE6gAUoccvodrLd8OwjriGzI48Najm2G3JSTpwDoTHZmI5OJ2xOEBgbHAUgBTaOMKH3Dt9A87cXyf3H/Zt/3tOduL5P7j/s2/72t9sPRkNv2lro0vy4biuK1LFkizSp2DaTC7HhV46HKIgkii0GNEoGH3xQOP31BHvAUpAL+bU0Lu2DPYLV3NxYxkDBt2s80TFU3NyLRMxWaqIiABwyissYwmKBhFNDGNo1sHO3F8n9x/2bf97Tnbi+T+4/7Nv+9q9sPRiFm6P6u6XwCEbZp7RknMtBMYmYNIv3KCbFw2TMkDpvsQOLkokP7yfgZEge6BuHbzr6DamWvY05pTp6/tx3AT6LcyknMO1knbZUiCKKqZW6SBiKFUKhuBQVSCmKg9w4FDO787cXyf3H/Zt/3tOduL5P7j/s2/72nbD0YxM6Q6pOHUvbUaa1fNuRu9ndpZFd84B8USOW6qrQWxUBT/8A0TiVbjD/ABSimGROFYW8ll8yXYzr3TLS3UZ/yjli6Y3aYSoNSi+cOUVmy4snJgMJXAkUTFIoDtIIH7uDejuduL5P7j/s2/72nO3F8n9x/wBm3/e07cfo57OgSWva0XbybCHZFj2pEOXh2PJsUhAOpUEMm4aYeouRwFXPSb/l5C/9o/8AiGqqc5cg9CaeXGYw+BdrYuR+DJlgAPziIBV50/h30BZkREyhCpvEGxRcJlMBgTUMImMQDB0NtEwhn14zXHnyxskixYKUpXnVCXpcRrVtl7NJNyuHCYJotETG2lVcqqFSQTMb+KBlTkKJvUAiPqrMFLIh5cAdXq3QueSP1VdSaBVilMPiCKR8kQT+AhADwATCY2TDpN/W86ue1HkVHnTK9AyLxnxREExct1iLogcQARAgqJEA2AztEcVRoifYS4qtkxO3ftcA8j3GCOmhx/iqp5yHzGDJTBgxRMUQEfRwTG73+pX5hXClgTMb2c4UJbsg6SjnMcY4mSaKrHAiCrcBH3MBVMmmZIuCYU3gBRKbfrlY+0KlfM8whYZQrplFyKD+VeJDuSQM2UKskgBw6CsZYiWSeJUwOJtomT3bBWObrMv4QpSlclZteH/Mhr/4M/8AjhWeai6P25qfd9syN62vblxQMK2flWYTLFN2UV1uCCShElCGJkoJqAJhwIbumcjWlX7FzqV0sLjjIF3Ktez1WTgrQ6QKIn4hDkNtUOXcU3fAduRAQDpgREIjnbi+T+4/7Nv+9r18WWMw1azVKuHSGFQtu3rW03t637ajYa42M0ZkyaEZtgIktxFdiaJNu83X1AAj4iFQl0acakoS14srFPbakNqHg0k6lHa6TqIVFsRsoogimicjsDJkKYCHUQ2mAe8YDYLqHO3F8n9x/wBm3/e0524vk/uP+zb/AL2t9sPR5tfaUwuq8tezO30bZupva8vBEaNZspXMW/csWJkV2joSkUKA7VRKJgIcU1NphIO3aNsitEJiGhGMzaum+mFlXBCzhJpjCW6B0I5yIIKNzpunhGqZzmOmqcQUBqApjtDaoACI7NztxfJ/cf8AZt/3tOduL5P7j/s2/wC9qTLD0UF1burM6+tK6J1haSMlCTazpeNaSTkUEWSrY6BgK6MhuXWKJxOGUESjkCd3G81citCbtYtrPZGm4tNqwkXZ7kQIKpwfMhenetSJDtL3yLgmBtwY2KLAHUQGth524vk/uP8As2/72nO3F8n9x/2bf97V7YejH4fSHUGykYS5bXG3pO4oV5PEOwfP12rJ2ykXwuADmSIKHSVJtSH3k5RwcvrA4fVrpPqJbDqL1AgD29L3gm4lVpGPevVmMcoSQUTUUTScEQWULwjIpAUwpDxAA+QJuDbrfO3F8n9x/wBm3/e0524vk/uP+zb/AL2nbD0YvBaTat2otbl1sz2nM3DGP7gF81WfOWLNVtJOgX3pKlQWOCifDT7gkEDZMG8MAavg18nC4JGChrbuiajDNkYK5oeSWZcQDCaTcEUTUSIcuMFKUdxTG6DgAEwZGtv524vk/uP+zb/vac7cXyf3H/Zt/wB7Tth6Mk0Y0XUsOfTlHeiujdpKsmIs+1LTZZfyJh2gJzDyrflCCBNxktzjcJgDeGzJ9iYf8w7b/wC0+/wy18OduL5P7j/s2/72uy2Iy4pO846Xd2y/imMY2dblXhkQFVVQCFKQhCHMbw3GEwgAdAAMiI7cZ5Y9LJRP6s/8vJr/ALRP8QtUe/oF5dNjXDbMeoim6lot0yROsIgmU6iRiFEwgAiAZEM4AR+Ya0bUCHfT9mS8TFkKo8XbGFumYwFBRQogYpBMPQu4SgGfVnNUbnLkDofTy4ymDxLtbGwPwZKsID+cBEKxwZYyWWrWfMILVa77WkNO9S7NtGHhJCEWi1H0LdbqQc7jJ8PoirHNygGBMOeIIgIAGBzkKxpVoEW1nRkZXRjRy2ODFrRik3arHElJAoThmOP3KhyYGKG4xOI4yJtu4Nu420c7cXyf3H/Zt/3tOduL5P7j/s2/72u3bD1Gf2NbOrcRCttP59G007diIo0W3k2r1y4fSJSp8NE525kUk2ggAAYwAquAj0Db41CsdOtVYNnpzNxcdajqds2KcQDxi4mXKTRdqqVEoLpuCtDHBQOWTNwxRx3zF39AMOtc7cXyf3H/AGbf97Tnbi+T+4/7Nv8AvadsPRl9m6P3Xb6OnhZSSiV1bTkZh5IHbioUqwOwX2cIpiiOQFUuQMPTrgTYyNcuTyb2zjUKfuNro/pFdaVzviSJ5q62ILSMUtwyJnKRIGp+bTDhlOUouG4gJjFzjA1ufO3F8n9x/wBm3/e0524vk/uP+zb/AL2nbD0V+1bNkYG/LwudwqzFlPljStE0RMB0wboCmfeUQwUBEQ24EenjirOw/wCYdt/9p9/hlr4c7cXyf3H/AGbf97XZbEZcUnecdLu7ZfxTGMbOtyrwyICqqoBClIQhDmN4bjCYQAOgAGREdueTPHpZKJ/Vn/l5Nf8AaJ/iFqgakQ9y3FY8xb9ovm7KUk24s0nS6pkwbkUECqKFEpTDvKQTCUMdTAUBEA6hpuoEO+n7Ml4mLIVR4u2MLdMxgKCihRAxSCYehdwlAM+rOao3OXIHQ+nlxlMHiXa2NgfgyVYQH84CIVz4MsZLLVrELv8AJKtxSKiW1hTNxtl2KakUsnL3fLPmxolwiLd0imk5VXImYEzFOTYQob0iFEQLnHFd2juuuoKcYzuFex2DaFh14lIWj92sd6oZdmcro+5uUEAEjZQBRDibRMX3U4D03znbi+T+4/7Nv+9pztxfJ/cf9m3/AHtdd8fqf1RLv0znrgU1IOzdsCBeFuN4hjxVDhw1iJuSiZXBBwTK5MCXcPQenhmu6X6IXXZVyyszKyESqg+YyrVMrdVQxwO5kVHKYiBkwDAEOAD1HvZAMh1rXeduL5P7j/s2/wC9pztxfJ/cf9m3/e1e2G97ENpVasjY2mtsWdLLN1nsLFt2LhRsYxkjKJkAoiQTAURDIdMgA/NWiaTf8vIX/tH/AMQ1VTnLkHoTTy4zGHwLtbFyPwZMsAB+cRAKvOn8O+gLMiImUIVN4g2KLhMpgMCahhExiAYOhtomEM+vGa48+WNkkqxYKUpXnUpSlApSlApSlApSlApSlArNtQP+Y9r/APhJn/Hjq0mqDqLDzh7hgroiodeURYM37Bw3bHTBYvMHbHKoAKGKBihywlEAHdk5cAIbhDfHZMpalUu+W2pGY2V05fRCizJU4vIiXMZBtJJGLgC80mmqo2OQ2DAYqahRADFMTvAcmF3Tpi9sq0bjuNiysyw7xuWQj1rdgbfU47E00gocxFQEUWx3K64HMColSIIJFEBEwFE9ejeduL5P7j/s2/72nO3F8n9x/wBm3/e167lhf9Rimpmg0xPxluW/AWVZcslBRaTNhPv5d9ETkG6IIZctXbRE6qgGwBjJFUb5EggY5iqDsi7i8m645dcy03AWRfhIuZLLsm91KGOjK8Vgk1cFdEFqqVuoBkSqkVIC2REQEhc5rf8Anbi+T+4/7Nv+9pztxfJ/cf8AZt/3tTfH6Mp0/wBF5G1btg7lbWjYNosWUbKtl4W1W5km6KrpRqJNpgRTBccNzblRTSEckACdBGpe09L5+CZ6Zt3byPOazG7pF+KahxBQVG4pl4WSBkNw5Hdt6f8A7Vf+duL5P7j/ALNv+9pztxfJ/cf9m3/e1e2Ho/Lj/wBbWJ/5tx/9W+rW6yqIirknLvt18ra8hFs4R4s/XXfGRKB9zRduVMhSHMYTCLgDZEAKBSG652gOq15uazLLcWFKUrkpSlKBSlKBVI1j/wDRJf8AzcH/APaNau9VfUqEk7gtFdjDoFXdovGL9NETgQVuWdouDJlMbBQMYqQlLuEC7hDIgGRC4/opF2MLik7dfMbTuBOEmFEvuJ+q0K6TRVAQEu9IwhvIOMGADFNtEdpijgwZcy0tu67NRY/UO+bJsW1pWLRWQUlbdkVZCQl0VEDpA3XVVZNjJoF3AoCYmWyYpcbdu4dX524vXp9cYD8Gxv8Avqc7cXyf3H/Zt/3te654X/WWEReierasHbdrzZ7RbsbOhJaCZOGr9ysrIEcMxboOFCmbkBuIYKJ0iir6QiCg4waG1Wte9o3TF5JatSdoxja1rSfQEKePkFlDzEi7albFMciqSYImNtAhECGWExlPS6AA+kOduL5P7j/s2/72nO3F8n9x/wBm3/e1neHo8/L+TQkFzv5pPR3SK6QuJRs+VmLsYArIxK4IJpKEIlypxdpgKQHKUXDcQExi5xgQv8ZaWqdlXHLMbJaWk4ty4Jjtdd7IvXKbqOMoVMF0k2iaIkcAPDESCLhHbvwIGAne0Lnbi+T+4/7Nv+9pztxfJ/cf9m3/AHtXthPyjJYbRi6TPYNncgQhomFe3GBxbvFVFXbSR3imIkMiUEzgKhimLuMAAUBAw5wHNGaDXY6QgDXnPx8i+TdSp512gZQp10V2JmSHC3FHJypAlu3CAbt4hnwrY+duL5P7j/s2/wC9pztxfJ/cf9m3/e07YejG1NGdQb0iYmxNRnVvtbctmOcx7R9EO1lXkqKrNRmVVVFREhGgFSVMYSEUX3HEO8UC4N8JPSTWO/FG8bfLu0YyLZWpMWyCkW6cul3SrpNBNN4JVEUyohhI4mQAym0RDCp/VtfO3F8n9x/2bf8Ae0524vk/uP8As2/72nbD0YfM6QavXtHyo3OSz4t25sZ5aTZFhJOnSYrqHTErg6h26YlIbaOSAQwkwHeU3d3kceTOi2vOTlCaP6P3SlOvk5I8/crEFpOMVEhCqEKlyp+bIBk9xMuEBLvx6sjvfO3F8n9x/wBm3/e0524vk/uP+zb/AL2nbD0RWpJQLptdJQAAAIN8GADAfe5626sUuWNuy67ek7XY2PMt1phmswK4dC3TRQ4pBJxFBBUR2l3bhAoGMIB0ARwFbXXDnymVmlhSlK4KUpSgUpSgUpSgUpSgUpSgUpSg+YrogIgKxAEPENwVR9WoG1Z+CYHnIWKkjIzUQRMXbZNYSFPItynANwDgDFEQEPWAiA1PvbDseRdKvpCzIJ05WNvVWWjkTnOb4TGEuRH89VTUDTvT9KBanSsW3iGGbhiiJYxABwMk2AQ9HwEBEB+YaC/tCRzBskzYkbN26JQImkkBSEIUPAClDoAfMFfciiZ87DlNjxwOar3sbadfzBtz9VIfVqTiLfgbfTUSgYSPjSLCBlCtGxEQOIeAiBQDI0EhSlKBSlKBSlKBSlKBSlKBSlKBSlKBSlKBSlKBSlKBSlKBSlKBSlKBSlKBSlKBSlKBSlKBSlKBSlKBSlKBSlKBSlKBSlKBSlKBSlKBSlKBSlKBSlKBSlKBSlKBSlKBSlKBSlKBSlKBSlKBSlKBSlKBSlKBSlKBSlKBSlKBSlKBSlKBSlKBSlKBSlKBVY1E/ADT/wA7Cf8A2barPVGv91Lzp07TtJo3dyDNyzlXZ11BIigVBci6SRjAA4UVMkBQD+KUROPTaBgvNKjbfnWlxRpJBqRRIwGFJduqGFW6xeh0lA9RgH/4EMCGQEBGSoFKUoFKUoFKUoFKUoFKUoFKUoFKUoFKUoFKUoFKUoFKUoFKUoFKUoFKUoFKUoFKUoFKUoFKUoFKUoFKUoFKUoFKUoFKUoFKUoFKUoFKUoFKUoFKUoFKUoFKUoFKUoFKUoFKUoFKUoFKUoFKUoFKUoFKUoFKUoFKUoFKUoFKUoFKUoFKUoFKUoFKUoK9dM6/bHRt+2ypKzkgURR4gbk2qQDgzlUA/iF8AL0E5sFD1iHdb0C0t2NKwbHUWOYwquHCo5VcrG6nVOPrMI//AAAYAMAABX7joRhFunz9uU5nMksCzhZQ+4xsBgpAH1EKHQpQ6BkfWIiMhQVW4ouTiZLzytlAVnAFKSTYE/8AfoF8BL6uOQPRH+MGSD4lEtgjJNjMx6EpGOSrtXJAOmoX1h84eICA9BAeoCAgPWuqo+OhGES7fu2JTp9oqg4WS3+58XGDHKXwKJugmx4iGfEREQkKUpQKUpQKUpQKUpQKUpQKUpQKUpQKUpQKUpQKUpQKUpQKUpQKUpQKUpQKUpQKUpQKUpQKUpQKUpQKUpQKUpQKUpQKUpQKUpQKUpQKUpQKUpQKUpQKUpQKUpQKUpQKUpQKUpQKUpQKUpQKUpQKUpQKUpQKUpQKUpQKUpQKUpQKUpQKUpQKUpQKUpQKUpQKUpQKUpQKUpQKUpQKUpQKUpQKUpQKUpQKUpQKUpQKUpQKUpQKUpQKUpQKUpQKUpQKUpQKUpQKUpQKUpQKUpQKUpQKUpQKUpQKUpQKUpQKUpQKUpQKUpQKUpQKUpQKUpQKUpQKUpQKUpQKUpQKUpQKUpQKUpQKUpQf/9k=;strokeColor=none;strokeWidth=102;spacingTop=-3;spacingBottom=-3;spacingLeft=-3;spacingRight=-3;rounded=0;html=1;whiteSpace=wrap;" parent="1" vertex="1">
          <mxGeometry width="809" height="898" as="geometry" />
        </mxCell>
      </root>
    </mxGraphModel>
  </diagram>
</mxfile>
